<mxfile host="app.diagrams.net" modified="2021-09-09T08:37:27.708Z" agent="5.0 (X11; Linux x86_64) AppleWebKit/537.36 (KHTML, like Gecko) Chrome/93.0.4577.63 Safari/537.36" etag="_n91whf4fcCIuUNKFJsV" version="15.1.1" type="github">
  <diagram name="Page-1" id="c7558073-3199-34d8-9f00-42111426c3f3">
    <mxGraphModel dx="2541" dy="782" grid="1" gridSize="10" guides="1" tooltips="1" connect="1" arrows="1" fold="1" page="1" pageScale="1" pageWidth="1169" pageHeight="827" background="none" math="0" shadow="0">
      <root>
        <mxCell id="0" />
        <mxCell id="1" parent="0" />
        <mxCell id="10" value="&lt;p style=&quot;margin: 0px ; margin-top: 4px ; text-align: center ; text-decoration: underline&quot;&gt;&lt;strong&gt;&lt;strong&gt;Offenen Dienst erstellen (gesperrt)&lt;/strong&gt;&lt;br&gt;&lt;/strong&gt;&lt;/p&gt;&lt;hr&gt;&lt;p style=&quot;margin: 0px ; margin-left: 8px&quot;&gt;New&lt;/p&gt;&lt;p style=&quot;margin: 0px ; margin-left: 8px&quot;&gt;System&lt;/p&gt;&lt;p style=&quot;margin: 0px ; margin-left: 8px&quot;&gt;Construction&lt;/p&gt;" style="verticalAlign=middle;align=center;overflow=fill;fontSize=12;fontFamily=Helvetica;html=1;rounded=1;fontStyle=1;strokeWidth=3;fillColor=#dae8fc;strokeColor=#6c8ebf;" parent="1" vertex="1">
          <mxGeometry x="260" y="510" width="260" height="280" as="geometry" />
        </mxCell>
        <mxCell id="14" value="Schichtleitung" style="whiteSpace=wrap;align=center;verticalAlign=middle;fontStyle=1;strokeWidth=3;fillColor=#FFFFCC" parent="1" vertex="1">
          <mxGeometry x="39.99999999999997" y="529.9999999999999" width="90" height="60" as="geometry" />
        </mxCell>
        <mxCell id="87" value="" style="edgeStyle=elbowEdgeStyle;elbow=vertical;strokeWidth=2;strokeColor=none;startArrow=classic;startFill=1;endArrow=none;endFill=0;" parent="1" source="10" target="14" edge="1">
          <mxGeometry width="100" height="100" relative="1" as="geometry">
            <mxPoint x="70" y="740" as="sourcePoint" />
            <mxPoint x="170" y="640" as="targetPoint" />
            <Array as="points">
              <mxPoint x="157" y="550" />
            </Array>
          </mxGeometry>
        </mxCell>
        <mxCell id="6pbGGfXBaGJGcjd1V0Mg-102" value="" style="shape=image;verticalLabelPosition=bottom;labelBackgroundColor=#ffffff;verticalAlign=top;aspect=fixed;imageAspect=0;image=data:image/png,iVBORw0KGgoAAAANSUhEUgAAAboAAAHyCAYAAACd/AuEAAAABHNCSVQICAgIfAhkiAAAABl0RVh0U29mdHdhcmUAZ25vbWUtc2NyZWVuc2hvdO8Dvz4AAAAldEVYdENyZWF0aW9uIFRpbWUARG8gMDkgU2VwIDIwMjEgMDk6NDE6MjXlM5/qAAAgAElEQVR4nOzdeXhV1aH///cZczKReWZOmGcIRJAZRAbBgkMVh9t++6j9WYdq7aBt9XqLraX2it4+fpVS2/qFYtVeq+IABgfmSAgKMoQhQGZCCJmHkzP8/og5JWVIgJOBnc/reXg0Z++99jrDXp+z1l5nb5PX6/UiIiJiUNbm/zlUXMXDf82kpLIeE6bOrJMAXrzE9nDwwn+kMjA+FI/Hw5kzZ2hoaEDfTa4+JpOJgIAAIiIiMJvNAHpPu4DzvS9iPKbmHt28337KqcoG8IJyrgv45n2I6RHAhz+dwenTp7HZbDgcDkwmvUFXG6/XS319PY2NjURFRQHoPe0Czve+iPH4vsKUVNYr5LoSE+D95n0BGhoa1CBexUwmEw6Hg4aGBt9jek873/neFzEeX9CZMCnkuhoTvmFkr9erBvEqZzKZWgxR6j3tGv79fRHj0aC0iIgYmoJOREQMTUEnIiKGpqATERFDU9CJiIihKehERMTQFHQiImJoCjoRETE0a+urXJqkyCAWjElk5cYjvsd+sXg4z767D5dbP8rsqmprazl16hTh4eGEhYV1dnWkjbKzszl8+DBut7vF41FRUaSlpWGz2TqpZiJdh9+Czmw2MbJXOOOTo7hhTBL78yt8j38rtSeZOac5UlzNkZNV/tplu9n481mEOqxM+OV6br2mNz9ZOJT/m36YP316tLOr1i6OHTvGli1bcDgc1NbWMnbsWEaMGNHZ1fIpLCxk/fr1pKSkMGXKlEvatvm5paWlMXDgwHaqYeeorKxk+/btjBs3jpCQEN/jHo+HvXv3sn//fkaNGtWJNbwwp9PJmjVrCA8PZ/HixZ1dHTE4vwSdyQQv3D2O5LgQ6hs9RIXYuXdWStOyby5hdfeU/iRFBvLnz3P4y+c5Fy2vV1QQbz869bzL7lv1BbuOlV1S/QYn9mDqkFh25ZRd8rZGd+zYMTZv3szEiRMZMGAABQUFpKenM2TIEKzW8388Kisr+cc//uH722KxEBISQnJyMiNHjuxSl7Wy2WwEBQUREBAAwIkTJzhz5gzJycmEhoZ2cu2uTGVlJWaz+bxfSsrKyqiurm5zWZs2beLo0aPMmDGDvn37nrP8/fffJzw8nGuvvZaMjAyKi4u58cYbr6T6Ih3GL0GXGBHEqD4RzPn1J4zsHc4D1w/k7pe2A2A2mdj+X3O4d1UGgxN78OSSEa0GXbOK2kbeyypo8djJivpz1jOZ4GKXqhuc2IN7Z6awkiMKurM0h9y1115LcnIyABEREXg8HhobGy8YdM0CAgJITk7G7XaTl5dHVlbWBRvey3Wl1yDs2bMnPXv29P194sQJjh49Snx8/FUbdPv27SMnJ4fa2lrcbjcZGRnnrHPkyBGcTieHDh1i6NChJCUltXgdLlVycjKBgYEAJCUltehBinR1fgm6AKuZugYX9Y1udh0r46d/+9K3zOP1suT5zVTXuyirdhJgbfv8l9PVDaz48OA5j//p3jRG9YngjR253DA2iYf/mklxeT0/XTSUMX0jcLm9ZBwt5bl1B5g7MpFHFwwG4N6ZKYzoFc6Df8mkd1QQP144lBG9wqmsawrUP312FI/n4g1rcICVH84bxJTBsVjMJrYfbtpPZV0j/+/+SQxO7MFfN+Vww9gk7FYza7Ye75JDns0hN3nyZPr37w+A2+1m8+bNJCQk+Bq1iwkMDCQtLQ2A3NxcNm7cyMmTJxkxYgRer5d9+/aRnZ1NXV0dUVFRTJw4kfDwcLxeL1999RWHDx+mvr6esLAwxo8fT0JCgm+YslevXlRXVxMYGOgLzsrKSt577z0qKiqIi4tj8uTJBAYGXnRfBw4cYMeOHYwdO5bS0lJyc3MB+PDDDxk3bhwjR44kPz+frKwsKisrCQkJYcyYMfTp04e8vDzS09Pp06cPdXV1nDlzhrCwMKZNm0aPHj3a6Z1pndvtprS0FIBBgwadc34OoF+/fpw4cYL6+npqamrweDxXtM/AwEC+/PJLNm/eTHBwMMOHD/ctKy4uZufOnZSXl/u+/IwdOxaTyURdXR07duyguLgYgD59+jB+/PgWz2Xr1q0cP34ch8PBxIkTSUxMBLjq3hfpuvw269JuMzN5UAwTB0STHBfC5EExvn/9YoKZPCiGcf0iL6nMiOCmIdDmf1MGx7RYfv3IBHYfK6O8ppEnbxrOpIHRrNx4hDczcpkzIoGff2s4Ww6d4n935gHwyb6T/PnzHALtFl7+3gTG9YvkvawC8stquW9WCjdP6NVqnZ6+eQSLx/ci63gZmw6UMH90Ir9Y/K+D3mSC3tHBrPr0KE6Xh/9v9gB6Rwdf0vNubxcKufT0dOrq6pg+fXqbyvF6vdTV1VFVVUV+fj4A0dHRABw4cICdO3ficDgYNGgQp0+fZsOGDbhcLg4cOMDu3buJjo5m3LhxVFRUsHHjRhobG31l5+XlYbFYiIuL8z1WWlpKTEwM8fHx5Ofns3379lb3dbbhw4f7yhs9ejS9e/fm9OnTpKenU19fz5AhQ3C73Xz66aeUlf2r519cXEzfvn3p27cvpaWl7N69+xJfcf8aOXIkAwcOZMSIEUyaNOmC/yZOnAjAxIkT6d2792Xvr7i4mE8++YTGxkYGDx6M1+tly5YtHDt2DJfL5fvcXHPNNURHR7Nnzx72798PwCeffMKJEyfo06cPcXFxZGdnk5mZ6Su7qqoKt9tNr169qKysZOvWrQBX5fsiXZffJqME2qx8b0byRddx2CyXVGZEsJ17Z6b4/v7fL/LYfPCU7+8f/HknBwsrAQh12MAL1Q0uPt5bzNbsUzS4POSW1rA/v4Il43tx5GQVWcfKmDcqkdgwB2/syOV/1mfjsFnY8PhMFoxJ4o0duResT2wPB9OHxnHkZBX/+dZeAPrFhjBjaFyL5/bb9/ZzuqqBgfGhLJnQi77RweSW1lzSc28vx48fZ/PmzUyZMoV+/foBLUNu7ty5OByONpVVUVHB66+/7vs7MjKSYcOGAU3hYzKZmD59uu+ea3v37qW4uJg+ffr4hg5tNhtFRUXk5uZSUVHhK6tXr17Mnj0baJqMAk29lGuuuQav18vf//53cnNz8Xg8F93X2eLi4ggJCeHkyZMkJCQQHh7O1q1b8Xq9jB8/nt69exMXF8fHH39MTk6OLxT79u3LsGHDqKur4/Dhwy3q2VXs2rWLkSNHkpeXR0hICLGxsX4r++DBplGVa6+9loSEBFJSUnj77bc5ePAgiYmJuFwuAgICcDgcpKWlMXz4cAIDAykvL6ekpISePXsyadIkvF4vmzZtanEONzw8nKlTm87Hnzp1isrKShobGzl48KAh3hfpGvwWdBW1Tr778o6LrtM/NoT/+3/GX3Sds+WUVHPrC1suuLyy7l89gP/63695/Mah/PKb3tXXeeUsf+/AebfrGRUEwK3X9ObWa/71TTch/OLDdT0jm7ZLiQtl29NzWiyLDz83HFzfDIPaLmG4tj0dP36cTZs2nRNyGzduvOSQAwgJCfH1GoqLi9m7dy9bt25l2rRpVFVV4fV6eeONN1psU11dTWxsLHv37qWwsNB3d2egxfBa8+SRszU3kCaTiZCQEOrq6qivr7/ovlpTVdU0C/izzz47Z9uze5Nn7/98Q4Wdbe/evfTv35/jx48TFRXl16Brfh2bf3bS/N/q6moCAgKYNm0au3btIj09HbPZTK9evZg0aZIveIKCmo4bk8nEtGnTgKZZl//ObG46Ttxut2HeF+ka/P47us5gt5pJjAjkv98/SFF5HVMGx/L4oqH8cslwbv+frfz7Wbfi8joANuwpYu22E0BTGNU5XVxMcUXTdrmlNTz1TY/OZAKL2URR+bmTZLqS5pCbOnWqb1Zdc8jV1tZecsgBWK1W3wSHmJgYXy/KZDIRHBxMTU0N1113ne+3XB6Ph7CwMDIyMjhy5AgTJkygd+/e7Nixwzf0eTHNE1O8Xi/V1dW+u0NfbF/Hjx+/aJnBwU3Dyqmpqb4G1OPxEBQUpB7CN4KDg329rbNfl5CQEGpqajCbzcyZMwePx8PBgwc5cOAAwcHBDBo0CGg6t9ps7969WK1W3+Sni+0T9L6If3TpoIsMsfPg9S1/+/TPzHMbxEa3h4fnDiIyxM4r6UdodDf1DGoamoKrvKbp2+N1I+Ipr3HywZeF/H/XDWDGsDhqGlzUNLiZPTye1VuOcaCg8pzymxWeqWNL9ikmD4rh/0xP5sjJKsb3j+RUVQM/XtN1zw80D1dOmzaNPn36AP8KuZqaGubNm3fJIQdQX19PZmYmXq/XN0zY3JMYMmQIO3fuJDMzk169elFeXk5ZWRkLFy6koaEBgDNnzuB0OikpKWnT/o4dO4bdbqempoa6ujp69+6N2Wy+6L7+XfPz3LNnDy6Xi8GDB3P06FH27dvn612eOHGCWbNmXfLrYQQ5OTm+iS4AiYmJDB48mOPHj7Nlyxb69u1LXl7TOe/Bgwfj8Xj4/PPPCQ0NbTFBxWazER4eTkxMDCdPnmTbtm00NjaSk5PDwIEDWw06vS/iT1066MKD7PzH1P4tHss4cvqc9bxe+OFru/jRgiHcOysFL162HDrFc+uahi63Hy5l08ES0pKjuCYlmjd25HLfqi94ZN5gZgyLw2618OXxMrYdLj2n7H/3879/xQ/mDGTq4FjSUqLIKanm7Z2t90Y6S/N5kSlTppw35C6nJ9esvr6evXv3YjKZCAwMZMCAAb4ZdcOGDcNsNpOdnc3XX39NUFAQgwcPJiAggPHjx9PQ0MCxY8cIDw8nISGBEydOUFVVddHZns2TDsrLy0lKSvINm15sX/9u8ODBFBUV+c7TjRgxgjlz5pCVlUV2djYWi4U+ffoQERFxzjm+riwiIoKAgABCQ0OvaOr/iRMnWvxttVoZPXo0M2bM4KuvvuLAgQOEhIQwadIk3/D3zJkzycrKYseOHdhsNoYMGeL7ofrMmTPZsWOHr9xBgwYxfvz4Vn82EhMTY4j3RboGk/ebT1zqzz+67EISIwJ5/cFrue43n9LQeOFx8nH9IvnlkuF86/ebLntf3VHmM3MpKCi4rPMudXV1vP7669x5553YbLZzQq4tPyMQ/ykpKSEpKQngst9TgK1btxIQEEBqauoF1zl+/Diffvopt912m97nVpz9vojx+KVHV3imjsycMj74yXRKqxrOu47JBEkRgby4/pA/diltVF9fj8lkoqKigtraWg4ePKiQM4CAgABKS0s5derUBa9EU1RUhNls1vUupdvz29Dlj9ZkMTChB8EBFy6yuLyOwjN1/tqltIHX68Xr9fLBBx/gcDgICwtTyBnAsGHD+Oyzz1i/fv0F17HZbFxzzTWtXuFGxOj8dgR4vZBdeOGJHNI5IiMjueuuu9TYGUxgYCDz5s3r7GqIXBW6xg+8pF0p5ESkO1PQiYiIoSnoRETE0BR0IiJiaAo6ERExNAWdiIgYmoJOREQMTUEnIiKGpqATERFDU9CJiIih+e5ekJGR0dl1ERER8au0tLSW17pMS0vrrLqIiIj4VXMHTkOXIiJiaAo6ERExNAWdiIgYmoJOREQMTUEnIiKGpqATERFDU9CJiIihKehERMTQFHQiImJoCjoRETE0BZ2IiBiagk5ERAxNQSciIoZmbX0VuRi320Ojy4XL7cbt9vDNXY8AMJlMWCxmrBYLNqsVi0XfK7qb/XllFJ6uwm6GiEALIQ6Lb1l1vZszdW6cHkiMCmVor8hOrKl0FrUh7U9Bd5lcLjf1Ticejxe7zYrDbsdiMWMymXzreL1e3G4PLrebmrp6zGYTDrsdq9VykZLFCHYdKaGmtg6zyctXJyr4uqCK3LJ6KupcvnXCAq30jnQwPCkUh8XLpjNVBAcFMi4lthNrLh1FbUjHUdBdhtr6BlwuN44AO3bbhV9Ck8mE1WrBarXgCLDjbHRRW9+A1WohyBHQgTWWjvTx7uMEWuF/s4rZcrj8gutV1LnYW1DN3oJq1n5RxOQB4dw8Lp6Pdx/nujF9O67C0uHUhnQsBd0l8Hqhpq4Os8lMj5CgS97ebrNit1mprWuguraO4MBAzvryJle5ilonXx0p4nhJNa9syr/k7bccLmfL4XLum9qTTXtOMColgbAgezvUVDqL2pDOoQHfS1BTV4fVYiEo8Mq+SQUFBmC1WKipq/NTzaQr+OpIETuPlV9WyJ3tlU357DxWzldHivxUM+kq1IZ0DgVdG9XWN2A2mXEE+OcbtiPAjtlkpra+wS/lSef6ePdxsouqWPuFf8Jp7RdFZBdV8fHu434pTzqf2pDOo6BrA5fLjcvlvuJvYf8uKDDAV7ZcvXYdKSHQyhX35P7dK5vyCbQ2lS9XN7UhnUvn6Nqg3uls07ew+vp6jhw5QnZ2NlOmTCE2tvXZc44AO/VOJyHWQH9UVTpBTW0d/5tV3Op61wyI5vuzUugfG0J1g4vPD5Twh/WHqGlwXXCbt3YVs2Rsgj+rK52gLW2I1+tl37597Nu3j5qaGnr06MHo0aNJSUm56HZqQ1qnoGuF2+3xTf+9mI0bN3L8+HECAgKora1tc/l2m5X6Bidut0e/kbkK7c8rw2zyXnR2JcDI3uG8+B/j+OMnR3n6H1+TGBnIU0tGEBZk44nXv7rgdlsOl3PzuHj255Xpd3ZXqba2IXv37mXXrl1MnTqV6OhoCgoK+PTTT3E4HPTs2fOC26kNaZ1elVY0ulytfkABgoKCWLhwIQsWLLjkfdhtVhpdF/5WL11X4ekqMnIqWl3v1mv68OWJM/zxkyMcO1XN1uxT/GVTDtOHxGE2X3zaXEZOBYWnq/xVZelgbW1DDhw4wJAhQ0hOTiYsLIyhQ4cSFxdHTk5Oq9uqDbk49eha4XK7cdhbH7acOHEiAGfOnLnkfVgtFuqdzkveTjqf3QxfF7QeQm/vzKPW2bIhqm904/F6W1wJ43y+LqhifL/wK6qndJ62tiE33XQTZnPLvofZbMbVhgBTG3Jx6tG1oiOGAywWM263p133Ie0jItBCbll9q+vtOlbGgYJK399mk4lvpfbk473FtJJz5JbVExGoK2FcrdrahlitVl/Qeb1ecnJyKC4uZsiQIa1uqzbk4tSja4XX621xSZ72YDKZWv1WL11TiMPS4rJebXX/dQNIjAjkkf+X1eq6FXWuFtfIlKvLpbYh77zzDqdOncLj8TBhwgQSElqfjKQ25OL8EnSnyypbX+kqZbF2XKfXyK9j6enWz2NdjeyOSz+EFo/vxdJr+/KDP+/kdFXbfwOVfTjvkvd1tYiOCuvsKrSbS21DZs+eTUNDAwUFBXzxxRcEBwczYMCANm1r5DYkKrLHZW/rl6C7kgp0dRVVNe3eq2su38ivo1Gf297D+YQFWtvcq5s2JJafLBzCE69/xe7jbTufGxZopbrezYgBva6kqtJJLrUNCQ4OJjg4mMjISMrKytizZ0+rQdcd2pAroXN0reiIsW9NC756nalz0zvS0aZ1R/eJ4NffHsVv3tnPp/tPtnkfvSMdnKnTD4KvVm1tQ/7+97+TnZ3d4rGm2/S0PmytNuTi9Mq0wmqx4HK3byPjcruxtuHDLF2P0wPDk0JbXa9/bAj/fddY/rEzjx1HSokNc/j+hbQy/Dk8KRSn5hlctdrahkRHR5OZmUleXh5VVVUcPXqUI0eOtPqDcVAb0hpNRmmFzWqlpq7eb9enOx9no4vgwLb1CqRrSYxqupdca9e4vDmtNz0CbSyd1Jelk/q2WLZ22wl+//6BC26b1j+MyPDWw1S6pra2IdOnT2f37t1s2bKFuro6QkNDSUtLY9iwYa3uQ23IxZm830zVycjIIC0trbPr0yVV19Zht9na9KPPS+VsdOFsbCQkSJfvuVpt2nOC/80qavXqKJdj8oBwloxNYOrIPn4vWzqO2pDO0ZxrGrpsA4fdTn1D+/wYs77B2aYfk0rXFRwUyM3j4tul7JvHxROsBuyqpzakcyno2qD5Dr+1df69HUZtXYOvbLl6jUuJpc4F90298PUIL8d9U3tS52oqX65uakM6l4KujYIcAXi8Hr99K6tvcOLxeghy+Pe2HdI5rhvTl0EJodw+wT93Grh9QgKDEkK5bkxfv5QnnU9tSOfRZJRLEBwYSE1dHbV1DVd0X6naugY8Xg/BgRqSMpJRKU0h18NhuaJ70903tSeDEkJ95YlxqA3pHOrRXQKTiaYTviaorK7F2Xhpl35yNrqorK6Fb8pp5yuLSQcLC7IzdWQf+saGsOK2wUwecGkXYp48IJwVtw2mb2wIU0f2ISxI512MRm1I51CP7jIEOZru6lvvdFLf4MRus2K1WLBYzC2ufuD1enG7PbjcbpyNLsxmE0GOAI2nG9x1Y/qy60gJS8YmcPO4eDJyKvi6oIrcsvoWV1AJC7TSO9LB8KRQ0vqH4fGaCAwMZLLOyRme2pCOpaC7TFarhRBrIG63h0aXi3pn040Pz76watNVDcxYLRaCAx26ckE30jyBZH9eGaP6mBjfL5yIQEuLizNX17s5U+fG6YHI8FDdWLWbURvScRR0V8hiMWOxaIhJzm9or0gFmFyU2pD2p68HIiJiaAo6ERExNAWdiIgYmoJOREQMTUEnIiKGpqATERFDU9CJiIihKehERMTQFHQiImJoCjoRETE0BV0X09jYyObNm6mvrz/v8ry8PPbs2dPBtZKzeb1eli5dypIlS2hsbGy3/bjdblJTU1m4cGG77UO6nlOnTpGVlcWXX37Z2VUxjG59rctDhw5RXl7OhAkTOrsq0sX885//ZNmyZeddlpmZSWxsLA0NDZjN+q7YXdXX17Nz507f3yaTCYfDQXx8PD17Xvhu87m5udTV1TFo0CAOHDhAaGiob/3Gxkays7MZNGgQYWFh7f4cuotuG3Qul4tTp05hNpspKysjMlIX3pVzDRw48LxfhFasWNEJtZGuaPz48QQEBOD1eqmqquLAgQOYTCaSkpLOu35cXBxutxuAPn36YLX+qxmuq6vD6/USExPTIXXvLrpt0J08eZKgoCAiIiIoKipqEXSZmZn07t2b2NimW63k5uZSUVHBiBEjAMjPz6egoAC3201ISAgDBgwgMDCQXbt20bNnT+Li4gDYuXMniYmJvg/87t27SUxMJC4ujtLSUk6cOEFDQwMOh4Pk5OQW3+BKS0spLi7G6XQSFRXFwIEDW9ynSjrG6NGj+eEPf3jO47NmzaKqqoovvviCFStWsHr1am655RYyMjI4deoUEydOZNmyZdjtdgoLC1m2bBlff/01/fr1IywsjG3btvHaa68xdOhQ0tPTWbVqFXl5eURFRXHnnXdy6623+vbV0NDAT37yE3bs2EHPnj15/PHHfZ/Fbdu28dJLL3HixAkSExP5/ve/z4wZMzrs9ZGmnlzzv7CwMKKjo6moqCApKYldu3YRHBxMZWUlERERhIeHc/z4ccaPHw9AUFAQmzdvZtSoUTQ2NnLo0CEA33sdEBDQYn3At36PHj3YtWsX4eHhVFdXU19fj8PhYPDgwQQENN29vLS0lGPHjuFyuYiKiqKmpsbXBnUn3Xbcpbi4mLi4OOLi4igrK6OhoaFN25WXl5Obm8vIkSOZOHEiQUFBZGdnAxAVFcWZM2cAqKmpoaGhgdOnTwNNPcjq6moiIiKoqakhOzubgQMHMmnSJKKiojhw4ECL/VRVVTF69GjGjBlDWVkZpaWlfnz20lZff/01K1eu9P07evToBdf96quvuOOOOxg4cCCffPIJ77//Pl6vlx//+Md88cUXXHPNNQwZMoSMjAzfNtnZ2TzxxBOYTCYee+wxbDYby5cvJysry7dOWVkZHo+H+fPnc+TIER577DGcTifZ2dn88Ic/pKysjG9/+9s0Njby05/+lMOHD7frayLn5/V6qa6upqysjNDQUN/jTqeTUaNGkZKSctHto6KiGDZsGADXXHPNRYc/z1ZVVcXw4cOZMGECVquV3NxcoKl3ePDgQfr06UNaWhqRkZHU1NRc5rO7unXLHl1FRQV1dXXExMRgs9kIDQ2luLiYPn36tLqt2WzG6/VSV1eHw+Ggf//+vgkJkZGR7N+/H4DTp0+TlJREcXExLpeLiooKQkJCsNvtmM1mxo4dS2BgIACxsbHk5ubicv3r7tP9+vXDarVitVoJCQmhrq6uHV4Jac3+/ft97ylA3759SU5OPu+63/nOd5gzZw6hoaF89dVXHD9+nGPHjpGdnc2IESNYvnw5AEVFRWzduhWAhIQEVq9eTVRUFFFRUdTW1vL888+zf/9+Ro0aBTR9Pp577jmg6YtWeno6e/bs4aOPPsLj8fDII48wbdo0xowZw8MPP8yHH37IgAED2vNlkbN88cUXQFPPzm63Exsb2yKkYmNjfT2s9hAfH4/F0nRD3x49evi+bJeWltKjRw/fyFR0dDQOh6Pd6tGVdcugKyoqIiIiApvNBjR9EPPy8ujdu3erw4M9evRg8ODBFBQUkJ2dTVhYGH379gUgNDQUr9dLTU0NpaWlDBw40Nerq66uJioqCgCr1UpJSQnZ2dm4XC7fHYXPvrPw2UwmEx6Px0/PXi7Frbfeyk9+8pNL2qa50WlsbOTUqVNA0xeXZmd/xkJDQ3n33Xf56KOPKCkp8X3jPvtLT3N5AImJiUDTF6n8/HwAHn/88Rb7Ly4uvqT6ypWZMGFCuwbZpWpuR5pPi0g3DLrGxkZKS0vxer1s3ry5xbLTp08THR3t67WdT319PcHBwYwYMQKPx0Nubi5ff/01EyZMwGQyERER4evFhYSEEB0dTUlJiW+WFTRNHy4oKGDkyJEEBAScM3tLjKN5UsGJEyd8j5392Vq3bh0rVqxg3rx5LFu2jI8//phXXnmlRRnNExfgXyEWFRVFfHw8AA899BBjxowBmj7f0dHR7fNk5IqZTKYLti3+WP9sAQEBlJeXX9a2RtPtgu7kyZPYbDZfMDXLzs6mqKiI6OhoAk20UREAACAASURBVAMDfaFXV1fHyZMnfd+Mzpw5Q35+PiNGjMDhcGCz2Vp8EKOiojh48KBvAkpkZCSHDx/GbDYTEhICNI3ZQ1OD53Q6KSws9P2tCSddy549e/if//mfFo/94Ac/aPP2/fr1Y/DgwXz11Vc88cQThISEsH37dt/y5obo5MmTfP7552zYsAGgRQ++pKSExx57jNjYWNLT04mMjGTkyJE4HA4++OADVq9ezZkzZ6ipqeGTTz7h+eefv5KnLO0oKCiIhoYGKisrCQoK8h37/lr/bNHR0Zw4cYJTp04RGRnJ6dOnu+0pkG4XdEVFRSQlJZ0TKD179iQrK4u6ujr69u1LdnY2O3bsICgoiNDQUN95uISEBBoaGvjqq69wuVwEBwczZMgQXzkREREAvm/VZrOZsLCwFlOIExISqKqqIisrC5vNRmJiIg6HA6fT2aWGQAQOHjzIwYMHWzx2//33t3l7k8nE8uXL+dWvfsWWLVtISUmhf//+HDlyBJPJxM0338yBAwfYsmULRUVFTJo0iWPHjlFQUOArY+jQoVitVtatW0dycjKPP/44drud4cOH84c//IGXXnqJt956i4CAAGbOnHnBc4jS+YKCgujTpw/79u3DZDIRExPTYmj6Stc/W2BgIIMHD+bYsWMcOXKEqKiobtu+mLzfdEcyMjJIS0vr7PqIGE55eblv6rnX6+Wmm24iNzeXjz76SMOM0q7+fZRo+/btDBo0qNv8brg517pdj06ko7300kvs2rWLRYsWsX//fnJzcxk9erRCTtpVY2Mj+/btY9CgQTgcDt8oQY8ePTq5Zh1PQSfSzq677jqOHz/Oq6++SmBgIIsWLeKBBx7o7GqJwdlsNmJiYvj6669pbGwkKCiIYcOGtTiN0l10v2cs0sHGjx/f4soWIh0lKSnpgpci60667ZVRRESke1DQiYiIoSnoRETE0BR0IiJiaAo6ERExNAWdiIgYmoJOREQMTUEnIiKGpqATERFDU9CJiIihKehERMTQFHQiImJoCjoRETE0BZ2IiBiagk5ERAxNQSciIobmt6DLz8/nkUceYcqUKUyZMoVHH32UvLw83/Ivv/yS1NRUdu3a5XtswoQJrFy50vd3RUUFv/jFL5g5cyZz587lqaeeorKykj/96U+kpqbidrsB+Mc//kFqairl5eUAHD58mHvuuYcpU6awePFiX5kPPvgg3/ve985bX6fTSWpqqu/f9OnTefzxxzl58qRvnYULF/Kf//mfAHg8Hl555RXmz5/PjBkzuP/++zly5Ijvebz00ku+7ebMmcPy5csB2L59O7fffjuTJk1iyZIlbNiwwbfeSy+9xOTJk1tsKyIi/mXyer1egIyMDNLS0jq7PiIiIn7RnGsauhQREUNT0ImIiKEp6ERExNAUdCIiYmgKOhERMTQFnYiIGJqCTkREDE1BJyIihmbt7AqIiIg4nY3s33+C06craLqMCZhMEBUVxtChfbDbbZddtnp0IiLS6fbvP0Fp6b9CDsDrhdLSCvbvP3FFZSvoRESk050+XXFZy9rCL0OXTqeTzMxMCgsLaWxs9EeRIiJiMDabjcTERFJTU7Hb7S2Wnd2T+3cXW9YWfgm6zMxMoqOjSUtLw2Kx+KNIERExGLfbzdGjR8nMzGTSpEkdtl+/DF0WFhaSnJyskBMRkQuyWCwkJydTWFjYofv1S9A1NjYq5EREpFUWi6XDT3FpMoqIiBiagk5ERAxNQSciIoamoBMREUNT0ImIiKEp6ERExNAUdCIiYmhXVdBt3LiR+fPnt3n9DRs2sHDhwnaskYiIdHXtHnR5eXmkpqae8+873/nOBbe5//77efvtt/F4PNxwww3s3r37iuuRnZ3NvHnzqK+vv+KyLqSyspKVK1e26z5ERDpKTU0NLper1fXcbjd1dXUdUKPL02H3o/vnP/9JQkKC72+TyXTOOl6vF5PJxEMPPURcXBxms5lf/epXDBky5Ir3369fP5555hkcDscVl3UhFRUVrFy5kltvvbVd9yMi0hH+9Kc/0aNHD26//XYCAgLOu05jYyOvv/46FRUVPPDAAx1cw7bpsKFLs9mMxWLx/TObzZSXl5OamsqyZcuYOXMmGzZs4Ne//jVvvvkmERERQFMgTp061VeOx+PhlVdeYe7cucyePZs1a9b4llVWVvKzn/2M6dOnc8stt5CRkeFblp2dzb333uv7u7i4mIcffpgpU6awZMkS1q1b51t266238txzz3HPPfcwf/58vve971FcXOxb/tprrzF//nymTp3Kfffdx/Hjx3n77bf57ne/69v+o48+8v+LKCLSgaZNm0ZBQQF/+9vfaGhoOGe50+lk7dq15Obmcu2113ZCDdumS5yjCwoK4t1332X27NmtrltaWkpgYCDvvPMOTzzxBC+88AIlJSUALF++nFOnTvHGG2/wwgsvkJ+ff94yPB4PDz74ID179mTjxo08/fTTPPvssxw6dMi3zr59+3jhhRdYt24dISEhvPrqqwDs3LmTVatW8fLLL7Nx40b69u3LU089xeLFi/nzn/8MwBtvvMHcuXOv9GUREelUo0aNYsGCBRQWFp4Tds0hl5eXx4IFCxgzZkwn1vTiOizoFi1a1OIc3dlXr77lllsICQlp04WhY2NjufvuuwkICGDGjBmYzWby8/PxeDykp6dz//33ExsbS2JiIjfddNN5y9i1axcFBQU89NBD2O12RowYweTJk0lPT/etc+ONNxIUFITZbGbUqFGcONF0h1ubzYbH4+HEiRN4vV4effRRfvvb317hqyMi0jWNHj3aF3Zr1qyhvr6ehoYG/va3v5Gfn8+CBQsYPXp0Z1fzojrsHN27775LYmJii8fKy8uvqEyTyYTZbMblclFWVobL5aJnz56tbnfy5ElcLhfXX3+97zG3201ISMh512/eBzS96cuWLWPt2rU89dRTjB07lvvvv/+KnoeISFfWHGTvv/8+a9aswWw2U1hYeFWEHHRg0LWVzWbD6XRe8nYRERHYbDYKCwuJi4u76LqxsbGEhISQnp6O2XxpndrCwkIGDBjASy+9hNPpZNWqVTz88MO89957l1xnEZGrxejRo/F6vXzwwQcA3HDDDYwaNaqTa9U2XeIc3dn69u1LVlYWJSUlFBYWsnr16jZtZ7FYuO6663j55Zc5deoUhYWFvPXWW+ddd/To0YSHh/Piiy/S0NBARUUFL774Inv27Gl1P9u2beMHP/gBBQUFWK1WwsPDcbvdQNO5RoCioqI2TckVEbmajBkzhptuuombb775qgk56IJBd+ONNzJ06FBuvvlmvv/977f4SUJrfvzjHxMREcHNN9/Mww8/zODBg8+7nt1u5w9/+AO5ubnMmzePxYsXU11dzYABA1rdx5IlS5gzZw733HMP06ZNY/369Tz77LMAREVFMW/ePL73ve/x/vvvt7neIiJXi8GDBzNo0KDOrsYlMXm9Xi9ARkYGaWlpl1XI2rVruf322/1aMRERMabzZUZ6+q6LbjN79rhL3k9zrnW5Hp2IiIg/KehERMTQFHQiImJoCjoRETE0BZ2IiBiagk5ERAxNQSciIoamoBMREUPzS9DZbDbfZbBEREQuxO12Y7PZOnSffgm6xMREjh49qrATEZELcrvdHD169Jw72bQ3v9y9IDU1lczMTPbs2UNjY6M/ihQREYOx2WwkJiaSmpraofv1S9DZ7XYmTZrkj6JERET8SpNRRETE0BR0IiJiaAo6ERExNAWdiIgYmoJOREQMTUEnIiKGpqATERFDU9CJiIihKehERMTQFHQiImJoCjoRETE0BZ2IiBiaXy7q7HQ6yczMpLCwUHcvkG7h7Kuw2+32yypDx410N/44bi6HX4IuMzOT6Oho0tLSsFgs/ihSpEtrvq9WZmbmZd+5Q8eNdDf+OG4uh1+GLgsLC0lOTtbBKt2GxWIhOTmZwsLCyy5Dx410N/44bi6HX4KusbFRB6t0OxaL5YqGHHXcSHd0pcfN5dBkFBERMTQFnYiIGJqCTkREDE1BJyIihqagExERQ1PQiYiIoSnoRETE0BR0IiJiaB0SdNu3b2fp0qVMnTqV2267jU2bNgGwZ88eJk2adM6/1NRUDh06dE45ubm5PPjgg0yfPp2FCxfy5z//Ga/X61u+evVqFi1axLRp07j//vs5duxYRzw9kXaRk5PDSy+9xKJFi3A6necs37ZtG/fddx+zZ8/m888/v2A5Fzr+AGpra/n1r3/NnDlzuO6663j66aepqqpql+cj0lnaPeiKi4t59NFHufPOO/nkk0+45557+PGPf0xubi4jR45k27ZtLf4tW7aMgQMHMnDgwHPK+tGPfkRSUhLr16/n+eefZ+3atbz33nsAbNiwgVdffZXf/e53fPzxx6SkpPDwww/j8Xja+ymK+N2KFSt45JFHKCoqOu/lkjZs2MCTTz7JjTfeyNtvv820adPOW87Fjj+AF154gUOHDvH666/z5ptvkp+fz3PPPdeuz02ko7V70GVkZJCYmMj8+fOxWq3MmjWLlJQUtm/ffs66Xq+XVatW8Z3vfAeA3bt3M3fuXGpra8nPz+fYsWPcc889BAQEkJKSwty5c9myZQsAW7ZsYfbs2QwaNAi73c59991HYWEhOTk57f0URfzu7rvv5p133uGuu+46Z5nH42HFihU8+eSTzJ8/n9DQ0BbL//KXv/Dggw8CrR9/mzdvZunSpURGRhIeHs5dd93F5s2b2/8JinSgdg+60tJS4uLiWjwWFxfHqVOnzll306ZN1NXVMXv2bAAGDRrEE088QVBQEKWlpVgsFqKionzrx8fH+8opLS0lPj7etyw4OJjg4ODz7kekq4uMjLzgsuzsbCorK9m2bRtz5sxh7ty5/PWvf/UtnzNnDvfccw/Q+vH378vj4uKorKw871CpyNXKL7fpuRi3233OhWutVisul+ucdVetWsXdd9+N2dyUv0FBQUydOrVN5bhcLt92re1H5GpWUFBAfX09vXv3Zt26dRw8eJAHHniA5ORkJk+eTGJiIomJiUDrx43H42lx3FitTU2Cy+Xq0PuFibSndu/RnS9sXC4XNputxWNbtmyhtLSUG2644aLlnD355Oxy2rofkaud0+kkKSmJpUuXYrfbGTlyJNOnT28xyaRZa8eFxWJpsbz5/3XciJG0e9BFR0dTVFTU4rGioiKio6NbPLZq1SruvPPOCx5gMTExeDyeFkORhYWFvnJiYmJa7KeyspKamppz9iNytYuPj+f06dMthhctFst5e2CtHX//ftwUFhbSo0cPBZ0YSrsH3cSJEykpKeHdd9+lsbGR9PR0cnJyWtxddvv27eTm5rJ48eIW29bW1vq+pSYmJpKSksLKlSupr6/nyJEjrF+/3je0OW3aNDZu3Mj+/ftxOp2sWrWKpKQk+vfv395PUaRDjRo1iri4OFasWEFDQwP79u1j48aNzJgxA2gKqz179gCtH3/Tpk1j7dq1lJaWUl5ezpo1ay44g1PkatXu5+hiYmJYsWIFL7zwAr/73e9ITEzkd7/7Hb169fKts2rVKm677TaCgoJabHvw4EF+/etfM2HCBBwOB7///e/57W9/y9y5cwkJCWHp0qUsWLAAgJkzZ1JSUsLPfvYzKioqGDp0KCtWrDjnvJ3I1c5isbBixQqWLVvG7NmziYqK4pFHHmHcuHFA008PsrKyePHFF1s9/h544AFeeOEFli5disfjYcqUKTz66KOd+fRE/M7k/eakV0ZGBmlpaZdVyNq1a7n99tv9WjGRq8GVfPZ13Eh3db7Pfnr6rotuM3v2uEveT3OuqbsjIiKGpqATERFDU9CJiIihKehERMTQFHQiImJoCjoRETE0BZ2IiBiagk5ERAzNL0Fns9lwu93+KErkquF2u6/ompA6bqQ7utLj5nL4JegSExM5evSoDlrpNtxuN0ePHvXdDudy6LiR7sYfx83l8Mu1LlNTU8nMzGTPnj00Njb6o0iRLs1ms5GYmEhqaupll6HjRrobfxw3l8MvQWe321vcjUBEWqfjRqRjaDKKiIgYmoJOREQMTUEnIiKGpqATERFDU9CJiIihKehERMTQFHQiImJoCjoRETE0BZ2IiBiagk5ERAxNQSciIoamoBMREUNT0ImIiKEp6ERExNAUdCIiYmh+uR9deY2T93cXUOO8vDslB9stLBiTRHiw3R/VERER8fFLj84Xct7L2NgLNU437+8u8EdVREREWvBL0PlCznQZG5vwhZ0RlZaWsn///s6uhohIt+W/c3SXE3L+2LaL8nqburelpaXs27evk2sjItJ9+eUcXUfwer1kZmaSnZ2N2Wxm6NCh7Ny5k9tuu43Q0FCqq6vZsmULRUVFBAUFMWbMGAYOHAhAZWUlmzdv5tSpU9jtdoYMGcKYMWOor6/ntddeY9SoUZw4cQKn00nfvn2ZNGkSZnPTd4DCwkK2b99OZWUl4eHhTJkyhejoaHJycti+fTtxcXHk5uZy22238f777xMZGcnJkyfp1asXHo+HY8eO4XK5WL16NTfeeCOhoaGd+TKKiHQ7nRZ0YYE2pg6J5f3dhXi8rZ/cy87O5uDBg1x//fVERESQlZXl6zV5vV4++OADevbsyXXXXcfp06dZt24d0dHRREZG8tlnnxEVFcW8efMoLy/nvffeIzo6mpiYGAACAgK45ZZbaGho4J133mHPnj2MHj2ayspKPvroI6ZNm0a/fv04ePAg69ev5/bbbwegtraWfv36MX36dKxWq++xG2+8kcDAQMxmM3Fxcezdu5dbbrmlnV5JERG5mE75eUFYoI0bxiZxorSmTSEHkJOTw9ChQ4mNjcVmszFixAjfsqKiIqqrq0lLS8NisRAbG0vv3r05evQoAFarlfr6empqaoiMjOSWW24hLi7Ot33//v0xmUw4HA6GDRtGTk4OAIcOHSImJobk5GRfL9Lj8VBUVARAcHAwycnJvpADGDBgAMHBwb4eoYiIdK4O79E1h9zevHL25Ja3ebuamhp69Ohx3mXV1dW43W5Wr17te8zj8WC3N/1cYebMmezevZt169ZhNpsZMmQII0eOpL6+/pyyQkJCqKur8+2zpKSEv/71r77lbreb2tpaLBZLm+suIiKdp0ODzhdyueXsyWt7yAEEBQVRVVV13mXBwcEEBARw1113YTK1nNni8XiorKwkLS2NiRMncubMGT788EMcDge9e/c+p6zKykqCgoJ8++zVqxdz5sw5Z73mXp+IiHRtfh1fSwwPZEzfyPMuu5KQA0hJSeHAgQOUlpZSX1/Pl19+6VuWkJCAw+EgIyMDt9tNQ0MDGRkZlJSUYDKZ+Pjjj9mzZw8ej4eAgAAsFovv/B7Avn37cDqdlJeX8/XXX5OcnAw0DUPm5+eTk5OD1+ulsrKSTZs2nbcneCE2mw2n04nT6WyxTxER6Rh+7dGV1zYyZXAsdouJjKOnfY83h9ye3HL2XkbIAQwcOJDKyko+/PBDzGazL4wAzGYz8+bNY9u2baxZswaAfv36ERkZiclk4vrrr2fbtm18+eWXWCwWUlJSGDhwIA0NDUDTZJa33noLl8tFcnIyw4cPByA8PJy5c+eSkZHBpk2bsNvtjBgxAofD0eZ69+zZk8DAQFavXs2SJUsIDw+/rOcvIiKXx69BV+t0sW53ATeMSQJMZBwtJSzIzsIxSXyVe+ayQw7AZDKRmprK+PHjATh9+jR79+71hU5oaCjXX3/9ebeNjo5m0aJFFyx7+PDhTJo06bzLEhMTWbx48TmP9+/fn/79+7d47HwzKwMCAliyZMkF9y0iIu3L7+foahpcvJdVwMKxSQTYzPSOCr7ikAPIz8/nwIEDTJs2DZPJxK5du4iPj8dms/mp5iIiYkTtMhml1tkUdgvGJPol5ADi4+M5fvw4b7zxBh6Ph/j4eGbNmuWH2oqIiJG126zLWqeLNzNy/Vae1Wpl8uTJTJ482W9lOhwO7r33Xr+VJyIiXY//Zl1eyYRCTUYUEZF24pegC7ZbfHchuGTf3PUg2K4fYIuIiP/5JegWjEn6V9hdKtO/brwqIiLib345RxcebOeOyf38UZSIiIhf6crDIiJiaAo6ERExNAWdiIgYmoJOREQMTUEnIiKGpqATERFDU9CJiIihKehERMTQFHQiImJoCjoRETE0BZ2IiBiagk5ERAzNLxd1djqdZGZmUlhYSGNjoz+KFOnSbDYbiYmJpKamYrfbO7s6InIRfgm6zMxMoqOjSUtLw2LRfeXE+NxuN0ePHiUzM5NJkyZ1dnVE5CL8MnRZWFhIcnKyQk66DYvFQnJyMoWFhZ1dFRFphV+CrrGxUSEn3Y7FYtFQvchVQJNRRETE0BR0IiJiaAo6ERExNAWdiIgYmoJOREQMTUEnIiKGpqATERFDU9D50fLly/nlL3/Z2dUQEZGztHvQ5eXlkZqa6vs3ceJElixZwl//+le8Xu95t8nOzmbevHnU19df0b7XrFlDTk7OFZUhIiJXN79c67It/vnPf5KQkEBjYyP79+/nZz/7GXa7ndtvv73Fel6vl379+vHMM8/gcDiuaJ9r1qwhPj6e/v37X1E5cvVrbGzE6XQSHBzc6rpVVVWEhoZ2QK1EpCN02NCl2WzGYrHgcDgYO3Yss2bNIisri/LyclJTU1m2bBkzZ85kw4YNZGdnc++99wLwzDPP8OSTT/rKKSgoYMKECZw+fZqKigp+/vOfM3v2bGbPns1vfvMb3G43OTk5zJkzh9LSUpYtW8by5ctZvnw5Tz31lK+c//qv/+Kxxx7z/f3888/7ll+oXGgK4pUrV3L99dczdepUHnzwwRbXO6yqquKJJ55g+vTpLF68mC+++MK3rLi4mIcffpgpU6awZMkS1q1b1z4vtpzjgw8+4I9//COnTp266Hrp6em8+OKLVFRUdFDNRKS9dfg5OpfLxcGDB9myZQtDhw71PR4UFMS7777L7NmzW6y/YMECPv/8c5xOJ9DUEF1zzTVERUXxzDPP4PV6ef/991m9ejWff/45b7/9Nv3792fDhg1ER0fzi1/8gp/85CdMmTLFFzoej4ctW7awc+dO3/Dozp07mTx5MsAFy4WmBvOtt97ij3/8Ixs3bqR///789Kc/9dV3165d3Hjjjaxfv56pU6fy7LPP+vb54IMP0rNnTzZu3MjTTz/Ns88+y6FDh9rplZazpaWl4Xa7Wb16NSUlJedd5+OPPyYjI4MRI0bQo0ePDq6hiLSXDhu6XLRoUdMOrVZiY2OZO3cud999N1VVVQDccssthISEnLPd6NGjCQ8PZ8eOHUydOpWNGzeydOlSAB544AEiIyMJCAggPj6esWPHcuzYsfPuf9y4cVRXV5OTk0N5eTl9+vTBbrezY8cO33YTJ05stdx33nmH22+/nd69ewNw77338tZbb/l6fNOnTyctLQ2AGTNmsHbtWjweD7t27aKgoICHHnoIu93OiBEjmDx5Munp6QwcONBfL7NcQHx8PHfccQdr1qxhzZo13HHHHcTGxvqWb9iwgZ07dzJy5EhuuOEGTCZTJ9ZWRPypw4Lu3XffJTEx8bK2XbBgAR9//DEpKSkcP36c6dOn+5b95je/4ciRI7hcLkpLS1mwYMF5y7Db7UyYMIEvvviCgoICZsyYgcPh4LPPPsPj8TBy5MgWQXuhcouLi0lKSvKtFxwczH/8x3+cd58WiwWPx4PX6+XkyZO4XC6uv/5633K3233ecJf2ER8fz9KlS/nb3/7G6tWrueOOO4iLi2P9+vVkZmYq5EQMqsOC7krMnz+fO+64g379+jFz5kzfJJUf/vCHfOtb3+JXv/oVZrO51an9kydPZvPmzRw5coSXX34Zh8PByy+/jN1u9w1btlZufHw8RUVFvr+dTidffvklqampF913bGwsISEhpKenYzbrVx2dJSEhwRd2a9asoV+/fuzfv59Ro0axYMEChZyIAV0VLW7Pnj1JTk7m1VdfZf78+UDTpJAzZ87g8Xiora0lKyuLrKwsXC6Xb7vAwECKi4t99wybPHkyW7duJTQ0lMTERCIjI+nbty/r1q1jypQpbSp34cKFrF27lvz8fFwuF3/5y1/4/e9/32p4NQ/BvvjiizQ0NFBRUcGLL77Inj172uMlk4toDjuv16uQE+kGroqgA7jhhhvo0aOHr+dkMpl4+umneffdd5k/fz6vvfYa06ZNa/Hbu29/+9u88sorPPPMMwDExMSQkpLCzJkzfevMnDmTmJgY+vbt26Zyb7jhBpYuXcoPfvADZs2axb59+3j++edbrb/dbucPf/gDubm5zJs3j8WLF1NdXc2AAQP89RLJJUhISODOO+9k9uzZCjkRgzN5v/nVdkZGhm8SxaVau3btOb+HE+kO9NkX8Y/09F0XXT579rhLLrM5166aHp2IiMjlUNCJiIihKehERMTQFHQiImJoCjoRETE0BZ2IiBiagk5ERAxNQSciIobml6Cz2Wy+q/eLdBdutxubzdbZ1RCRVvgl6BITEzl69KjCTroNt9vN0aNHL/uOHCLScfxy94LU1FQyMzPZs2eP7wLKIkZms9lITExs9a4VItI2JhM0XZDy/MuuhF+Czm63M2nSJH8UJSIi3VBUVBilpRUXXHYlNBlFREQ63dChfYiODmvRezOZIDo6jKFD+1xR2VfFjVdFRMTY7HYbo0entEvZ6tGJiIihKehERMTQFHQiImJoCjoRETE0BZ2IiBiagk5ERAxNQSciIoamoBMREUNT0ImIiKEp6ERExNAUdCIiYmh+udal0+kkMzOTwsJC3aZHRETO6+zbW9nt9g7br1+CLjMzk+joaNLS0rBYLP4oUkREDKb5hsWZmZkdems3vwxdFhYWkpycrJATEZELslgsJCcnU1hY2KH79UvQNTY2KuRERKRVFoulw09xaTKKiIgYmoJOREQMTUEnIiKGpqATmsMdlgAAIABJREFUERFDU9CJiIihKehERMTQ2j3oNm7cyPz589t7N52utec5adIkdu3adUX7WL58Ob/85S+vqIzO0trr8+CDD7Jy5coOrJGIdBddtkf35ptv8tBDD13Wtnl5eTz22GNMnz6dKVOmcNddd/HJJ5/4uYZdzyeffMLWrVs7tQ5PPvkkr776KgB33HHHZb3ulZWVrFy5kvr6en9XT0S6Ib9cAqw9zJo1i1GjRl3ydvX19Xz/+98nLS2N119/nbCwMLZu3cqTTz5JSEgIEyZMaIfadg2ffvopoaGhXHvttZ1Wh+9+97sEBwcD8Pjjj9OnT59LLqOiooKVK1dy66234nA4/F1FEWmjmpoaAgICsFovHhVutxun00lgYGAH1ezSdGiPzuVy8fDDD3P//ffjdDpxOp0sX76cmTNnMm/ePFasWIHb7Qbg3Xff5bnnngOahr0WLVrEf//3f3Pbbbdx/fXXs2bNmvPu45133sFsNvPzn/+c+Ph4AgMDmT17NsuWLWux3ptvvsnChQuZOXMmP/rRjzhz5oxv2Wuvvfb/t3fncVGW+//HXzPsiLgBLqW5t30VTBIXBEREWdRAScXsaKYtrscszWwxxZLjdvx1NE2tLKWT9rVUTA06xxYzRTM6+hVTFBQEAQFZlGFmrt8f5BwRZB1Fp8/z8ahHM/d9X/fnvu5p3lz3XDM3wcHB+Pj48Nxzz3Hu3DnTsm+//ZYRI0bQr18/IiMjOXTokGmZ0Whk7dq1DBkyhICAgFvWWNVxK6VYt24dgwcPxsfHh2nTppX7uZyCggLmzZuHn58fYWFhpv2Hh4cTHx/Pjh07GDt2bKX7/eabbwgLC8Pf35+33nqLcePGsXPnzipr+vbbbwkNDTW1sXv3bgYOHIjRaATgu+++My03Go3s3buX8ePH4+vry7p167h69Wqt+mf79u1MmDABgCeffJI9e/ZUeixCiNtvw4YNfPrpp5SUlNxyndLSUrZs2cKGDRvuYGW1c8eCzmg0Mm/ePAoKCli2bBm2trb87W9/IykpiW3btvHJJ59w4MABtm7dWun2Fy9e5H/+53/47LPP+Nvf/sbf//53Ll26VGG9U6dO0b179wo/Sebn52caze3Zs4d169axbNkydu/ejaOjI4sXLwbg8OHDrF+/nvfff5/4+Hjat2/Pm2++CZRdEp0/fz4zZszg+++/Z+LEicyePZucnBwAsrOzcXBw4KuvvmLevHm3rLGq4969ezfbtm3jgw8+ID4+no4dOzJnzhzTtkeOHGH48OHs3bsXHx8f3n33XQD+93//l4EDBzJs2LBKAyQ1NZX58+czefJkdu/eTb9+/Th16lS1NfXu3ZucnBxSU1OBslHj1atX+eWXX4CyH/T29vYGYNu2bcTFxbFp0yb27NmD0WhkxYoVpn3UpH/CwsL48MMPAfj8888ZMmRIhWMRQtwZvr6+pKWlsWXLlkrDTqfTERMTQ2pqaoNeSarOHQu6RYsWceHCBVatWoWDgwM6nY5du3bxwgsv0Lx5c1xcXIiIiOCbb76pdHtXV1cCAwMB6N69O1qtlgsXLlRY7/LlyzRp0sT0eNy4cXh6euLp6ckrr7wCwBdffMHIkSPp2rUr9vb2TJgwgf3791NaWoqNjQ1Go5GUlBSUUsyaNYslS5YAZSH02GOP4ePjg1arZeDAgcyYMcP0WZKbmxtPP/00dnZ2DBgwoNIaqzvur776ijFjxtCuXTtsbGyYPHkyAQEBphGfn58fXl5epn1cuHDBNLqqSlxcHO7u7gQFBWFvb8+gQYO4//77q63J0dGRHj168PPPP1NSUsLRo0cZO3Ys//73v4GyPwyuB52fnx9r1qzBxcUFBwcHBgwYwNmzZ0011KR/hBB3D3d3d0JCQkhPT68QdtdD7vz584SEhNCjR48GrLRqd+QzukuXLhEXF4eLiwtabVm25uTkUFpayksvvYRGowHKRn0uLi41alOr1aLX6ys87+joaBphAXzyyScALF68mLy8PAAyMzP55JNPiImJMa1nbW1NdnY2Hh4eLFq0iJiYGN58800ee+wxXnzxRdN2bdq0Kbe/ESNGAHDy5Mlyz2s0mkprrO64MzIyuO+++0zrN2rUiL/85S+V9oGVlRVGoxGl1K26ySQrK8sUbDerriZvb28OHTqEq6sr7u7uhIaGMm3aNCZOnMj58+d5/PHHAXBycmLt2rUcOnQInU5HYWFhuT86atI/Qoi7i4eHBwCxsbFs3ryZyMhINBoNMTExpKWlERISYlrnbnVHgq5Ro0Zs27aNefPmsWjRIhYvXkyLFi3QarWsW7eOBx980Gz76t69Oxs2bODatWu3nMjg6urK6NGjiYyMrLAsPT2dLl26sHr1anQ6HevXr2fGjBns3LmTli1bcvz48XLrJyYm0q5duxrXV91xt2rViosXL5oe63Q6jh07hqenZ433URlXV1cOHz5cp5q8vb354IMPsLe3x9/fnwceeAB7e3u2bNmCp6cndnZ2AKxYsYL8/Hw2bNiAo6MjX375JVu2bKlX3UKIhndz2Gm1WtLT0++JkIM7dOmyUaNGuLq6snjxYhISEti2bRu2tramSQ85OTmUlJTw1VdfsW3btnrta+jQoTRu3Ji5c+dy7tw5SktLOX36NL/99hvOzs4ADB8+nE8//ZSkpCSMRiNHjhwhOjoagAMHDjBlyhTS0tKwtramadOmpsuGQUFBJCQk8MMPP2A0Gjlw4ADTpk2r8oPam1V33EOHDiUmJoYLFy6g1+v56KOPWLZsmWkkXBUHBweysrIqrScgIIBjx46xb98+ioqKiI2N5fz58zWqqV27djRr1oz4+Hh8fHyAslmxn376Kf379zft4/LlyxiNRnQ6HSkpKezdu9fUd7Xh6OgIlH0uKyM+Ie4OHh4eBAcHk5GRQXp6OqGhofdEyMEdnnXp6urKokWLWLlyJSdPnmTOnDl07NiRp556ikGDBhEXF0fv3r3rtQ9HR0fWr19P8+bNmTRpEj4+PsycORMvLy9mz54NwLBhwxg/fjyvvvoqPj4+LFu2zPQGHh4eTmBgIJMmTcLX15e9e/eaJny0a9eOpUuXsnr1avz8/PjHP/7B0qVLadmyZa1qrOq4Q0NDiYyMZMqUKQwcOJDjx4+Xm9BRldDQUH777TciIiIqLGvXrh0LFy5kzZo1hIaGcvjwYdzc3GpUE5SN6jw8PEx/LPj7+6PT6UyfzwFMnz6dy5cvExoayvz58/H09ESr1dY67Fq0aEFQUBATJ04kNja2VtsKIW6fHj16MGLECEaOHFmnr381FI364wOen3/+GS8vrzo1EhMTw5gxY8xamDA/o9FoGhkqpRg4cCBvv/12ubASQojb7U5lxvVcu2t/GUWYV25uLs888wwpKSkYDAY2bdoEQLdu3Rq4MiGEuL3u2l9GEebVrFkzAgMDmTlzJjk5OXTs2JGVK1feclakEEJYCgm6P5HIyMhKZ5oKIYQlk0uXQgghLJoEnRBCCIsmQSeEEMKiSdAJIYSwaBJ0QgghLJpZgs7GxqZOP/UkhBDiz8VgMGBjY3NH92mWoGvTpg1nzpyRsBNCCHFLBoOBM2fOVLgLzO1mlu/ReXp6kpCQQGJiIqWlpeZoUgghhIWxsbGhTZs29b4bS22ZJehsbW3p27evOZoSQgghzEomowghhLBoEnRCCCEsmgSdEEIIiyZBJ4QQwqJJ0AkhhLBoEnRCCCEsmgSdEEIIiyZBJ4QQwqJJ0AkhhLBoEnRCCCEsmgSdEEIIiyZBJ4QQwqJJ0AkhhLBoEnRCCCEsmllu06PT6UhISCA9Pb3W96O78f5Etra25ihHCCGEMDFL0CUkJODi4oKXlxdWVla12vb6HWcTEhKqvKdddHQ0BQUFLFy4sL7lCguVl5dHQEAA27dvp23btg1dTr1Z2vEI0VDMcukyPT2dTp061TrkAKysrOjUqRPp6enmKKVSJ0+eZOvWrZUuMxqNhIaG8ssvv9Sp7V27dvHkk0/Sp08fgoODWbVqFTqdrj7l1kl9j+O6K1eusG7dOq5duwZAUlISQUFBpscN4dVXX+Xjjz++rfvYunUr06dPNz3evHkzycnJt3Wft9PN5+3bb7/lxx9/rNG2N78GhLjXmSXoSktL6xRy11lZWdX6kmdtVBV0Wq2WhQsX8vDDD9e63a1bt7J8+XKeffZZdu7cyeLFizlw4ACvv/56pesbjcZa76Om6nMcN8rPzy/3JtehQweioqKwt7c3R5l18uyzzxIUFHRb9zFw4ECmTp1qerx582bOnj17W/dZlfq+Vm4+b//6179qHHQ3vwaEuNfdU5NRCgoKmDdvHn5+foSFhXHo0CHTslOnTjF58mR8fX0ZOnQo27ZtA2DBggWsWLGClJQUAgMDKx05TpkyhePHjwPw5JNPsnTpUiZNmkRwcDATJ04kIyOjwjZGo5G1a9cybdo0AgMDcXFxwcPDg8WLF/Ptt9/y+++/m9qbN28eoaGhvPvuuwB88803hIWF4e/vz1tvvcW4cePYuXMnUPYm89prrxEQEEBAQADvvPMOBoMBKLt8O2vWLF5++WXCwsIq9MGNx5GamsoLL7yAj48PwcHBbNy4sdq+2r59OxMmTDDVvWfPHpKSkpg8ebJp20uXLjFr1iz8/f0ZOnQo69atM9UXHx/PsGHDWL58OaNHj2bw4MFs3rzZtG1VNWVkZDBjxgz69+9PeHg4u3btMi1buXIlX375ZY36AMre1EeMGIGPjw+vv/66qT6dTkd0dDT+/v4EBQWxcuVK07IdO3awdOlSkpOTCQwMJDs7m0WLFhEdHV3puV+9ejWBgYEEBwfz4Ycf8vjjj5teW1Udy636/vqxTZ48maeffppRo0aZnv/qq68YNmwYAwcOZPHixeWuGGzdupWhQ4fi7+/PSy+9RG5uLkC58xYeHk58fDw7duxg7NixVfZFZa8BIe556g8HDx5UdbVly5Y6b1vTNpYsWaK8vb3VwYMH1bVr19Ty5ctVWFiYUkopvV6vAgMDVUxMjDIYDOrgwYPK09NTnTlzRiml1Pbt21VERMQt2+7Tp49KSEhQSikVERGhxo8fr4qKipTBYFDTp09XUVFRFbY5e/as6tmzp0pPT6+wLCgoSH3xxRem9iZNmqQyMzNVaWmpSklJUb169VK7d+9WV69eVfv27VO9evVSO3bsUEop9fLLL6tXX31VXbt2TV28eFENHjxYbd261dQH/v7+Kjk5WSml1MaNG019cPNxPPvss2rJkiVKr9er33//Xfn6+qoff/yx2r5KTU1VPXv2VLm5uUoppRITE1XPnj2VUkoZDAY1evRotWTJElVUVKRSU1PViBEj1Lp165RSSsXFxSlPT0+1d+9epZRSv/76q3r88cdVZmZmlTUZDAY1cuRIFR0drUpKSlRiYqLq16+fSkpKUkopNXXqVLV27dpq+yA3N1f17NlTzZkzR+Xn56uUlBQ1YMAAtWfPHqWUUosWLVLPPPOMysnJUVlZWSoiIkLFxMQopZT68MMP1aRJk8qdw7i4uEpfL9u3b1eDBg1S//nPf1RRUZFauXKl6tmzp0pLS6vyWKrr+yVLlqhBgwapEydOqJKSEtPxLFiwQBUUFKjk5GQ1bNgwtX79eqWUUl9//bUKCAhQSUlJ6urVq2r+/Plq9uzZFc6bUkrNnz9fLVmyxPS4qr64+TUgxL3qeq7dUyM6Pz8/vLy8sLOzY8CAAVy4cAGj0YhSitWrVxMREYFWq8XLy4tmzZpx7ty5Ou1n+PDhODo6otVqcXd3JyUlpcI6hYWFADRv3rzCsubNm1NQUGB6HBwcjJubG9bW1sTFxeHu7k5QUBD29vYMGjSI+++/37Tu1KlTmTdvHnZ2drRq1YrHHnus3CW0vn370qFDBwB69uxp6oOb2djYkJubS2ZmJp07d2bbtm24u7vXq69+/fVX0tLSmDlzJo6OjrRt25bnn3++3GVhV1dXAgMDAejevTtarZYLFy5UWdORI0dIS0tj+vTp2Nra0q1bN7y9vYmLi6u0jur6YMqUKTg7O9OuXTseeughUlJS0Ol07Nq1ixdeeIHmzZvj4uJCREQE33zzTbXHfbN9+/YxcuRIHn30URwdHXnqqadMy6o6lpr0vZeXFw8//HC5GcgTJkzAycmJDh06MGbMGOLj4wH44osvGDlyJF27dsXe3p4JEyawf//+aj8GMGdfCHEvMMusy4ZgZWVlCjlra2uysrJYvnw5ly5dwmg0kp+fj1Kq3vvRarXo9foKzzdq1AiAy5cv07p163LLLl++bFp+s6ysrHLBVpl33nmH06dPo9fryc7OJiQkpNL1NBqNqQ9uFhUVxYcffsjzzz+PtbU1TzzxBOPGjUOj0dS5ry5evEjLli3LvQk/8MADXL58mZKSkkq3ubH/blVTZmYmer2ewYMHm7YzGAw4OTlVW1NVfQBlrxO9Xk9OTg6lpaW89NJLaDQaoOwSpIuLS7X7uFl2dvYtz2FVx2KO12mbNm3Izs427euTTz4hJibGtNza2tq0/FbM2RdC3Avu2aC7UUZGBn/96195//33cXd3B8pGUbfTAw88QJMmTTh48CBhYWGm51NSUsjKyqJbt26Vbufq6srhw4dv2e7MmTN54oknWLhwIVqt9pYTW6qi1+u5cOEC06ZNY9asWSQnJzN16lSaNWvG448/Xue+atWqFZmZmeh0OlPYnT9/nubNm2NnZ1fnmlq2bImTkxNxcXFotbfnIkOLFi3QarWsW7eOBx98sF5tubq63nKWsJub2y2PxRyv04sXL5oCydXVldGjRxMZGVlhvarCzpx9IcS94J66dHkrV65cwWAwoNfrKSgoYNeuXeTk5JgmGjg6OnLlyhUKCwvNNvNRq9Xy/PPP8//+3/8jLi6OvLw8jh8/zmuvvYaPj88t30ACAgI4duwY+/bto6ioiNjYWM6fPw+AUorc3FyMRiPFxcUcPXqUo0ePVjqirK62l19+mc2bN6PX62nSpAn29vYYjcYa9RWUvaHevF8PDw9at27N3//+d4qLi0lLS2Pt2rWMHDmyXjV5eHjQtGlTVq1aRUlJCfn5+axatYrExMRaHXdVbG1tTZMucnJyKCkp4auvvio3GeRGDg4OZGRkVHoZcPDgwWzbto2TJ0+Sl5fHRx99ZFpW1bFU1/e3sn79egoLCzl79ixbtmwxjRaHDx/Op59+SlJSEkajkSNHjlQ6eeb68WRlZVFSUlJtX1T1GhDiXmQRQde1a1eee+455s6dS3h4OCdOnMDLy4u8vDwAevfuTfPmzRkyZAipqalm229ERASzZs1i3bp1DBkyhNmzZ+Pp6ck777xzy23atWvHwoULWbNmDaGhoRw+fBg3Nzeg7DLcggUL2LFjB8HBwWzatAlfX99aT/PWarWsXLmSH374AX9/f8aMGYO3tzdDhw6ttq9atGhBUFAQEydOJDY2tkK7q1at4uLFi4SGhppmD06cOLFeNdna2vLee++RmppKUFAQYWFhFBYW0qVLl1odd3XmzJlDx44deeqppxg0aBBxcXH07t270nVHjRrF2rVriYqKqrAsNDSUYcOGMX36dMaMGVPuqzVVHUt1fX8rnTt3JjIykokTJ9K3b1/TCG7YsGGMHz+eV199FR8fH5YtW4aPj0+lbYSGhvLbb78RERFRbV9U9RoQ4l6kUX98QPDzzz/j5eVVp0ZiYmIYM2ZMvQoxRxv3CqPRaLqspZRi4MCBvP3223h7ezdwZaKmbjyHp06dYuzYsezfv980GhJCNLzruWYRI7p7SW5uLs888wwpKSkYDAY2bdoEcMvP9MTd56effmLu3LlcuXKF4uJiPvjgA3r06CEhJ8RdyiImo9xLmjVrRmBgIDNnziQnJ4eOHTuycuVKmjRp0tCliRry8PBg//79REREUFpaSs+ePVm0aFFDlyWEuAUJugYQGRlZ6Uw5cW9wcHBg7ty5zJ07t6FLEULUgFkuXdrY2FQ7c6wqBoMBGxsbc5QihBBClGOWoGvTpg1nzpypU9hdv01PmzZtzFGKEEIIUY5ZLl16enqSkJBAYmJivW68KoQQQpibWYLO1ta2ypumCiGEEA1Fvl4ghBDCoknQCSGEsGgSdEIIISyaBJ0QQgiLJkEnhBDCoknQCSGEsGgSdEIIISyaBJ0QQgiLJkEnhBDCoknQCSGEsGgSdEIIISyaBJ0QQgiLJkEnhBDCoknQCSGEsGhmuU2PTqcjISGB9PT0et2PztbW1hzlCCGEECZmCbqEhARcXFzw8vLCysqqVttev8N4QkJClfe0i46OpqCggIULF9a33D+dxYsXo9PpeOutt/60/fjkk08SGRnJE0880dClNIg/63kXAsx06TI9PZ1OnTrVOuQArKys6NSpE+np6eYopVInT55k69atlS4zGo2Ehobyyy+/1Kntzz77jPDwcPr06UNwcDALFy4kLy+vPuXelW7up6r6tDaSkpIICgri2rVr9a6pPjZv3kxycnK927E09T3v0q/ibmCWoCstLa1TyF1nZWVV60uetVHV/5xarZaFCxfy8MMP17rdzz//nI0bNzJ79my+/fZb1q9fT05ODi+//HJ9S77r3NxP5gq6Dh06EBUVhb29fa22MxqN9Tp3N9u8eTNnz56tdzt3G6VUvbav73m31H4V95Z7ajJKQUEB8+bNw8/Pj7CwMA4dOmRadurUKSZPnoyvry9Dhw5l27ZtACxYsIAVK1aQkpJCYGBgpSPHKVOmcPz4caDsEtfSpUuZNGkSwcHBTJw4kYyMjArbKKVYu3YtL774In379sXBwYE2bdrwxhtv4OPjYxqhZGRkMGPGDPr37094eDi7du0ytZGamsoLL7yAj48PwcHBbNy40bRsxIgR7N692/R4w4YNvPjii0DZZahZs2bx8ssvExYWVqEvzpw5w4QJE/Dx8eG5556rcMxV9WNV9V7vp1v16aZNmwgODjbt99y5c6Ztjxw5wtixY+nfvz9PP/00//d//weUjegmT54MQF5eHp6enmzcuJFx48YRGBjI66+/jsFgMB335MmTefrppxk1alSFc1dYWMhrr72Gr68vgwYNYvHixZSUlJhqSE5OZuLEifTv3990XpOTkwkMDCQ7O5tFixYRHR1d7/4/ffo048ePN/XD66+/zltvvVXhNQTwzTffEBYWhr+/P2+99Rbjxo1j586dpuVbt25l6NCh+Pv789JLL5GbmwuUBf37779PcHAwvr6+TJ8+nUuXLgEQHx/PkCFDmDNnDv369SM7OxuAnJwcZsyYgY+PD6NHj+bo0aNmOe+Vndtb9asQDUL94eDBg6qutmzZUudta9rGkiVLlLe3tzp48KC6du2aWr58uQoLC1NKKaXX61VgYKCKiYlRBoNBHTx4UHl6eqozZ84opZTavn27ioiIuGXbffr0UQkJCUoppSIiItT48eNVUVGRMhgMavr06SoqKqrCNpmZmapnz54qJSXllu0aDAY1cuRIFR0drUpKSlRiYqLq16+fSkpKUkop9eyzz6olS5YovV6vfv/9d+Xr66t+/PFHpZRS4eHhKjY21tTW+vXr1QsvvGDqC39/f5WcnKyUUmrjxo2mvigtLVVDhw5V0dHRKj8/XyUmJqohQ4aoN998s9p+rK7eG/vp5j49dOiQ6t+/v0pJSVE6nU4tXrxYPf3000oppVJTU1W/fv3U3r17lU6nU//85z/V4MGDTfvo2bOnUkqp3Nxc1bNnTxUdHa0MBoPKz89XgYGBas+ePabaBw0apE6cOKFKSkoq1LRgwQL1/PPPqytXrqi8vDw1adIktWLFCtN5HTFihEpNTVX5+fnq2WefLXdeg4KCVFxcnOmxOfr/ypUrKikpqVz/3yglJUX16tVL7d69W129elXt27dP9erVS+3YsUMppdTXX3+tAgICVFJSkrp69aqaP3++mj17tlJKqX/+859qxIgRKisrSxUXF6spU6aouXPnKqWUiouLU56enmrPnj2quLhYGY1GtWTJEuXn56eOHTumioqK1Pr169WAAQNMr/O6nveqzm1l/SrEnXQ91+6pEZ2fnx9eXl7Y2dkxYMAALly4gNFoRCnF6tWriYiIQKvV4uXlRbNmzcqNKGpj+PDhODo6otVqcXd3JyUlpcI6OTk5ADg7OwPw/fff4+npafrnzJkzHDlyhLS0NKZPn46trS3dunXD29ubuLg4oGzGaW5uLpmZmXTu3Jlt27bh7u5eoxr79u1Lhw4dAOjZs6epLxITE8nJyWH69Ok4OzvTrVs3+vfvX6N+rK7eqtjY2GA0GklJSUEpxaxZs1iyZAkAsbGxPPLIIwQGBmJjY0NERARGo5Fjx45V2tbo0aPRarU4OzvTuXPncv3v5eXFww8/XGGGrl6vJzY2lhdeeIHGjRvTpEkT5syZQ5cuXUzrPPXUU7Rt2xZnZ2d69+5d6XmtqVv1//Hjx03937hxY7p27Vqh/6+Li4vD3d2doKAg7O3tGTRoEPfff79p+RdffMHIkSPp2rUr9vb2TJgwgf3791NaWoqfnx9r1qzBxcUFBwcHBgwYUO4SoaurK4MHD8bBwQGNRgOAt7c37u7uODo6MmHCBLRaLYcOHarXea/tuRWiIZhl1mVDsLKyMoWctbU1WVlZLF++nEuXLmE0GsnPz6/35xNQ9hmFXq+v8HyjRo0AuHz5Mk2bNqV///4kJCSQk5PD4MGDAcjMzESv15seQ9ksUycnJwCioqL48MMPef7557G2tuaJJ55g3Lhxta5Ro9GY+iIrKwsXFxfs7OxqtO2N/VhdvVXx8PBg0aJFxMTE8Oabb/LYY4+ZLvVlZmby22+/4efnZ1q/tLSU7Oxs2rZtW2W7t+r/m2VnZ2MwGLjvvvtMz3Xq1IlOnTpVur6VlVWN2q2JuvZ/VlZWuWC7WWZmJp988gkxMTGm56zzUxXVAAAVYUlEQVStrcnOzqZJkyasXbuWQ4cOodPpKCwspEmTJjWuWavV0qpVK7KzsyksLKzzea/q3Apxt7hng+5GGRkZ/PWvf+X99983jYiCg4Nv6z7vv/9+mjVrxk8//UTHjh0rXcfNzQ0nJyfi4uLQassPnvV6PRcuXGDatGnMmjWL5ORkpk6dSrNmzRg6dCg2Njamz6Zqw9XVlZycHHQ6Xa2/l1hVvdVJT0+nS5curF69Gp1Ox/r165kxYwY7d+7E1dWVPn36sHz58grb/fbbb7Xaz620aNECKysrLl68SIsWLYCyUXdGRgaPPvpordura/+7ubnVuP9dXV05fPhwlctHjx5NZGRkhWVRUVHk5+ezYcMGHB0d+fLLL9myZUuN6zQajWRmZuLq6oqDg0Odz3tV51aIu8U9denyVq5cuYLBYECv11NQUMCuXbvIyckxvVE5Ojpy5coVCgsLMRqNZtmnVqtlypQprF27lt27d1NYWEhhYSFff/01VlZWODo64uHhQdOmTVm1ahUlJSXk5+ezatUqEhMT0Wq1vPzyy2zevBm9Xk+TJk2wt7c31de+fXu+++47ioqKSEpKKjc5oCrdu3enRYsWrF69moKCAhITE/nuu+9qtG1V9d7s5j49cOAAU6ZMIS0tDWtra5o2bWrq/+DgYA4dOkRcXBxGo5HU1FTefvtts34Nw8bGhqCgINasWUNhYSFXrlxh4cKFxMbG1mh7BwcHMjIyTLN/69r/jz76aIX+379/f6XrBgQEcOzYMfbt20dRURGxsbGcP3/etHz48OF8+umnJCUlmS4tX5/UcfnyZYxGIzqdjpSUFPbu3VttMH///ff88ssvFBcXs3HjRpRSPP744/U679Wd25v7VYiGYBFB17VrV5577jnmzp1LeHg4J06cwMvLy/Q/W+/evWnevDlDhgwhNTXVbPt94okneOONN9iyZQuDBg0iJCSE7777jn/84x+0bt0aW1tb3nvvPVJTUwkKCiIsLIzCwkK6dOmCVqtl5cqV/PDDD/j7+zNmzBi8vb0ZOnQoAC+++CJZWVkMHjyYhQsX8sgjj9SoJmtra1asWMGvv/5KSEgI7733Hh4eHjXatqp6b3Zzn4aHhxMYGMikSZPw9fVl7969vPvuu0BZaKxYsYJNmzbh5+fHiy++SOfOnWnatGkNe7pmXnnlFVq2bEl4eDjh4eG0atWKGTNm1GjbUaNGsXbtWqKiooC697+VlRXLly/n2LFjhISE8I9//KPS/gNo164dCxcuZM2aNYSGhnL48GHc3NxMy4cNG8b48eN59dVX8fHxYdmyZfj4+AAwffp0Ll++TGhoKPPnz8fT0xOtVltl2PXp04ePP/6YIUOGEB8fz/Lly3F0dKzXea/u3N7cr0I0BI3644Osn3/+GS8vrzo1EhMTw5gxY+pViDnaEOJucP07fte99NJLtGvXrtLQvXFdpRQDBw7k7bffxtvb+47VK4Slup5rFjGiE+JuMnXqVH788UeUUhw+fJiffvqJfv36VVgvNzeXZ555hpSUFAwGA5s2bQKgW7dud7pkISyaRUxGEeJuMm7cONasWcPcuXNxdXVl7ty5eHp6VlivWbNmBAYGMnPmTHJycujYsSMrV66s1exJIUT1JOiEMLM+ffrQp0+fGq0bGRlZ6axKIYT5mOXSZV2nYl9nMBiwsbExRylCCCFEOWYJujZt2nDmzJk6hd312/S0adPGHKUIIYQQ5Zjl0qWnpycJCQkkJibW68arQgghhLmZJehsbW2rvGmqEEII0VDk6wVCCCEsmgSdEEIIiyZBJ4QQwqJJ0AkhhLBoEnRCCCEsmgSdEEIIiyZBJ4QQwqJJ0AkhhLBoEnRCCCEsmgSdEEIIiyZBJ4QQwqJJ0AkhhLBoZvlRZ51OR0JCAunp6bW+e4EQQog/hxvvVmNra3vH9muWoEtISMDFxQUvLy+srKzM0aQQQggLc/3+owkJCXf0jjdmuXSZnp5Op06dJOSEEELckpWVFZ06dSI9Pf2O7tcsQVdaWiohJ4QQolpWVlZ3/CMumYwihBDCoknQCSGEsGgSdEIIISyaBJ0QQgiLJkEnhBDCoknQCSGEsGgSdEIIISyaBJ0ZRUdH8/rrrzd0GUIIIW5w24Pu/PnzeHp6mv7p06cP4eHhfPzxxyilKt0mKSmJoKAgrl27Vq99b968meTk5Hq1IYQQf1ZFRUXo9fpq1zMYDFy9evUOVFQ3Zvmty5r48ssvad26NaWlpZw4cYK5c+dia2vLmDFjyq2nlKJDhw5ERUVhb29fr31u3ryZVq1a0bFjx3q1I4QQf0YbNmzA2dmZMWPGYGdnV+k6paWlfPbZZ+Tn5zN16tQ7XGHN3LFLl1qtFisrK+zt7XnssccYOHAgR48eJS8vD09PTxYtWoS/vz/79u0jKSmJyZMnAxAVFcUbb7xhaictLY1evXqRk5NDfn4+r732GgEBAQQEBPDOO+9gMBhITk4mMDCQ7OxsFi1aRHR0NNHR0bz55pumdt5++21mz55terxixQrT8lu1C2VBvG7dOgYPHoyPjw/Tpk0r97ttBQUFzJs3Dz8/P8LCwjh06JBpWUZGBjNmzKB///6Eh4eza9eu29PZQghhBr6+vqSlpbFlyxZKSkoqLNfpdMTExJCamkq/fv0aoMKaueOf0en1ek6ePMkPP/zAI488Ynre0dGRHTt2EBAQUG79kJAQ9u/fj06nAyAuLo7evXvTokULoqKiUEoRGxvLp59+yv79+9m+fTsdO3Zk3759uLi4MH/+fF555RX69+9vCh2j0cgPP/zA4cOHTZdHDx8+jLe3N8At2wXYvXs327Zt44MPPiA+Pp6OHTsyZ84cU71Hjhxh+PDh7N27Fx8fH959913TPqdNm8b9999PfHw8CxYs4N133+XUqVO3qaeFEKJ+3N3dCQkJIT09vULYXQ+58+fPExISQo8ePRqw0qrdsUuXw4YNK9uhtTVubm4MGTKEp59+moKCAgAiIiJwcnKqsJ2HhwdNmzbl4MGD+Pj4EB8fT2RkJABTp06lefPm2NnZ0apVKx577DHOnj1b6f579uxJYWEhycnJ5OXl8cADD2Bra8vBgwdN2/Xp06fadr/66ivGjBlDu3btAJg8eTLbtm0zjfj8/Pzw8vICYMCAAcTExGA0Gjly5AhpaWlMnz4dW1tbunXrhre3N3FxcXTt2tVc3SyEEGbl4eEBQGxsLJs3byYyMhKNRkNMTAxpaWmEhISY1rlb3bGg27FjB23atKnTtiEhIXzzzTd07tyZc+fO4efnZ1r2zjvvcPr0afR6PdnZ2YSEhFTahq2tLb169eLQoUOkpaUxYMAA7O3t+fe//43RaKR79+7lgvZW7WZkZHDfffeZ1mvUqBF/+ctfKt2nlZUVRqMRpRSZmZno9XoGDx5sWm4wGCoNdyGEuJvcHHZarZb09PR7IuTgDgZdfQQHBzN27Fg6dOiAv7+/aZLKzJkzeeKJJ1i4cCFarbbaqf3e3t58//33nD59mvfffx97e3vef/99bG1tTZctq2u3VatWXLx40fRYp9Nx7NgxPD09q9y3m5sbTk5OxMXFodXKtzqEEPcWDw8PlFLs3r0bgNDQUNzd3Ru4qpq5J95x77//fjp16sTGjRsJDg4GyiaF5ObmYjQaKS4u5ujRoxw9erTcVFgHBwcyMjJM9z7y9vbmxx9/pHHjxrRp04bmzZvTvn17du3aRf/+/WvU7tChQ4mJieHChQvo9Xo++ugjli1bVm14Xb8Eu2rVKkpKSsjPz2fVqlUkJibeji4TQgiz69GjByNGjGDkyJH3TMjBPRJ0UPbXg7Ozs2nkpNFoWLBgATt27CA4OJhNmzbh6+tb7rt3o0aNYu3atURFRQHg6upK586d8ff3N63j7++Pq6sr7du3r1G7oaGhREZGMmXKFAYOHMjx48dZsWJFtfXb2try3nvvkZqaSlBQEGFhYRQWFtKlSxdzdZEQQtx2Dz30EA8++GBDl1ErGvXHt7Z//vln0ySK2oqJianwfTghhBCiMncqM67n2j0zohNCCCHqQoJOCCGERZOgE0IIYdHMEnTy+ZwQQoiautOZISM6IYQQFq3cF8Yzc+t3WxwhhBDibiMjOiGEEBZNgk4IIYRFk6ATQghh0STohBBCWDQJOiGEEBZNgk4IIYRFk6ATQghh0STohBBCWDQJOiGEEBbNuvpVKnf+cjGvff4r2YUlaMxZ0T1GAS5OdkQ96U7b5o4NXY4Q4i5wpbiU+BMZFOsMDV2KRXG0tWLgI61wdrSp1XZ1HtG99vmv5BSWoFF1bcEyaBTkFJbw2ue/NnQpQoi7hCnk/uTvj2aloFhnIP5ERq03rXPQZReWlJ3EP/NwDsqOX/3RH0IIAf8NuT/7+6M5/fFeW5dRcp2DTmP6l0AjXSGEuIm8KZhfHftUJqMIIYSwaBJ0QgghLJoEnRBCCIsmQSeEEMKiSdAJIYSwaBJ0QgghLNqfN+i0jZk0dRCrPG1lFrAQwmIEe7ShZ4fmNVp3VO8HeLC1822uqOHV+SfA6sq+Ww++Hd0S25sXKD1fb/6W1//PWMsWNXQL7MffXM4w5rPL9IvsS2TGUcbF5SM/viOEuJdogFF9HuD3jAKOnL1cblm3tk3xeKAZm388h1HV7CdXHr2vCe1cGvH1r+nVrhvwP63ILijhWEpuXUq/q93xoLv2n2N4v37D9/401vQY7MXSTll8kVzLkNMASnEq4Thv2BaSb9TzY3wiqdcKJOSEEPccBSRdvMKDrZ0rBF3XVo05dbGgxiEHkJxVSEb+tRqte/TsZUr0tXsP/uPHSu56dzzoUArjDT3T7KEHmf9YKR+u/51jJWUjvn0Di3h+1SlOGAHrlkTNe4jcTd+xNNWJSS/2ZkBuJqVtW+J28ihPnmlH7MAinl+VixHIzbJm9rz+BG76jqXnFBr7powe9jBjH2xMc3ScPH6GJbHnSSotX1azzg/x3igXftt2mOikEmo7rhRCCHNISi/As0MLWjrbk3mlLKSaNbKlRWM74v5T9juPLZzs6NvVBZfGdpSUGjmWksuJtPwKbT3Y2pm2LRzZeTQNgI5uTvTq1AJ7GyvOZRVhpf3vBze9u7iQmX/NFLBtmjrQp4sLTRxtyS3S8UPSJbIKSujo5kTfrq5k5l2lnUsjYg6kUKI30LuzC51bNcZgUJzOLODQmRyMShHh1Y603Ku4ONnR2MGawmt64o9nUHhNf7u70qRBP6PTNm3DvOFupOz9jU8zahotGlo5FLHq/X/xxM7LlFa5qi0DhnkwzjaN2Uu/wWf5MfY37UJ0YHPsblitcfsurBjlxumvEiTkhBANqlinJzWniC6tG5ue69ramYt5V8m/WopWoyHYow1nLxXx0f6zfHfyEt4PutKsUYUPhMpp6mjLwEdbcST5MlsOnCMttxhHu8rHOk0cbBji0YZjqXl8/F0ypzKuMNi9jSkYHW2tOJtVxKbvz3JVp6dfV1dcGtvx+U8p/O/h87Rt4cgj9zUxtefmbMfXv6az5UAKOr2RHu1r9hmiuTRc0Fk5MWrEwzx89gQLE4prcalR8Z9j5zmap6fEUPWgWWPvQuhDBnb/+zwnryr0RXls2XWcz9OM2P/xh4x96w4sHXsfWXsSWPSfaxJyQogGdzL9Cp3cGmOl0aBBQ5eWjTmZdsW0PPaXNE6k5aNQXLhczFWdgaaOVQddp5ZOZORf5ffMAnR6I79nFFBwtfKhQpfWzmRducaZzAIMSnHiQj4aDbRq4gBAUYme05kFlBqMaLUaurZuzOHkHK6WGijW6TlxIZ9OLZ3KHU+pwYhSioz8qzSt5W126uvOX7oEwIpH/brxXOOLvLIlg+zbdJFX08iO5poSDhb897nSS5lsvgRoGwNaevRqS3GpkV+tkJATQtwVUnOK0RuNtHVphMFgxMpKQ3JWIQBGpXC0s6ZPF1ca2VuhQYO9jRWaaqaPO9pZc+UWwXYzJztrWjaxZ7xPR9NzVloNjnZWGIzl37Adba3RajQM7t6a6x8fajRQXFL58EUp0FZXrJk1SNA5d36QBX1hy4dJHLpafplSqlZ3A6hqfVWk47KyxdUJ+OPytbZRY3o003MiHcDI798l8FLqfax+sjsT0g6zPk2msQghGpZSilMXC+jSqjEGo+J0RoEpYJzsrRni3ppdR9PJyC97Ax3br321bRaX6Gnd1KFG+y8q0XM+p5i9iRcrLOvo5lTucbFOj1Kw82ga2QV35+3K7vilS23jVrwS1pqs+N/YeKFiqOhzi8l0boFvW1vsbO3p3us+HqsijqtaX13LIjbJhhC/tnS112Dl4MzIJ3rylmcjUzBm5xaTkXSSN37SMjbiQXrV7HUghBC31cn0K7Rr4UgH10acTP/vZUs7ays0Gg1aTdl/d23tjKOtNZpqRkmnMwtp1dSeTm6NsbXS0rWVM84OlV9C/D2jgPuaO9LRzQmNRkMTBxt8H3bD3saqwroGY9nkk96dXXC0tcZaq+WhNs7lPqNraHd4RKfB5ZF2DGxqg02INwdDblymSP7XT4yJP8eyA87MfdqPcZoSTvznMuer+CPBkF7F+krHtzt+odWwh1n5yoM46a9x/D+/89LebIppfGMr/PavX3m/nRdvDs9lwj8vculemDMrhLBYBddKyci7hq21lpwbbuycU1jCkeTLBHRrBcCZzEIuXC7G3qbqcUt+sY5vj2fSq1ML+j/kSkp2EbnFukrXzSvWsffXi/Tq1ALfh90oKTXy2/k8rpVWfsXrh6QsenVqQfjjbbGx1pCZf40fkrLqeOTmp1Gq7Krqzz//TPuu7jXeMGTpv29XTfes2Nl+DV2CEOIusPnAuYYuwaKN7du+RuudO/UrXl5ef+KfABNCCPGnIEEnhBDCoknQCSGEsGgSdEIIISyaBJ0QQgiLJkEnhBDCoknQCSGEsGh1Djpl+pdASVcIIW4ibwrmV8c+rXPQuTjZ3Tt33budFKD5oz+EEIKy29jI+6OZ/fFe62hb8WfIqlPnoIt60p0WTnaoO/sj1HcdpSm7CWLUkzX/VRkhhGUb+Eir/4adMI8/Qm7gI61qvWmdf+uybXNHNj3fp66bCyGExXJ2tCHMs21DlyH+IJNRhBBCWDQJOiGEEBZNgk4IIYRFk6ATQghh0STohBBCWDQJOiGEEBZNgk4IIYRFMwWdlVXtv20uhBBC3K2u55op6Jo2bdpgxQghhBDmdj3XNEopBaDX6zl37hx5eXkYDIYGLU4IIYSoKysrK5o2bUr79u2xtrb+b9AJIYQQlkgmowghhLBo/x+QtHW0DKSxyQAAAABJRU5ErkJggg==;" vertex="1" parent="1">
          <mxGeometry x="290.37" y="540" width="210.76" height="237.45" as="geometry" />
        </mxCell>
        <mxCell id="6pbGGfXBaGJGcjd1V0Mg-104" value="" style="edgeStyle=elbowEdgeStyle;elbow=vertical;strokeColor=#990000;strokeWidth=2;startArrow=classic;startFill=1;endArrow=none;endFill=0;entryX=1;entryY=0.5;entryDx=0;entryDy=0;" edge="1" parent="1" target="14">
          <mxGeometry width="100" height="100" relative="1" as="geometry">
            <mxPoint x="260" y="560" as="sourcePoint" />
            <mxPoint x="150" y="560" as="targetPoint" />
          </mxGeometry>
        </mxCell>
        <mxCell id="6pbGGfXBaGJGcjd1V0Mg-105" value="sucht Privatwache" style="edgeLabel;html=1;align=center;verticalAlign=middle;resizable=0;points=[];" vertex="1" connectable="0" parent="6pbGGfXBaGJGcjd1V0Mg-104">
          <mxGeometry x="0.2974" relative="1" as="geometry">
            <mxPoint x="14" y="10" as="offset" />
          </mxGeometry>
        </mxCell>
        <mxCell id="6pbGGfXBaGJGcjd1V0Mg-106" value="Pool-Koordination" style="whiteSpace=wrap;align=center;verticalAlign=middle;fontStyle=1;strokeWidth=3;fillColor=#FFFFCC" vertex="1" parent="1">
          <mxGeometry x="340" y="379.9999999999999" width="90" height="60" as="geometry" />
        </mxCell>
        <mxCell id="6pbGGfXBaGJGcjd1V0Mg-107" value="" style="edgeStyle=elbowEdgeStyle;elbow=vertical;strokeColor=#990000;strokeWidth=2;entryX=0.5;entryY=1;entryDx=0;entryDy=0;" edge="1" parent="1" target="6pbGGfXBaGJGcjd1V0Mg-106">
          <mxGeometry width="100" height="100" relative="1" as="geometry">
            <mxPoint x="385" y="509" as="sourcePoint" />
            <mxPoint x="390" y="439.9980952380952" as="targetPoint" />
            <Array as="points">
              <mxPoint x="380" y="474" />
            </Array>
          </mxGeometry>
        </mxCell>
        <mxCell id="6pbGGfXBaGJGcjd1V0Mg-108" value="Email: Offener &lt;br&gt;Dienst erfasst" style="edgeLabel;html=1;align=center;verticalAlign=middle;resizable=0;points=[];" vertex="1" connectable="0" parent="6pbGGfXBaGJGcjd1V0Mg-107">
          <mxGeometry x="0.1625" y="2" relative="1" as="geometry">
            <mxPoint x="-38" y="11" as="offset" />
          </mxGeometry>
        </mxCell>
        <mxCell id="6pbGGfXBaGJGcjd1V0Mg-109" value="&lt;p style=&quot;margin: 0px ; margin-top: 4px ; text-align: center ; text-decoration: underline&quot;&gt;&lt;strong&gt;&lt;strong&gt;Offenen Dienst entsperren&lt;/strong&gt;&lt;br&gt;&lt;/strong&gt;&lt;/p&gt;&lt;hr&gt;&lt;p style=&quot;margin: 0px ; margin-left: 8px&quot;&gt;&lt;br&gt;&lt;/p&gt;" style="verticalAlign=middle;align=center;overflow=fill;fontSize=12;fontFamily=Helvetica;html=1;rounded=1;fontStyle=1;strokeWidth=3;fillColor=#dae8fc;strokeColor=#6c8ebf;" vertex="1" parent="1">
          <mxGeometry x="550" y="355" width="240" height="110" as="geometry" />
        </mxCell>
        <mxCell id="6pbGGfXBaGJGcjd1V0Mg-112" value="" style="shape=image;verticalLabelPosition=bottom;labelBackgroundColor=#ffffff;verticalAlign=top;aspect=fixed;imageAspect=0;image=data:image/png,iVBORw0KGgoAAAANSUhEUgAAAbcAAAB8CAYAAADqz/4oAAAABHNCSVQICAgIfAhkiAAAABl0RVh0U29mdHdhcmUAZ25vbWUtc2NyZWVuc2hvdO8Dvz4AAAAldEVYdENyZWF0aW9uIFRpbWUARG8gMDkgU2VwIDIwMjEgMDk6NTU6Mje5P0AhAAAgAElEQVR4nO3deVyN6f/48ddpsRWKlF2yL9k6pAWlTDGWkDFjN0y27ELDfMeQbTRja0xmMJjsxj6WEbJkohAZQhHFhCJkUKdz//7od+7pzGk5kc/QXM/Howfd93Vf27k77/u67uucWyFJkoQgCIIgFCMG/3YFBEEQBKGoieAmCIIgFDsiuAmCIAjFjghugiAIQrEjgpsgCIJQ7IjgJgiCIBQ7IrgJgiAIxY4IboIgCEKxo3dwkySJ9evX06NHD9q2bUvPnj0JCQnhn58BDw8Px9vbGwcHB3bv3g3A2rVr8fT0xNnZmYSEhCJtwJvYvn07SqVS/unYsSMzZswgOTlZTrNixQqUSiWJiYn/Yk0FQRCEwtA7uH3zzTcsW7aMqlWrMmTIECwtLVmyZAmBgYFyGkmS+OKLL3jy5AnDhg3D1taWGzduEBQUhIWFBcOGDcPKyuqtNORNfPzxx0yZMgUPDw/CwsIYPHgwDx48AKBFixYMGDCAsmXLvvV6ODg4MHny5LdejiAIQnFnpE+ihIQENm/eTMeOHVm4cCEKhQJJkvD392fLli14eXlRr149nj59ytOnT/H29mb48OEAHD16FIDBgwfTqVOnt9eSN+Di4oJSqQTA3d2dESNGEBQUxOzZs3F0dMTR0fFfrqEgCIJQGHqN3MLDwwH46KOPUCgUACgUCvr37w/AyZMniYmJwc3NDfh7uu/7779n6tSpAPj7+/PRRx8B2SO84OBg3N3dcXV1ZcqUKTx8+BCAXbt2oVQqOXjwIH379sXZ2ZmJEyfy9OlTuT6hoaF4eXnh7OzMkCFDiImJASAxMRGlUsnq1auZMGECTk5O9O/fn+vXr+vdIXZ2drRo0YLjx48jSZLOtGR+dZ85cybu7u4cPHgQT09POnbsyJIlS+S8VSoVS5YswcPDg/bt2+Pr60tCQgIpKSkolUoyMzM5fvw4SqUSlUqlU7cJEybg7Oysd1sEQRD+q/QKbqmpqQBUrVpVa3uNGjUAePDgAbVq1eKrr74CwMnJicDAQD744AMGDRoEwKBBg/Dz8wNg06ZNrFq1ChcXF/r3709UVBQzZszQynvVqlX069ePvn37cvLkSdasWQNAbGws/v7+VK5cmZEjR5Kens748eN58uSJfOz69etRKpVMnDiR27dvM2fOnEJ1irW1Nc+fP+f58+c6+wqqe1paGgcOHGDChAk0b96ckJAQTp06BUBISAghISH06tWLSZMmERsby7Rp0yhXrhyBgYEYGRnRpEkTAgMDMTQ01Cnb1taW9u3bF6otgiAI/0V6TUuq1WoAnTdcze9qtZpy5crh5OQEZAdBFxcXABo3biz/27p1awDWrVuHra0t48ePB+DZs2ds2LCBx48fy3lPnjwZBwcHAA4cOMDly5flY42NjZk9ezalS5emWrVq+Pn5ERkZSYMGDQDo06cPAwYMACA6OppDhw6hUqkwMtKruRgbGwPkOnrSp+6LFi2iRIkSNGnShJMnT3L58mWcnZ2Ji4vD2NiYAQMGYGJigpWVFdeuXcPAwAAXFxcUCgUWFhZy3/3TsGHD9Kq/IAjCf51e7/YGBtkDvKysLK3tmjd/zX59pKWlkZqaSmpqKq6urlr77t+/r1MmgKmpKc+ePQMgPj6ejIwMunTponVscnKyHNxyHlu2bFkkSSI9PR0zMzO96piZmQmgEwwLW3fNIhTNlGq3bt04cuQIPXr0wNnZGVdXVwYPHixP9QqCIAhFQ6/gVrFiRQDu3bunNTV59+5dACpVqqR3gZoA6ejoKE9ZatSoUYPY2Nhcj9N85ECtVmNhYUFAQIDW/urVq8tB6U0lJCRgYmKCiYlJoeqeF03d7e3t2blzJwcPHuTEiRNMnjyZdu3asXjx4iKptyAIgpBNr+Dm6OjI4sWL2bp1K3Z2dvJIY8OGDQCFWuRQsWJFypcvT2JiIq1atZJHOfpOG9rY2BAWFkbVqlXlQKs5tig+ixYdHU10dDSenp46I6o3rXtwcDBmZmYMGTKEIUOGsGDBArZv3879+/exsrLCwMBA53ODgiAIQuHpFdxq165Nnz592LZtG6NHj6Z58+ZER0cTFRVFr1695OlAfQ0aNIjly5czbtw42rZtS1xcHA8fPuS7774r8NiBAwdy9OhRxo4dS48ePUhNTeXo0aNs3ry5UHXI6cSJEyQkJHD79m127txJhQoV8PX1LfK6p6SksHbtWp4/f46lpSWRkZGYmZnJI+PKlStz4cIFgoODGTlypM7xq1evJj4+nnnz5r12WwVBEP4L9FthAfj5+WFlZcWOHTu4cOECVlZW+Pr66kzP6WPgwIG8ePGCXbt2ERUVRfXq1enbt69ex9ra2rJgwQKCg4NZsWIF5ubmdOrUKdfVhfrauHEjkH2PTLNEv3LlykVe90mTJmFkZMTWrVt5/vw5jRo1Ys6cOfKoz9fXl/nz57Nt2zaGDBlCqVKltI6PiYkhKirqtdspCILwX6GQxDyYIAiCUMyIL04WBEEQih0R3ARBEIRiRwQ3QRAEodgRwU0QBEEodkRwEwRBEIodEdwEQRCEYkcEN0EQBKHYEcFNEARBKHZEcBMEQRCKHRHcBEEQhGJHBDdBEASh2BHBTRAEQSh2RHATBEEQih0R3ARBEIRiRwQ3QRAEodgRwU0QBEEodkRwE4R3zKlTp9i9e/e/XQ1BeGfNmzePR48e5ZvmnQ5uKpUKpVIp/9jb29O9e3eCgoLIyMjI9Rh/f3/c3NzIzMzU2ff06VMCAgLw8PDA1dWViRMnkpiYWGA91Go1nTt3ZuLEibnud3BwYNeuXYVrXAGCgoKYMGECAPfv30epVBIVFVWkZbyuYcOGab0uDg4O9O/fn6NHj+Z7XEpKCp6enly4cOF/VNO3JyYmBqVSqdf5UxjR0dHMnTuXli1bArp9rfnp3bt3nnmkpqbi6enJuXPnkCSJ3r17awVLX19fZs6cqXedsrKyWLt2Lb169cLZ2Zm+ffty8OBBrTS3bt3C19eXjh070qlTJ2bOnElKSkq++e7atQsvLy+cnJwYMGAA4eHhWvuPHDmCt7c3Dg4O9OnTh7CwsHzze/bsGQEBAXTp0oX27dszYsQIrly5opXm4sWLDBkyBEdHR7y8vFi/fj1qtbpQ7VCr1URERODv709gYGC+dSqozKlTp+b6+iqVSlasWJFrfpmZmSxevJhOnTrh4uKCr68vt2/f1kpTUN8Wlj5tTk9PZ+XKlXz00Ud88MEH+eb38OFDpkyZgrOzM56engQEBJCenq53G+rWrcvYsWN59epV3oVI77DMzEzJzs5O+v7776UbN25I165dk/bu3St16NBBWrx4sU76Z8+eSY6OjpJSqZSOHj2qs3/UqFFS//79pZiYGCk+Pl6aOHGi1KtXLykjIyPfevz++++SUqmU2rRpI6Wmpursb9u2rbRz5848j79w4YJkZ2cn3b17V49WZ4uOjpbbkJycLNnZ2UmRkZF6H/82ffrpp9L48eOlO3fuSHfu3JGuXLkiBQYGSnZ2dlJUVFSex2VmZkobNmyQHj16VCT1GDlypPTll18WSV6FdenSJcnOzk66c+dOkeX58uVLqWvXrtLhw4flbf/sa83Pn3/+mWc+mZmZ0saNG+V+3rlzp5SQkCDvHzNmjDRjxgy967Vy5UrJ3d1dOnbsmJSYmCj98MMPWufj48ePJTc3N2nWrFlSfHy8FB0dLfXq1Uv67LPP8szzxIkTklKplDZv3iwlJCRIP/74o6RUKqWYmBhJkiTpxo0bUuvWraUff/xRiouLk1auXCm1adNGunz5cp55jhgxQho0aJB06dIl6ebNm9KkSZOkjh07So8fP5YkSZIePnwotWvXTpozZ45069Yt6fDhw1K7du2kdevW6d2OEydOSB9++KHk5OQktWvXTpo7d26+fVdQmWlpaVJycrLWT0xMjFZf/NPixYslNzc36eTJk1JcXJzk5+cnderUSUpPT9erbwtLnzanp6dL/fv3l3r27Cnt3btXunbtWr55DhgwQBo0aJB09epV6eLFi1Lv3r2lcePGaZVZUBvGjBkjLVmyJM8y3umRm4aFhQV169alfv36dO3aFS8vL44fP66T7vDhw5iYmPDhhx+yb98+rX3JycmcPXuWSZMm0bRpU2xsbBg3bhy3b98mPj4+3/L37dtHx44dqVKlis4V69vSvHlzXF1d/ydlvY7SpUtTo0YNatSoQaNGjZg8eTItWrRg3bp1uaZXq9UYGRnRr18/zM3N/8e1fT/s3bsXExMT3N3dtbbn7GvNT+XKlXWOz8rKAsDIyIhPPvlE7mcvLy9q1ar12vXaunUrgwYNwsXFherVq/PZZ59hY2Mjj6R+++031Go1n3/+OTY2NjRv3pxRo0Zx/vx5nj59mmuee/bskUeBtWrVYvjw4TRp0oS9e/cCsH37dmxtbRk+fDh16tTBx8eH1q1bs3nz5lzzi4+PJyoqimnTpmFra0vt2rX54osvePLkCdHR0QCEhoZiZGTE9OnTsba2xt3dnY8++og9e/bo3Y5Xr17h4+PDb7/9Rr169Qrsu4LKLF++PFZWVlo/YWFhNGnShKZNm+aa5969exkyZAjOzs7UqVOH//u//+Pp06fyyKagvi0sfdq8bt06UlNT+emnn+jatSv169fPM7+4uDiuXr2Kv78/DRs2pFmzZkyePJnw8HB5lKxPGz777DO2bt3K48ePcy3nvQhu/2RgYMCLFy90tv/666906tSJzp07Ex4ertVoS0tLTpw4IU/3QPabAJDv0Pb58+eEhYXh4eHBBx98oBM0NRITExk5ciTt2rWjR48ehIaGAjB58mSGDx8OQPfu3Zk3b558zMGDB/H29qZt27Z4e3trTbvMmTMHHx+fXMtauXIlXl5eWttmzZolp9dMme3du5d+/frh7OzM4MGDuXHjhpz+6dOnTJ8+HWdnZzp16sSqVavo1q3bG02v2tracufOHQDWrl1L165dmTdvHi4uLhw8eFBrevW3337D3t6eJ0+eyMcfP34ce3t7eS79wIED9O3bFycnJ7p3705ISAgA165dQ6lUEhkZyb59+1AqlSQkJGBvb8+JEyfk/BYuXMjHH38s/56enk7r1q2JiIgA4I8//mDEiBG0b9+eTp06ERAQoHVevXjxgoCAANzc3Gjfvj2+vr7cunVLq81nzpyhb9++ODo66vSxSqUiODgYT09PHB0d8fHxyfdCat++fXh6ehaqzx0cHJg/fz59+vTB29sbAKVSyf79++U09+7d05nWfvXqFQEBAXTo0AF3d3eCgoJyzV+tVjN9+nSdepUqVUr++2nVqhXz58/H2NhYaz+AoaFhrvnevHmTBg0aaG1r2LCh3D937tyhTp06WvtbtWpFTExMrvmZmZmxYMECrTfVEiVKAH//nd+8eZM6derIv2vKTEhIQKVS6dUOd3d3unfvTpkyZXKtR27tzK/Mf3r58iU7duzQOm8XLlyIr68vkD21/+TJExo2bCjvNzU1pUaNGty8eVMuM7++LSx92rx7924GDhxI+fLlc92fsw3x8fEoFAqtQKlpj+bvS582NG/eHHNzcw4fPpxrme9VcJMkiUuXLrF79266d++utS8pKYno6Gg8PDxQKpWUK1eOQ4cOyfsNDAwoU6YMCoUCyJ6fX7FiBfXr18fW1jbPMkNDQzE0NMTJyQkPDw+uX7+u9QamsWPHDvr27cuPP/6Ig4MDn3/+OUlJSSxcuJDvv/8eyL4anTp1qpxvQEAAw4cPZ/PmzXTt2pXp06dz9+7dN+4njd27d7NkyRIOHDhA2bJlmTt3rrxvwYIFREdHM2/ePJYvX05cXBx//vnnG5WXnJyMhYWF1u+lSpVi1apVODs7a6Xt0KEDpUqV0hqBHzt2DHt7eypUqMDp06f56quvGDx4MNu2bWP06NEsX76c48ePU79+fcLDw1EqlfKFjLW1Nba2tpw9e1bO78SJE8TFxcl9ev78eUqWLEnLli159OgRo0ePplGjRmzcuJFFixbx+++/y68VZP9Bnj9/noULF7J27VrKli2Lr68vf/31l5xm8+bNTJkyhR9++IGsrCytPg4MDOTw4cMEBASwfv16KlSogJ+fnzzCyik9PZ0rV67QuHHjQvd7eHg4kyZNYtmyZXofc+zYMSwsLFi9ejXDhw9n7dq1/P777zrpDAwMcHd3p1KlSvK22NhYrl69Kge8unXrYm9vr3Xczp07ad++PSYmJrmW//z5c519ZcqUke+7lCtXTud+prGxsdbFUE4VK1bE3d1dK4js2rWLChUq0Lp1awD++usvnTJLly4t1+d12lGQgsr8pz179lCiRAmt0bujo6N8D0tz7v0z0JQpU4Znz57J+ebXt0Xt3r17pKam8vLlSwYPHoy7uzsjR44kLi4uzzaULFlS68JH0yeFbUOzZs20/uZzei+C26JFi3BwcMDBwYFPP/2UKlWqMHToUK00v/76K1WqVKFZs2YYGhri5uaW6ygrKSkJZ2dnXF1dOXPmDPPnz8fAIO9u+PXXX3F1daVkyZLUqVMHGxubXPP18fHB1dWVhg0bMm3aNCwtLdm1axdGRkbylWCJEiXkP75Vq1bRv39/PD09sba2ZsiQIdSuXZtff/31TbpKi7+/P5aWlpQtW1YOzJC94ODw4cNMnDiR9u3b07BhQwICAihZsuRrlZORkcHhw4c5evSo1hW+ubk5kyZNom7dupQrV07rmJIlS+Lq6iovQlGpVJw4cYIuXboAUK9ePUJCQujSpQtVq1bF09OT2rVrExMTg0KhoGTJkigUCgwNDeV6Ozk5ERkZCWS/AWdmZtK6dWs5gJ47dw6lUknJkiUpWbIk33//Pb6+vlSvXp0WLVrg6urKpUuXgOwr5P379+Pn54dSqcTGxoYvv/wSCwsL+QoZYPbs2bRu3ZqmTZvi7e0t9/GjR4/YuXMn06ZNQ6lUUrduXfz9/blz5448TZZTcnIyarUaKysrnX2HDx+mTZs2Wj85L0QGDx6Mg4MDNWrU0Ps1c3Z2ZuTIkdStW5ePP/4YS0tLrl27VuBx6enpfP755/Tv319r9JDT9u3bOX/+vHwhl5ucizg0FAqFvN3d3Z3IyEgOHjyISqXi7NmzrFu3Tu8gExsby4oVK5g5c6Z8fuR2UaG52JUk6bXaUZDClKlWq9m0aRPe3t5aQbpdu3byxXxu/abJU7OvoL4tag8ePACy3ys/++wzlixZgqGhIb6+vvJMSM425NcnhW1D1apV87woN8p16ztm2LBhctRPTk5m2bJlTJ48WV5NJEkS+/fvx8PDQz7Gw8ODbdu2ERcXR926deXtlStXZtOmTaSmprJ+/Xp8fX3ZtGkTpqamOuX++eefnD9/nk8//VQr3y1btjB27FitE1Bz5QHZL0Ljxo11VjBpqFQq4uLiuH37Nhs2bJC3Z2Rk5DtXXViaaRnN/zMyMlCpVCQmJiJJEs2bN5f3GxkZySeYPkJDQ+VpVJVKRenSpRk+fLjWKr6c/ZObLl26MG7cONLT0/njjz/IyMigQ4cOAFSqVInw8HBmzZpFUlISr169IjMzE6VSmWd+Tk5OfPfdd6SmphIWFiYH7sOHD9OvXz/OnTtHjx49ADAxMeHFixeMHz+e69evk56eTlZWljwVduvWLdRqtdYbeKlSpeR7iprpsbJly8r7S5cuLfdxXFwcWVlZTJo0Saeed+/exc7OTmub5p5OblM/Dg4OjB8/XmtbzpFUzmk0ff3zfC9durTWiDQ3KpUKPz8/eQSbm4iICAIDA1mwYEGu9wU1DAwMdN6o1Gq11vTfwIED+fLLL5k5cyZ169alXbt2WqOBvNy/f5+JEyfSq1cv2rdvL283NDTMtUzNvtdpR0EKU+aJEydITk7OdyWs5kI8v74rqG9zunz5Mp999pn8+5dfflnoqXFNAFuwYIE81fjVV1/Jsyr/vIdsaGioE9g1v2veM/Rtg6mpaZ6j+fciuFWoUAFra2sArK2tMTIyYuTIkcTHx1OnTh2io6O5e/cuISEhWsECsu9jaJbUQ3bn5VwI0aFDB8LCwujatatOuZpRVM6PAEiShEqlIiIiQmeqTV9qtRqFQsHo0aNxcXHR2qfvXP6b0JxI+Y1YC+Lo6Cj3S5kyZahUqVKhgiNk3xsyNzfn5MmTREdH4+rqKl8k7N27lyVLlrBw4UJatmxJiRIlGDBgQL751a9fn0qVKhEZGcnx48flacfAwECSkpK4du0aTk5OACQkJDB27FjGjRvHwoULMTU1ZcmSJZw5c+Y1ekOXpo+XL1+uNVUL5LqgJr/RhampqdYF2r9lzpw5/Pnnn6xZsybXC5dr164xdepUfH19dc7rfypbtqzOYpMnT55oXSyMHz+e4cOH8+zZM6ysrPj888917sP9U3p6OuPGjaNJkyY6FwSmpqYkJSXplGlgYKB1cVqYdhRE3zIBNmzYgKenZ74LrjT9k1/f6dO3GvXr12fr1q3y7xUrVtSjVbnXKefFtIWFBWZmZjx8+DDX9K9eveLVq1fyeZ+Wlgb8fdGlbxtUKpVWuTm9F9OSedFE8X379tGgQQM2b97Mpk2b5J9+/fpx8OBBsrKyuHHjBl27diU5OVnreIVCkecIY9++ffTq1Usrz82bN9O8eXOdqcmcV71qtZorV67kuUKtRIkS1KxZk7i4OK0VcGZmZnqdXKampjrz9bl9ri8vtWrVQqFQyFNwkP2mmtvUTF7KlCmDtbU11tbWWFpaFjqwQXZw9fDwIDQ0lOPHj9O5c2d535kzZ2jRogX29vbyyfvy5Uut43Mr09HRkT179pCYmEibNm2wsLCgYcOGBAUFUatWLapWrQrAhQsXMDAw4OOPP5b/oHK+hrVr10ahUGhN1alUKhYsWKA1LZkXzZtwYmKizmuc2yyB5g1N80f+JkxMTLTaUphzIy8rVqwgIiKCoKAgKlSooLM/OTmZ8ePH07t37wIvQiD7Pt0ff/yhte3q1as6wcvExITKlSuTlJREWFhYvp+fyszMZMqUKZQrV465c+fqXOXXrVuX+Ph4rfPo6tWr8gXz67SjIPqUqdl24cIFrYUkuTE3N6dChQpafff48WOSk5PlvtO3byH7vSjn+fk6F9f16tWjVKlSWtPtT5484cmTJ1SvXl0nveZCLWcdr169CoCNjU2h2pCWlpbnxcB7EdzS0tJITEzkzp078nRBvXr1qFmzJi9fviQ0NJQPP/xQfrPV/Hh7e5OSkkJERAS1atXCyMiIuXPncu3aNRISEpg/fz4mJibyDeecLl68SFJSEr1799bJt2vXrhw/flzryuKHH34gNDSU2NhY5s+fT0pKCr169QKyV3IBnD59mnv37gEwfPhw9u/fz9q1a0lMTCQiIoK+fftqrfbLS5MmTXj8+DEhISHEx8ezZcsWjhw5ond/VqhQAQ8PD5YsWcKpU6eIjY1l1qxZWqtGAwMDGTZsmN55vq4PP/yQ48ePk5WVpXUzv3bt2kRFRXH48GFiYmKYNWsWCQkJWh/eNzMzIy4ujitXrsjbHR0dOXv2LG3btpWvCl1dXQkNDZVHbZr8X758yapVq7hy5Qpr165lz549cj4WFhZ07tyZb775hosXL3L79m3mz59PWFgYlpaWBbbLwsICLy8vli5dSmhoKHfv3mXHjh1069aN1NRUnfRVqlTB3NychISE1+rHnJo0acIvv/zC5cuXuXDhgtYK3dexa9cu1q9fz8yZMzE2Nub+/fvyT1ZWljxaqlevHn379tXar/kbiYqKYtu2bXKeXl5eREVFERISwu3bt1m1ahVxcXFaC8VevnzJ5cuX2bZtGz4+Pri5ueHo6Cjv37lzp9ZIe/bs2SQlJTFt2jTS0tLkOmiWl7u5uWFoaMi8efO4desWoaGh7N69W56q1qcdhVVQmRobNmygZcuWOisEIfsba3JeTHt5ebFp0yZOnDjBzZs3mTdvHubm5vL5rU/fFqWSJUsyYMAAgoKCOH78ODdu3GDWrFlUrVqVtm3b6rTB2tqa5s2b880333DlyhViYmL47rvvaN++vXzhpG8bEhISaNKkSa71ei+mJYODgwkODgay3zTs7e0ZM2YMBgYGhIWF8eLFi1yv6GrWrEnjxo3Zt2+ffD8mKCiIMWPGoFKpaNq0KStWrMh1tLRv3z5q166d68nm5ubG119/zW+//SYvvx4wYAAhISHExsZiZWXFvHnz5FGCtbU13bt3Z/Hixdy6dQs/Pz86d+7MixcvCAkJITg4mEqVKjFgwACtewR5adGiBWPGjOHnn39m9erV2NnZ4eLiUuDX0eQ0bdo05s6dy7Rp0zA3N6dPnz6UKlVKHg2lp6fnOo1R1OrVq0fdunVRKpVaV9oDBw4kOTmZ+fPno1ar8fLyolevXlpXwP369cPf359Ro0axZcsWKleujL29PUZGRlrTSa6urixfvlzrjbFFixZMmTKFn3/+mTVr1uDg4MDo0aPZv38/mZmZGBsbM336dL755hsmTpyISqWiRYsWBAcH5zryyo2fnx8mJiYsWrSIp0+fYmNjw4IFC3I93xQKBU5OTkRERBT6nsc/TZs2jYCAAEaOHImVlRW9e/fm3Llzr53f2rVrUalUuX5Dz549e7h48SI3b97k5s2bOtP7Xbt2ZdasWURFRfH777/Tp08fAOzt7Zk1axarVq0iKCiI6tWr8/XXX9OoUSP52EuXLjF16lRq1qzJkCFD5GM1Dhw4QOPGjbG3t+fBgwccOHAAQGf0U7lyZfbt24e5uTlBQUF88803fPLJJ5iZmTFo0CD69esHwMmTJwtsR2EVVCZkL8gIDQ3VWmmb06lTp7h3755cJx8fH1QqFXPmzCE9PR1bW1uCgoLkaU59+rao+fj4oFarmTdvHs+ePaNZs2YsXrxYvh/8zzZ8/fXXfP311/j4+GBgYECHDh20Fu7o09jLBdUAABc2SURBVIaXL19y8eJFBg8enGudFFJh5qKEYiPnfDdkr6D08PAgODgYW1tbvLy8GDlypM4VpvD2XL9+nU8//ZQdO3boNToUhP+y7du388svv7Bp06Zc978X05JC0fvqq69YuHAhCQkJXLt2jS+//JKaNWvStGlTXr16Re/evenWrdu/Xc3/lPr16/Phhx/y7bff/ttVEYR32uPHj/nxxx+ZPn16nmnEyO0/KikpiaCgIM6cOYNCoaBVq1ZMnDiRatWq/dtV+097+fIlEyZMoFOnTvkuCReE/7KRI0fi7u4u3xbKjQhugvCOUalUpKSkvNHnqwShONOsQs6PCG6CIAhCsSPuuQmCIAjFjghugiAIQrEjgpsgCIJQ7IjgJgiCIBQ7IrgJgiAIxc57EdxOnTrF0KFD5adGT5gwoUi+g+99dfr0aZRKpfw9lf9rK1asQKlUcvHiRZ19EyZMYPLkyXrnNXToUPkxMoIgCEXlnQ9umodqtmrVitWrV7No0SKMjIwYMmSI/JC8982oUaNe63vq3jUBAQFv/I3zffv2lb9cVRAEoai808EtKyuLxYsX4+HhwdixY2nQoAEtWrRg/vz5lCtX7p294s/tmVxqtbpQj5T5Xzt48CDbt2/X62nMkP1N4Pfu3Xvj18DT0zPXL6cWBEF4E+90cLtx4wYPHjzQecyBsbEx48aNo2bNmvI2lUpFcHAwnp6eODo64uPjQ3x8vLw/KSmJCRMm4OLigru7O7NmzZIfYxETE4NSqeTnn3+mZ8+eODo6MnToUK3jITsAeHt707ZtW7y9veUnUUP205Lnz59Pnz595K+E8fX1Zfz48YwaNQpHR0d+//13lEolkZGR7Nu3D6VSSUpKCocOHaJz5848e/bstfpJpVKxYsUKunbtipOTE/379+f06dOFyqNKlSosXboUHx8free85cXExIThw4ezevXqfKeIC3pdvLy8WLlyJfD367B371769euHs7MzgwcP5saNG4VqiyAIwjsd3O7evQugFcQ03N3d6du3r/x7YGAghw8fJiAggPXr11OhQgX8/PzkUdS0adOQJInVq1cTGBjIxYsXWbBggVae8fHxrFu3jt27d1OmTBmmTJkiHx8aGkpAQADDhw9n8+bNdO3alenTp8t1BAgPD2fSpEksW7ZM3nb27Fk8PDzYsGEDrVu3Jjw8HKVSKT+C3cLCgvr16+Pl5fXaT+EODg5m//79zJ49m61bt9KmTRv8/PxyfW5YXpo3b87y5ctRq9WMHTtWrwA3cOBAatWqxdy5c/MclRb0uuRm9+7dLFmyhAMHDlC2bNk8HwUiCIKQl3f6eW6aB0eamJjkm+7Ro0fs3LmT5cuXo1QqAfD398fNzY3o6GhatWrF7du36dy5s/wk17lz5+o8UXnYsGGUK1cOgOnTp9OzZ08iIyNp27Ytq1aton///vKztoYMGcKhQ4f49ddf8fHxAWDw4ME4ODho5dmhQwe8vLy0tikUCgwNDeVHztSuXZsRI0YUun80unbtSu/evalSpQqQvUjj559/5vr16zr1SUlJISAgIM+8KlasSFJSEmPHjmX58uU0a9Ysz7RGRkbMmDGDTz/9lN27d+u0s6DXxc7OLtd8/f395Ue+eHh4MH/+/II7QRAEIQe9g1tw6A12RCbyKD2j4MS5MCtjjLd9TUa619P7GM2b/5MnT+QHZ+Z8s65SpQo7duwgLi6OrKwsJk2apJPH3bt3sbOzY8yYMSxfvpyTJ0/i6OiIm5ubzgMJc6pRowampqbcvn0bpVJJXFwct2/fZsOGDXKajIwM6tevL/+ueTBfTjkfJV9YaWlpuLu757m/oCfrjh07ljlz5tC5c2d524sXLzh16lSBZT9//pzIyMh8gxuAra0t3t7eLFmyhHbt2mnt0+d1yU2JEiW0/p+RkYFKpXqjvhQE4b9Fr3eLlUfiWHUsvuCE+Uj7K5OfjmePlPQNcJrpyISEBKpXrw4gP5guJCSEiIgIAHlKbPny5VhYWGjlYW5uDsAnn3zCBx98wOnTp/n9999ZuXIlo0aNYuDAgXmWr1kEolarUSgUjB49WusJz8BrTyXqw8zMjNDQUFQqlVa7wsPDGT9+PPv27aNy5crMmjWLuLg4Zs+eTa1atXj16hXt27cnMDBQp77Vq1fnxIkTuZb3/Plzxo0bx40bNxg2bBjDhg3Tq56+vr6EhYWxaNEire36vC6CIAhvg1733H45c6dICstSS+yITNQ7fZ06dbC2tmbjxo3yNmtra6ytrSlfvrxWOvj7MQiaHzMzM0xNTbl37x7Lly/HyMiIbt26MW/ePHx8fFi9erVWeWq1Wv7/9evX+euvv7C2tqZEiRLUrFmTuLg4nfwrVqxY6H5QKBR6p928eTMDBgzQuqeVmJiIsbExlSpVAiAiIgIPDw9sbGwwNDTkr7/+yrfsMmXK6Pyo1Wr8/PzkwDZq1Ci962hiYsLUqVMJDQ3l8uXL8vaCXhdBEIS3Ra/g9uj5601F5ppXIaY1FQoF/v7+XLhwgZkzZxITE8OtW7cICwvj1KlT8vOuLCws8PLyYunSpYSGhnL37l127NhBt27dSE1NpVy5cuzdu5dvv/2WW7duER8fT2RkJNbW1lrlLV68mLi4OP744w/mzJlDzZo1adOmDQDDhw9n//79rF27lsTERCIiIujbt2+eo6D8mJmZERcXx5UrV8jIyODWrVv88MMPWsFVo0OHDjx+/JjAwECuX7/OsWPHWLNmDZ07d8bQ0BAAGxsb9uzZQ1RUFBEREfj5+QHw6tUrveu0du1aSpQowahRowoV2DRcXV1xcXEhLS1N3lbQ6yIIgvC2vPM3Mezs7FizZg3BwcH4+vqSmZlJpUqVcHNz05o28/Pzw8TEhEWLFvH06VNsbGxYsGCBPLIKCgpiyZIlDB06VM53xowZWmU1a9ZMXgHZoEEDFi1ahIFBdvzv3LkzL168ICQkhODgYCpVqsSAAQNo3759odvUr18//P39GTVqFFu2bCE2NpZdu3bRr18/nRFNo0aNCAwM5Mcff2T37t2UL1+eLl26aC1A+eKLL5g7dy4TJkzAzMwMHx8fJEnSCjQF8fX1LXQ7/mnq1KlERkZqbSvodREEQXgb9HpYqXLGwdcuYKR7PRpWLceE9efkbVFzPV87v7chJiaGoUOHsnPnzgKf7ioIgiC8+97q59xGdapHX4darDwiPoQrCIIg/O+8tWnJ0Z3q0adtLUavOcvVu0/fVjGCIAiCoOOtBLcxH9Snd5sajFp9lth7735gs7W1JSoq6t+uhiAIglBECjUtaaAAl8ZW+abx/f+BbfSayPcisAmCIAjFT6GCm0lJIz7v0YSp3Rrnut/Xoz69RGATBEEQ/mWFmpZ89lLFiFVnWDncHgWwcO8Ved9Yjwb0bF29SAPbq6xXXHtwjZTnKWRkFd1n7QThXVHCsAQWJhY0sGxAScOS/3Z1BKHYKPRqyVsPnzNi1Rk6Nq3M9B5NABjnWfSBDSD2fiz3nt4TgU0otjKyMrj39B6x92P/7aoIQrHyWgtKNAFu5XB7WtQ0w7J8qbcyFfnw+cMizU8Q3lXiXBeEovXan3NL+P8B7nlG1lu7x6ZSq4o8T0F4F4lzXRCK1ht9FCDh4XOGrYwoqroIgiAIQpF4p5/ELQiCIAivQ6/gZlZG9yGcr6uCaYmCEwmCIAjCG9AruPVpW6tICjNUKOjVWnwxsSAIgvB26XXPbYRbXSQp+0GjhXkeW05mZYzxtq+p91O4BUEQBOF16fXIm3/LwWuv/6gdQXjfeDZ4tx4FJQjvM7GgRBAEQSh2RHDLw6zhs1g1b1Wu+zYu28i0T6aRpcoqMJ+QJSF8O/VbAJ48eoJ/f39uxOT9fLtDWw7x+YDP5d8XTVzEb9t+K1zl31NpqWms+HIFk70n89PXP+l1TM7+fVt2/bSLFV+u0Cvtzas3Gd15NA/uPnirdRIEIX9v7Xlu76qda3ZSpUYV2nZqm2+61i6t+W37b7x6+YqSpf7+zr+srCyiT0ej7KDE0MiwUGWblDXB3dsdqxr5P1khpw7dO1ClZpVClfO+2vXTLh7cfcDIL0diXsn8366OzNbeFuv61v92NQRBKIT/1Mhty4otnPz1JJVrVi4wbeuOrcl8lcnlyMta269fvE76k3TadGxT6PKNjI1w6+lGObNyeh/TxrUNNeq83gpTtVr9Wsf9L6nVajS3fe8n3qdpm6bUs62HRWWL/2nZ+anTuA4tnFq89foIglB0/jMjty0rtnDmyBnGzh2LdQPrAtNbVrXEuoE1F05ewK6dnbz9/MnzWFazlPN4kvqEHat2cPXCVVSZKmwa2dBnZB+squuOzh49fMTMQTOZsHAC9ZvVl/Pb9dMunj1+Ru1GtaloVVHrmP/79P9o07ENXQd0BeD29dvsWLWDW7G3MClrgnMXZ7r064JCoeDQlkOc3H+SxnaNOXfiHB+N+oiHfz7k7NGzzF4zW85z3TfrSL2fyqSvJ3Hz6k0CJwUycNJAju06xoN7D6haqyr9x/enWu1qAEiSxJ51ewg/EE5GRgbNHZqjylRhZGzE0KlDc+2/s8fOcnDTQVL+TMGiigXdh3SnhWN2gFg+YzkGhgaoMlXEX47H/zt/5oyYI7fv6M6jTFo0ibpN65KWmsa24G1cPXcVSZJo0KIBfUb20eknjaSbSWxcvpGkuCQqWFXApbsLW7/fyqxVs7CsZqlT9qw1s6hQqUK+9Q1ZEsKDew+Y9PUkAO4n3Wdb8DZuXL5BqdKlaNa2GT2H9aSMaRm5HrHRsfww5wce3HtAdZvqWv0pCMLb958YueUMbLUb1tb7uDYd23A58jKvXr4CIEuVRXR4tNaobWXASp49eca4+eOY8u0UJEli9YLVeuWfnJjM6gWraWzXmIlfT8SpsxMXT1/MM/3DPx+ydPpS6jaty4wVM/ho1Ecc+eUIZ4+eldM8evCIEqVKMHHRRJq2aap3W08fOs2or0Yx7+d5lCpTig3LNsj7Th04RegvoXTp3wW/b/2oXLMyF05dyDOv8yfPs3HZRjw/8WTG9zOwd7Nn9fzVpCSnyGmuRV9D2UHJ9OXTqVSlEkt3L6VG3Rq4ermydPdS6jSpg1qtZsX/rSAtJQ3fub6Mmz+Ol3+9ZPmM5agydb+LMTMjk+CvgjEyNmLc/HH0H9+fUwdO6aTLWXY5s3J61VcjS5XFii9XYGhoyNTFU/H5woeEawms/3a9Vrqw3WF4j/Rm4tcTycrK0upPQRDevmIf3DZ/t5kzR87gG+BbqMAGYNfBDlWmSp6ajI2O5fmz57R2bS2n6TuqL8OmD6N67epUrVWVdl3akRSfRMargj8PeHzvcSyrWvLxmI+pWa8mdu3scOnhkmf6ozuPUs2mGt0GdcOquhUtnVvi8IEDpw+dltOUNSuLt4831WtXx6Ssid5t/cT3E8wtzCljWobWrq1Jik+S9x3bfQyHTg64dHehWu1qdP64Mw1bNswzr/0b9+PW0402rm2wqm6FR18PKteozJnQM3KaZm2b4eTpRFXrqhgZG2FcwhgFCgwMDLL/r1Bw8fRF7t2+x7DPh2HTyIbaDWsz7PNhPH74mKiwKJ1yY87E8DjlMUOnDqVu07rUs63Hx74f66T7Z9n61Ffj4u8XefzwMUOmDqFa7WrUaVyHT3w/4emjp2RmZMrpBk0ZRMMWDandsDbtP2yv1Z+CILx97+20ZPyVePZv2M8w/2Fa00E5bf5uM2ePnsU3wBebRjaFLqNs+bI0atVInpo8d/wcNo1sqFSlkpzGpJwJ23/YzvVL13mW9ky+h6PKVFGiZP5fNZacmIxNY+16GRrmvUgl6WYSt2JvMaHnBHmbWqWmXIW/7+Hld3x+jIz/PhWMjY1RZarIUmWhMFCQci8Fj4888kyfkypTxb2Eezy4+4AjO4/I2zMzMqlm8/e0nD6LcZJuJmFZ1ZIKlSrI28qWL0s1m2rcvnFbZ1HQ/aT7VLSsiLnF34tRcqtnzrL1ra/G3Vt3sahiQWmT0vI2m8Y2TF0yVStdGZO/z8mSpUrK/VnYRUiCILye9za4WVWz4smjJyzzX8bYeWN1RilvGtg02ri2YcOyDbx4/oKLERfpPri7vE+tVrPMfxl1mtbBb7EfZhXNuBRxieCvgvXKW1JLGBjoP3iWJInmDs3pMaSH1va3+YYpSRISEij0TI+EQqGg++DuNGvbTGtfqTKlCl+BXMpV5FEZSZJQGOhZUc0xRV1fQRDeCe/ttKRpeVPGLxiPSqViqf9S0p+kA9lvcEUV2ACaOTRDgYJtwdvIeJmhtbjk4b2HpCSn0KFbB8wqmgGQ8VL/ryerXLMyt67e0tqWlZX3Z+eq1qpKYnwiFa0qYlnNEstqlphXMtcauf1T6TKlefXilXYZmQV/Pk/D0NAQy2qWJMQmaOeRx2f8jI2NqVS1Ekm3kuQ6WlazxLS8KeXM9V8lClC1dlUe3ntIWmqavO35s+fcTbhLdZvqOumtaliRej+VJ4+eFFjP161vVeuqpPyZwou/XsjbkhOT2RS0Kdf7gIIg/Dve2+AG2VNU4xeMR1JLLPVfytO0p9mB7chZfOe8eWCD7CmlFk4tiAiNoLFdY0zLm8r7zCqaUdqkNIe3HibhWgKRxyLZ/sN2AK37L3np0K0Dfyb+ybbgbdyJu8P5k+c5tutYnunde7uTlpLG+m/Xk3QriTtxdwiaGcSetXvyPKZWg1o8S3vG4e2HuZdwj7A9YUSHRxeiB8C1hyvhB8M5uf8kSbeS+G3bb8ReiM0zfed+nYk8GsmhrYd4cPcBV89fJWBUAJfOXCpUuS0cW1C5RmV+WvgTCdcTSIxP5KeFP1HOrBxt3HQ/itG8bXPMKpqxdtFa4q/EcyPmBtu+31ZgOYWpb3OH7DJ+/vZn/rzzJwnXE/j52595/PBxnlO1giD87733f41ly5dl3PxxLPNfxlfDv0JSS9kjtsZvHtg0Wru25syRM9i72WttL1m6JJ/N/IxffviFb/2+pUqtKvQc1pMDmw7w+OFjylcon2++VWpW4dPpn7J7zW5OHzpN7Ua1cersxNkjZ3NNb1nNkrFzx7L7p918Pf5rSpUuRUvnlvLHBHJTt0ldug/uTuiOUA5uOUj9ZvVp5tCMp2n6PzndydOJRw8eyUG0mUMz6jSpk+eUqn1HezJfZhK6I5R9P++jfIXyuPVyo5l9s1zT58XQ0JBRX41i+8rtLJ22FLWkpmHzhvjO9cXYWPcxTEbGRoyaNYoNSzewdPpSLKtZ0qpdK+7E3cl3urIw9TUyNmLMnDFsWbGFBeMWZF/8OLag57CehWqbIAhvV7H54uT0J+lsWLaBTr07FWlgE7KnelWZKoxL/B1QZvvMpmW7lnQb2O1frJmuzIxMrXpGHY9i7aK1LN6xWGv7u0h8cbIgFJ33fuSmYVrelBFfjPi3q1EsnTpwinPHz9FjaA/KmJYh/GA4Kckp2LW3K/jg/yFVpoq5o+fi0t0FW3tbHtx9wJ61e2jt0vqdD2yCIBStYjNyE96eVy9esS9kH+dPnuf5s+dUta5KjyE9aNC8wb9dNR2x0bHs37if29duY1LOhJbO2aPL92Hloxi5CULREcFNEN4RIrgJQtF5r1dLCoIgCEJuRHATBEEQih0R3ARBEIRiRwQ3QRAEodgRwU0QBEEodkRwEwRBEIodEdwEQRCEYuedDm5GBsXmC1QEIV/iXBeEovVOB7dKJpUKTiQIxYA41wWhaL3Tl4sNrRqiUChIeZ5CRpb+z0kThPdFCcMSWJhY0MDy3fsqM0F4n73TX78lCIIgCK/jnZ6WFARBEITXIYKbIAiCUOyI4CYIgiAUOyK4CYIgCMWOCG6CIAhCsSOCmyAIglDsiOAmCIIgFDsiuAmCIAjFjghugiAIQrEjgpsgCIJQ7IjgJgiCIBQ7/w/mfu64QdumyQAAAABJRU5ErkJggg==;" vertex="1" parent="1">
          <mxGeometry x="555" y="387.52" width="230" height="64.97" as="geometry" />
        </mxCell>
        <mxCell id="6pbGGfXBaGJGcjd1V0Mg-113" value="" style="edgeStyle=elbowEdgeStyle;elbow=vertical;strokeColor=#990000;strokeWidth=2;startArrow=classic;startFill=1;endArrow=none;endFill=0;entryX=1;entryY=0.5;entryDx=0;entryDy=0;exitX=0;exitY=0.5;exitDx=0;exitDy=0;" edge="1" parent="1" source="6pbGGfXBaGJGcjd1V0Mg-109">
          <mxGeometry width="100" height="100" relative="1" as="geometry">
            <mxPoint x="540" y="410" as="sourcePoint" />
            <mxPoint x="430" y="409.58000000000004" as="targetPoint" />
          </mxGeometry>
        </mxCell>
        <mxCell id="6pbGGfXBaGJGcjd1V0Mg-114" value="gibt Dienst frei" style="edgeLabel;html=1;align=center;verticalAlign=middle;resizable=0;points=[];" vertex="1" connectable="0" parent="6pbGGfXBaGJGcjd1V0Mg-113">
          <mxGeometry x="0.2974" relative="1" as="geometry">
            <mxPoint x="14" y="10" as="offset" />
          </mxGeometry>
        </mxCell>
        <mxCell id="6pbGGfXBaGJGcjd1V0Mg-117" value="Privatwache" style="whiteSpace=wrap;align=center;verticalAlign=middle;fontStyle=1;strokeWidth=3;fillColor=#FFFFCC" vertex="1" parent="1">
          <mxGeometry x="610" y="209.9999999999999" width="90" height="60" as="geometry" />
        </mxCell>
        <mxCell id="6pbGGfXBaGJGcjd1V0Mg-118" value="" style="edgeStyle=elbowEdgeStyle;elbow=vertical;strokeColor=#990000;strokeWidth=2;entryX=0.131;entryY=1.036;entryDx=0;entryDy=0;entryPerimeter=0;exitX=0.299;exitY=-0.017;exitDx=0;exitDy=0;exitPerimeter=0;" edge="1" parent="1" source="6pbGGfXBaGJGcjd1V0Mg-109" target="6pbGGfXBaGJGcjd1V0Mg-117">
          <mxGeometry width="100" height="100" relative="1" as="geometry">
            <mxPoint x="655" y="345" as="sourcePoint" />
            <mxPoint x="660" y="290" as="targetPoint" />
            <Array as="points">
              <mxPoint x="580" y="320" />
              <mxPoint x="620" y="300" />
            </Array>
          </mxGeometry>
        </mxCell>
        <mxCell id="6pbGGfXBaGJGcjd1V0Mg-119" value="Email: Offene &lt;br&gt;Dienste&amp;nbsp;&lt;br&gt;07.00 Uhr" style="edgeLabel;html=1;align=center;verticalAlign=middle;resizable=0;points=[];" vertex="1" connectable="0" parent="6pbGGfXBaGJGcjd1V0Mg-118">
          <mxGeometry x="0.1625" y="2" relative="1" as="geometry">
            <mxPoint x="-38" y="11" as="offset" />
          </mxGeometry>
        </mxCell>
        <mxCell id="6pbGGfXBaGJGcjd1V0Mg-123" value="&lt;p style=&quot;margin: 0px ; margin-top: 4px ; text-align: center ; text-decoration: underline&quot;&gt;&lt;strong&gt;&lt;strong&gt;SMS versenden&lt;/strong&gt;&lt;br&gt;&lt;/strong&gt;&lt;/p&gt;&lt;hr&gt;&lt;p style=&quot;margin: 0px ; margin-left: 8px&quot;&gt;&lt;br&gt;&lt;/p&gt;" style="verticalAlign=middle;align=center;overflow=fill;fontSize=12;fontFamily=Helvetica;html=1;rounded=1;fontStyle=1;strokeWidth=3;fillColor=#dae8fc;strokeColor=#6c8ebf;" vertex="1" parent="1">
          <mxGeometry x="332.5" y="200" width="107.5" height="110" as="geometry" />
        </mxCell>
        <mxCell id="6pbGGfXBaGJGcjd1V0Mg-129" value="" style="edgeStyle=elbowEdgeStyle;elbow=vertical;strokeColor=#990000;strokeWidth=2;startArrow=none;startFill=0;endArrow=classic;endFill=1;entryX=1;entryY=0.5;entryDx=0;entryDy=0;exitX=0;exitY=0.5;exitDx=0;exitDy=0;" edge="1" parent="1">
          <mxGeometry width="100" height="100" relative="1" as="geometry">
            <mxPoint x="340.0000000000002" y="409.58" as="sourcePoint" />
            <mxPoint x="220.00000000000023" y="409.1599999999999" as="targetPoint" />
          </mxGeometry>
        </mxCell>
        <mxCell id="6pbGGfXBaGJGcjd1V0Mg-130" value="publiziert direkt" style="edgeLabel;html=1;align=center;verticalAlign=middle;resizable=0;points=[];" vertex="1" connectable="0" parent="6pbGGfXBaGJGcjd1V0Mg-129">
          <mxGeometry x="0.2974" relative="1" as="geometry">
            <mxPoint x="14" y="10" as="offset" />
          </mxGeometry>
        </mxCell>
        <mxCell id="6pbGGfXBaGJGcjd1V0Mg-131" value="" style="shape=image;verticalLabelPosition=bottom;labelBackgroundColor=#ffffff;verticalAlign=top;aspect=fixed;imageAspect=0;image=data:image/png,iVBORw0KGgoAAAANSUhEUgAAAEoAAABHCAYAAACgTtGvAAAABHNCSVQICAgIfAhkiAAAABl0RVh0U29mdHdhcmUAZ25vbWUtc2NyZWVuc2hvdO8Dvz4AAAAldEVYdENyZWF0aW9uIFRpbWUARG8gMDkgU2VwIDIwMjEgMTA6MTA6MTJ5FPTSAAAD1ElEQVR4nO2bP2waVxyAvzgGggIuTqANRiLEg0mjkiEMXlNViocqkytV6tSha6dMmTp2abcOrdQhXTrVXdIlTAytUZGIJePaKpYoxcJn+zCmORB/jTvYTuLUEa/hHXeg90lIx9Pd7737ePfu3e8dF46Ojo5Q9GXC6gaMCkqUIEqUIEqUIEqUIEqUIEqUIEqUIEqUIEqUIEqUIEqUIEqUIEqUIEqUIEqUIEqUIGMtytBK/PgkT1I/HDjWpIT22JPOLl9+nyXRBJ7W+e5hjPgA4cajRxlVkr9lefDtH2ROy5oN9psn27UW5c5gVYxuj+q0+HOjxNLTEonNOjWAS9dYfN3+XcDx5tWNmKhDysUdfkmXeLxR4e9m/yNkMRKiWgcVkukiP6/ukan2LGmDfUV1GmSyRR6nd0hsNWhb3BybieqwnddYSpdIbPyD1rW6PS+whShD10mmt1haLbNWs+bS6ofpooyDGvvdc06+22O7qLGU1kjttC2/tPphrqiDPJ9/lWPN1EqGg8QJ5yHbuSKPfq9gnBY1Wy+2RxxJolos//QrH/2wzjcrz2jJCWor5IjS8ny9Yv0t3EykiGrpdTQZgWyMFFHtbm+sexNIEuWcnMApI5CNkSLKdeNt4raYupqHnMHcG+bhxyHeuyQlmi2R1g9mbsV4dOsm2wfgfx59ApesCixGcobTwcz0S9kx3xTBMbkkzU0FO9xEPKbWMDRM/r0vEwkA1VeK/SG++OAK7S2dZK5Mpty1/fTCZFEOItNuoHG2uDvB3O0Q0dshFj+EllElta6RzJZJbdXZt1Ee6hTTR5DItXNE1eoUGhB1H391eX3cnfdxd57jRYO/dkmt7pHYrJCzSX7KdFHegJsgnH3E6TZY02EhfM4BDhfRuTDRuTCfckhZq5Ba3SGZ0y3NW5l/Twq8xQylV54FWxTKHQj3Wz+6iD8Y4H4wwP0FoPGMzIbGk/UyqU1jqKli80V5PVz3QKb2cmGPglYHfP8vlnuK+J0p4neiQIdCfo/l7C6JXIW1qrnWhjDLuUx0GqidLd3X6xj48L5xXAeR2RCR2RCfAIZeYTnfYeZ1uw94pkNYUncR8f/3kbmtVylIrMUbuMLC/DtEnhf4uXfj2M7Vd4PEB1glhiGtwlyf9eBcqZwdiE/ufDG3WbV6WPzsfe4ZPbzeAS0xpJc0/LGbPIh5CXqcXD35BH2TOE0fjC9KkQRwQf0DVIzxeO1nCChRgihRgihRgihRgihRgihRgihRgihRgihRgihRgihRgihRgihRgihRgihRgihRgihRgihRgihRgvwLZw8ly9xhRqcAAAAASUVORK5CYII=;" vertex="1" parent="1">
          <mxGeometry x="355.25" y="230" width="62" height="59.49" as="geometry" />
        </mxCell>
        <mxCell id="6pbGGfXBaGJGcjd1V0Mg-134" value="" style="edgeStyle=elbowEdgeStyle;elbow=vertical;strokeColor=#990000;strokeWidth=2;exitX=0.476;exitY=-0.005;exitDx=0;exitDy=0;exitPerimeter=0;" edge="1" parent="1">
          <mxGeometry width="100" height="100" relative="1" as="geometry">
            <mxPoint x="384.6139999999999" y="379.9999999999999" as="sourcePoint" />
            <mxPoint x="385.3800000000002" y="311.39809523809515" as="targetPoint" />
          </mxGeometry>
        </mxCell>
        <mxCell id="6pbGGfXBaGJGcjd1V0Mg-135" value="publiziert direkt" style="edgeLabel;html=1;align=center;verticalAlign=middle;resizable=0;points=[];" vertex="1" connectable="0" parent="6pbGGfXBaGJGcjd1V0Mg-134">
          <mxGeometry x="0.1625" y="2" relative="1" as="geometry">
            <mxPoint x="-43" y="9" as="offset" />
          </mxGeometry>
        </mxCell>
        <mxCell id="6pbGGfXBaGJGcjd1V0Mg-137" value="" style="edgeStyle=elbowEdgeStyle;elbow=vertical;strokeColor=#990000;strokeWidth=2;startArrow=classic;startFill=1;endArrow=none;endFill=0;entryX=1;entryY=0.5;entryDx=0;entryDy=0;" edge="1" parent="1" target="6pbGGfXBaGJGcjd1V0Mg-123">
          <mxGeometry width="100" height="100" relative="1" as="geometry">
            <mxPoint x="609" y="255" as="sourcePoint" />
            <mxPoint x="437" y="257" as="targetPoint" />
          </mxGeometry>
        </mxCell>
        <mxCell id="6pbGGfXBaGJGcjd1V0Mg-138" value="SMS: Offener Dienst" style="edgeLabel;html=1;align=center;verticalAlign=middle;resizable=0;points=[];" vertex="1" connectable="0" parent="6pbGGfXBaGJGcjd1V0Mg-137">
          <mxGeometry x="0.2974" relative="1" as="geometry">
            <mxPoint x="14" y="10" as="offset" />
          </mxGeometry>
        </mxCell>
        <mxCell id="6pbGGfXBaGJGcjd1V0Mg-139" value="" style="edgeStyle=elbowEdgeStyle;elbow=vertical;strokeColor=#990000;strokeWidth=2;startArrow=none;startFill=0;endArrow=classic;endFill=1;exitX=0;exitY=0.5;exitDx=0;exitDy=0;" edge="1" parent="1">
          <mxGeometry width="100" height="100" relative="1" as="geometry">
            <mxPoint x="610.0000000000002" y="230.41999999999993" as="sourcePoint" />
            <mxPoint x="440" y="230" as="targetPoint" />
          </mxGeometry>
        </mxCell>
        <mxCell id="6pbGGfXBaGJGcjd1V0Mg-140" value="akzeptiert via Link in SMS" style="edgeLabel;html=1;align=center;verticalAlign=middle;resizable=0;points=[];" vertex="1" connectable="0" parent="6pbGGfXBaGJGcjd1V0Mg-139">
          <mxGeometry x="0.2974" relative="1" as="geometry">
            <mxPoint x="20" y="-10" as="offset" />
          </mxGeometry>
        </mxCell>
        <mxCell id="6pbGGfXBaGJGcjd1V0Mg-143" value="&lt;p style=&quot;margin: 0px ; margin-top: 4px ; text-align: center ; text-decoration: underline&quot;&gt;&lt;strong&gt;&lt;strong&gt;Ressource einplanen&lt;/strong&gt;&lt;br&gt;&lt;/strong&gt;&lt;/p&gt;&lt;hr&gt;&lt;p style=&quot;margin: 0px ; margin-left: 8px&quot;&gt;&lt;br&gt;&lt;/p&gt;" style="verticalAlign=middle;align=center;overflow=fill;fontSize=12;fontFamily=Helvetica;html=1;rounded=1;fontStyle=1;strokeWidth=3;fillColor=#dae8fc;strokeColor=#6c8ebf;" vertex="1" parent="1">
          <mxGeometry x="-20" y="355" width="240" height="110" as="geometry" />
        </mxCell>
        <mxCell id="6pbGGfXBaGJGcjd1V0Mg-145" value="" style="shape=image;verticalLabelPosition=bottom;labelBackgroundColor=#ffffff;verticalAlign=top;aspect=fixed;imageAspect=0;image=data:image/png,iVBORw0KGgoAAAANSUhEUgAAAeIAAAB+CAYAAAD4OhIvAAAABHNCSVQICAgIfAhkiAAAABl0RVh0U29mdHdhcmUAZ25vbWUtc2NyZWVuc2hvdO8Dvz4AAAAldEVYdENyZWF0aW9uIFRpbWUARG8gMDkgU2VwIDIwMjEgMTA6MzI6Mzfrgfk0AAAgAElEQVR4nOydd1RVR/ewHxAUFREFsb8WLNg19ypFUCxErGCPEWuQYEFILLEQRUWwRVBQ0aCi0WiURBGwomKJnWjsiY3Egg1ERQQEzvcH3z0/rpdysYRo5lmLtbhzZvaUM2f2zJ59zuhIkiQhEAgEAoGgWNAt7gIIBAKBQPBfRihigUAgEAiKEaGIBQKBQCAoRoQiFggEAoGgGNFaER89epQvvviCtm3bYmdnh7u7O6dPn9aIFxsby4ABA7C2tmb27NkAvHjxAm9vbzp16oStrS1//fXXu6vBOyQ2NhalUin/WVlZ0a9fP9asWcOrV6/keNevX0epVDJ16tRiLK1AIBAIPga0UsTbtm3Dy8uLBw8eMGDAAJycnLh58yZjxoxh165dcrwXL14wbdo0Hj58yLBhw3BwcAAgLCyM3bt307RpU1xdXalcufL7qc07wsrKikmTJjFq1CiMjY1Zvnw548ePJzMzEwBjY2NcXFxo167dP1amx48fo1QqGT169D+Wp0AgEAjeP3qFRUhOTua7777D1NSUjRs3Ur58eQCGDx/OZ599hr+/P23btsXIyIh79+6RkZFBp06dcHd3l2XcunULgEmTJlGjRo33VJV3R+PGjRk4cCAAI0eOxNfXl4iICDZv3oyLiwumpqZ4eXkVcykFAoFA8DFQ6Ir4xIkTpKWl0bt3b1kJA5iamtK3b19SU1M5ceIEP/74I4MGDQJg165dKJVKjh07hr29PbGxsQA4OzszfPhwADIzM1m2bBldunTBzs6O4cOHc+LECVm+i4sLXbp04cCBAzg5OWFra8vo0aO5d++eHKcgGampqSiVSqZMmcLKlSvp1KkTHTp0YM6cOaSnp2vdQDo6OowZMwaAvXv3AnmbppOSkpg2bRrt2rWjc+fOfPXVV9y+fRuAI0eOoFQqWbduHVOnTsXW1pZu3brx448/quW1efNmevfujY2NDU5OTqxevZrs7GxiYmJwdHQE4PTp0yiVSv744w+NsqpWzePGjdO6fgKBQCAoXgpVxA8fPgSgZs2aGtf+97//AfDgwQPatWvHV199BYBSqWTRokVYWFjg6+tLkyZNAJg2bRrjx48HYP78+axduxalUskXX3xBcnIyXl5e3LhxQ5afmJjIli1bcHNzo3///pw+fRo/Pz/5ujYy9u/fz6NHj5g8eTItWrQgIiKCTZs2FamRTExMKF++vNokIDcZGRmMGTOGgwcP0rdvX/r06UNcXBweHh5qSj80NBRzc3OmT59O6dKlWbx4MRcuXAAgKiqKRYsWYW5ujre3N/Xr12fFihVs2LCBFi1aMHPmTADq1avHokWLqF69ukY5SpUqRfv27WnRokWR6icQCASC4qNQ03R2djYAJUqU0Eysl5M8KyuLGjVqoFQqAahSpQr29vYA2Nrasm3bNiBn77VatWrcv3+f7du307JlS6ZPnw5A/fr18fT0ZO/evWr7oEuWLKFUqVIAHDhwgHPnzgEUKmPYsGEANGnSBG9vbwBatGhBjx49ZBlFoWTJkrx8+TLPa/v37+f69esMHz6ckSNHyu0WFhbG77//LscbMGAArq6u8vWZM2dy7tw5mjVrJq9w+/fvj6WlJfb29mzZsoUaNWpQqVIlrK2tAahQoYLctq9Trlw5vvvuuyLXTSAQCATFR6GKWFc3Z9GsclTKjSosLyVdENeuXUOSJM6dO6fh8JSQkKD2O7fscuXKcffuXTIyMrSWkTu9kZERkLPvXVQyMjLkicfrqJRoWFgYYWFhGmWpWLFivmV5+vQpAL169WLnzp14enqiUCho06YNXbp0oWrVqkUuq0AgEAg+HApVxGZmZgDyfmduVK8hqeJoi+rz1ra2tvKesYoKFSpolf5tZRSFpKQknj59SqNGjfItD4CrqytWVlZq12rWrMnly5fzla1KW79+fSIiIoiJieHUqVOsXbuWFStWMGfOHNn7XCAQCAQfH4UqYisrKwwMDNi+fTuDBg2SHbYeP37ML7/8QpkyZTSUT2HUr18fgPj4eJo2bSqvNDMzM/NddRZVRmpqapHKVBDLly8H4NNPPy2wLPfu3aNly5ZyeFHqs3btWpKSkpgwYQLOzs48fvwYR0dHfvrpJxwcHOTVtDijQyAQCD4uCtUSxsbGeHl5MW/ePAYPHoyDgwNZWVns2bOH5ORkfHx81LyptaFq1ap0796d6Oho3N3dsbe359GjR+zZs4eQkBBq16791jKKukrPzdWrVwkPDyclJYUTJ05w5swZFAoFn332WZ7xHRwcWLt2LTt37gSgQYMG3Lhxg99//50tW7ZolWdqaiqbNm3i+fPnWFlZcfHiRVkW5NyHMmXKcOnSJYKDgxkyZIhGuz9//hwfHx8sLCwYNWrUm1ZfIBAIBP8gWi3X+vXrR6VKlVi3bh1btmxBR0eHJk2aMGvWrCKvhlV4e3tjZmbGzp07CQoKomLFitjZ2VGuXLl/VEZeHDt2jGPHjqGnp0f16tVxd3dn6NCh6Ovr5xm/VKlSrFy5ksDAQI4cOcLevXupUaMG3bt31zrPL7/8EgMDAyIjI9m7dy8VK1bExcVFdlzT0dHhm2++YenSpWzZsoUuXbpoKOL09HQOHTpUpNezBAKBQFC86IjziAUCgUAgKD7EoQ8CgUAgEBQjQhELBAKBQFCMCEUsEAgEAkExIhSxQCAQCATFiFDEAoFAIBAUI0IRCwQCgUBQjAhFLBAIBAJBMSIUsUAgEAgExYhQxAKBQCAQFCNCEQsEAoFAUIwIRSwQCAQCQTEiFLFAIBAIBMWIUMQCgUAgEBQjQhELBAKBQFCMCEUsEAgEAkExIhSxQCAQCATFiFDEAoFAIBAUI0IRCwT/AdLT03nw4EFxF0Mg+M/w999/ax1XKGKB4CPn5cuXuLu7c/DgweIuikDwn8HHx4d169ZpFfeDUcRdu3ZFqVTKf/b29gwdOpSoqKh804SGhqJUKomLi8vz+pMnT/D19aV79+7Y2tri4uLC3r17tS7TuXPnUCqVrFq1Ks/rPXr0wMfHR2t5RWHz5s18+umnpKamArBy5UqUSuV7yett2b59u9q9UyqV2NraMnz4cGJiYgpN/3pdPzZ27tyJUqnk3r1770X+7NmzKVu2LAMGDADA29tb436o/grrr7t376ZDhw48fvwYSZLo3bs3K1aseOu6PHnyBB8fHzp37kzbtm357LPPiIyMVIuTlZXFqlWr6NWrF1ZWVjg5OREcHExaWlqBsjMzM1m+fDndunXDysqK/v37s3PnTo14GzdupFevXtjY2PDZZ59x4MCBQst99epVxo0bh52dHfb29nz55Zf8/vvvb5T/vn37+Pzzz7G2tsbR0ZHp06dz//59jXhpaWlERUXh5uZW4Pinbf6RkZH59gelUsnixYvzlX358mW+/PJLbGxssLe3Z/r06Tx+/FgtTmJiIt7e3tjb22NjY4ObmxsXL14stNzaoG1bXL16lSlTpuDo6MigQYMKlfsu6uXr68vatWs5fPhwofnpFRrjX0SzZs0YNmwYAC9evGDfvn34+PiQmZmJs7OzRvzo6Gggp6MpFAq1a69evWLcuHE8e/YMNzc3TExMiI2NZdq0aZQsWRJ7e/tCy6O68dHR0YwaNQodHZ0i1yk5OZnOnTszZcoU+vXrp3U6c3Nz7OzsKFWqVJHzLC6mTp1K1apVAUhKSmL37t1MmTKFGTNm0KtXr3zTvY+6xsTEMGXKFMLDw6ldu/Y7k/tv49dff+XQoUP88ssv6Or+37y7bNmy+Pv7a8Q3MzMrUF6NGjVo164dZcuWRUdHh7Zt29KoUaO3KmN2djZfffUVCQkJuLu7U7lyZfbs2cOsWbPQ0dGhR48eAAQHB7Np0yaGDx9O06ZNuXz5MqtXryYxMZGZM2fmK3/x4sX88ssvuLq6YmFhQUxMDDNmzEBfXx8HBwcgZ7IYEBDA4MGDadWqFVFRUXzzzTcsWbIEGxubPOU+fvwYd3d3/ve//+Ht7Y2enh5hYWGMGTOGjRs3yv1Km/yPHj3K1KlTcXR0xM3NjSdPnrB8+XLGjRvHxo0bKVWqFKmpqQQEBLB3717S0tLIysqiZ8+ehbZvYfm3bduW0NBQjXR///03s2fPzrf+CQkJfPnll5ibmzN37lxSUlIIDg6Wy1yiRAmysrIYN24ciYmJfP3115QrV47169fj7u7OTz/9RPXq1Qstf14UpS1OnTrF+PHjqV+/PsOGDaNu3boFyn5X9apWrRpffPEFfn5+tGnTBgMDg/wzlT4QHB0dpUmTJqmFZWZmSl27dpU8PDw04p89e1ZSKBSSp6enZGtrK6WmpqpdP3HihKRQKKTTp0+rhffp00f65ptvCi3Py5cvpXbt2kmenp6SQqGQ4uLiNOJ0795dmjlzZoFynjx5IikUCmnr1q2F5lkQISEhkkKheCsZ74tt27ZJCoVCunbtmlp4VlaWNGjQIKl79+55psvMzHxvZdq3b5+kUCikW7duvbc8tCU6OlpSKBTS3bt337nsL774QvLz81MLmz59utSxY8ciycnKytIq3pvU5ejRo5JCoZBOnDghh2VnZ0sDBgyQRo0aJUmSJD1//lxq06aNtGzZMrW08+bNkywtLaWMjIw8Zb948UKytraWgoKC1MJHjhwpDR8+XP7dvXt36dtvv5V/q/rmsGHD8i33kiVLJDs7O+np06dy2KNHj6TWrVtLISEhRcp/6NCh0siRI9XiqPqoaoy6d++eNHToUGnr1q3StWvXJIVCIe3YsSPf8hUl/7zw8/OT+vbtK2VnZ+d5ffny5ZKNjY1a/Y8fPy4pFArp+PHjkiRJ0smTJyWFQiEdO3ZMjvPs2TOpbdu2GmUqCtq2RUpKimRvby/NnDlT6z78LuuVmpoqtW3bttDx/YMxTedFiRIlMDAwQJIkjWtRUVGYmpoyceJEXr58yf79+9Wut2jRgt27d/PJJ5+ohZcpU6ZQUxdAbGwsL168wMvLi6pVq2qY0VSkp6fj7+9Px44dsbW1ZeLEiSQmJgIwefJkOnfuDMC8efNQKpWkp6cDkJKSgr+/P507d8bW1hYPDw9u374tyy3MFO3t7U3fvn3Vwo4dO4ZSqeTChQvA/5kRY2JiGDJkCNbW1jg5OREREaGW7ubNm7i5uWFtbU3Xrl1Zs2YNbm5ueHt7F9pOBaGrq0ubNm24f/8+aWlpcnnCwsLo2rUrAwcO1KhrbGwsSqWSy5cvq8lyd3fH1dUVyDFXBQcH4+TkhI2NDc7Ozqxfv16O26lTJ6ZMmQJAv379GD58OC9fvsTKyoqwsDA53pMnT2jdujWbN2+WwxITE1EqlbI1JCEhAW9vbxwdHbG1tWXIkCEcOXJErWxpaWl89913chwXFxcOHTqk0R5Xr17F1dUVGxubPO9DYX3idRISEjh37hyffvppvnHyw9nZmUmTJuHp6YmVlRX79u2Ttxhym+jS09Ple1aUuryOo6MjrVq1kn/r6OhQp04dnj17BsCzZ89wcHCgU6dOaunMzc3JzMzk5cuXecq9ceMGGRkZtGnTRi28TZs2XL16lezsbBITE7l//z62trbydV1dXbp168bFixdJSUnJU3bFihX5/PPPMTIyksNMTU0pX748z58/1zp/gPr169O/f3+NugGyrKpVq7Ju3Tr69etHuXLl8izTm9Q/L5KTk4mKimLQoEGypW/t2rU4ODjI7XHp0iUaNWqkVn+lUkmJEiW4dOkSkGPi1dHRURurypUrR+PGjTWe4aKgbVtERkaSlZXFpEmT0NXVzVNXvM96lS5dGjs7O3bv3l1gfT4oRZydnU16ejrp6ek8evSI4OBgbt++Le99qUhPTycmJobOnTtTo0YNGjdurLF/YGBggKmpKbq6umRmZpKcnMwPP/zAn3/+yeDBgwstS1RUFPXq1aN27dp07tyZmJiYPAeDffv28ezZM2bMmMHo0aM5efIk06ZNA2DSpEmsXbsWADc3N8LDwylZsiSZmZmMHTuW2NhYPD098fHxISEhAU9Pz3wfnLdh8eLFjB49mk2bNqFQKPD19eX69etATluOHTuWO3fuMHnyZCZOnMiRI0c4e/bsO8n77t27GBgYqJmdw8PDcXV1ZeLEiRrx27Zti6Ghodr+3bNnzzh79ixdunQBcvZmIiIiGDFiBEFBQfTt25dly5bx888/AxAWFibLXrJkCf7+/pQuXZqWLVty5swZWe7Ro0eRJElNsf72228AWFlZkZmZiZubG3/99RfffPMNAQEBNGjQgEmTJsntB+Dn58eOHTsYMWIECxcuxMLCggkTJnDixAm1uvn6+tKxY0f8/PyoXr262n14kz5x8uRJAJo0aVLYbciTgwcPUqlSJebOnUuLFi2KlLagurxO27Zt8fX1pWTJknJYZmYm58+flyfK1apVw9fXl4YNG6qljYuLw9zcXG3QzM2TJ08AqFChglp4hQoVePXqFSkpKbKi09fXV4uj2kZ59OhRnrJdXFxwd3dXC7t16xZPnjyRJxXa5A/Ik7nX66anp0ezZs3yzF8btM3/dbZu3UqpUqXo3r27HGZmZoa5ubncTsnJyRgbG6ul09PTo1y5cnK+T548wdDQUKNtK1SoQFJS0hvXS1vi4uJo2LAh/v7+2NraYmNjg4eHh9re+/uuV/Pmzbl48WK+k0X4wPaIY2Njadu2rVqYq6srdnZ2amEHDx4kJSVFXm06ODiwZMkSEhIS5IdLxePHj9UeAG9vb1q3bl1gOR4+fMjJkyflh9DBwYEffviBAwcOqHVcyFl5z507V96fK1u2LL6+vly6dIkmTZrIN7JixYryntLu3bu5dOkSISEh8oyrZs2aDB48mMOHD2u1f10U5syZI++hjx8/nh07dnDu3Dnq1atHdHQ0jx49Yv369TRu3BgAS0vLPPfkCyM9PV12uHr69Cn79+/n4MGDODs7q+2v+/n50bx58zxl6Ovr06lTJw4cOMC4ceMAZEWput99+/bF1dVVbk+FQsHRo0f59ddf6du3LzVr1sTU1BSA6tWry33CxsaGVatWkZmZiZ6eHocOHcLCwoK4uDhSUlIwNDQkLi6OBg0aYGpqSlpaGt7e3tSrVw8TExMAeX/x5MmT1KtXj/j4eHbt2oW3tzdOTk4AWFtbc/PmTX766SesrKzkunl7e9OxY0cAGjVqRPfu3eX78CZ9Ij4+HlNT03z3pl53ftPV1VWLa2Vl9cZWj4Lqog2rVq0iJSWFoUOH5hvnxIkT7Nu3j0WLFuUbJyMjA0DDf0P1PGZkZFClShX09fU5d+4cHTp0kOM8fPgQIM9VVF5kZWXh7++PhYWFfD+0yT8vHj9+TEhICP369ZP76pvwJvlnZGSwZcsWevfurdYfunfvrja+ZWRkqPkd5JatkltQnFevXuVZ5szMTLKysuTfJUuWfCP/G8h5Bm7duoWNjQ3z58/nyZMnBAYG4uXlxY8//oiuru57r1edOnXIzMzkzp071K9fP89yflCKWKlUMnbsWCBnUD916hSrV6/G1NRUzdEpKioKMzMzeRavUsTR0dGy+VKFsbEx69ev5+nTp0RHR+Pn50elSpU0FH5udu7ciSRJsqNF48aNqV69OpGRkRqKuGbNmmo3rF27dgD88ccf+a5UTpw4QYUKFWjZsiWZmZlAjpmqQoUKXL58+Z0r4tyTE9VMUDWru3z5MlWqVJGVMIChoSGGhoZFzkflaKdCT0+PgQMH4uHhoRZe2MDj6OhIREQE169fp169esTGxtK6dWt51t+sWTO2bduGj48Pd+/e5eXLl2RkZBS6srCxsWHp0qWyaerkyZMsXLiQ6dOnc+LECTp37sxvv/0m30MDAwMaNmzI+vXrOXbsGPfv35cHkadPnwJw/vx5JEnC2tpaLa+FCxdqbIFYWFjI/1euXBn4v/vwJn0iOTk53/v09OlTuR4q6taty5YtW+Tfb6MACqpLYcTExLBmzRp8fX2pUqVKnnH++usvpk2bRu/evd/qedDR0cHAwIBPP/2U8PBwmjdvjkKh4NixYyxbtgzQXE3mx6JFi/jzzz8JCwujRIkSWuf/OmlpaXz99deYmZnJk833RV75R0dH8+zZMw1T+dvK1TbON998o7Z1ExoaSsuWLd+oHM+ePaNFixYEBgbK47CBgQFTpkwhLi6u0EWXtmUuKI7qGVSNCXnxQSliIyMjtcFUqVRy584deeYIOWakU6dO0adPH9kUYGRkhIWFBVFRURqKWE9PT1Yy1tbW3Lt3j++//75ARRwVFYW5uTmmpqbyqqJdu3Zs2rSJ+/fv5zt4wP8pOtU+cV4kJiby5MkTtdWSCtUs/X2jWgUkJia+1YCcm1mzZslekuXLl6datWpv5AmtUCgwNTXl4MGD1KxZk+PHj8t7vpBjFo2NjcXLy4vGjRtTunRpZs2aVejKpl69elSqVIkzZ87w4sULSpQogVKpxM7OjiNHjqBUKrl58ybffPMNkDMr/uKLL9DX18fd3Z1atWqhp6enNoCp7lelSpXU8lKtoAsj930oap9QrezzwtDQkMDAQLWwAr063wHarCx/++03vv32W9zc3DRMtSoeP36Mh4cHjRo1ku9FfqjM3blXWLl/q65PmjSJBw8eyPJq1qxJv3792Lx5M+XLly+03GFhYWzbto3AwEA1L3xt888dPmXKFBITE1mzZs1b35Oi5i9JEhs3bqRDhw4FjmOqtK/LVclWWfq0ifM6X331FV988YX8+23eapAkiQYNGqgthlST4j///DNPRfyu66X6rfL/yYsPShHnRZ06ddi7dy/Pnj3DyMiI6OhosrOzCQ8PJzw8XCP+uXPnaNmyJdeuXePSpUv07NlTbfbaoEGDAt8lvnjxIvHx8QAaKwogT2WfG9UeQ0HKrUyZMtSoUQM/Pz+Na9oMCkC+jglFxcTEJN+9vaLSsGFDrU2TBaGrq4uDgwP79++nYcOGZGVlyaui1NRUdu7cyejRo9XM5wYGBgXu0aiwtrbmzJkzPHr0CBsbG/T09LC3t8fX1xc7OzvKlCkjW1pOnz7NX3/9xZo1a9RM6blnxKrXgd52QvMmfcLIyChfx8MSJUoUeZXxpuZBbblx4wZff/01vXr1ws3NLc84L168wNPTk/Lly7Nw4cJ8JxoqKlasCGhOfBMTEylZsiRly5YFciYmISEh3Lt3j9TUVOrWrYufnx9NmzbN0wSZm507d7Js2TLmzJmjMVHSNn8V/v7+nD9/ntWrV8uWhLehqPkfPXqU+Ph4vv32W61kvy43IyODZ8+eyflWrFiRlJQU0tLS1CYViYmJcpzXqVGjRuEV05JKlSrl+S425DhS5cW7rpfqGSxo7P6gnLXy4sKFC5QtW1Ze/kdHR1OnTh1CQ0PV/pYvX46+vr7s3fznn3/i6+vL1atX1eRdv35dYx85N1FRUZQoUYKgoCCNPBo0aKDhFBYfH682c4qNjQWQ373Ma3Br1aoVCQkJlClThsaNG8t/ZmZmWr93Z2JiQlJSklre+TmdFETTpk1JSEhQa6e0tDTZwaW4cHR05Pr162zcuBFbW1v5/mdlZZGdna1W75SUFG7duqWWXjW4vj5ZsbGx4fz58xw6dEieaFlZWZGWlkZYWBht2rSRB3/VXlBuZ6krV66o7RGpFPSpU6fU8pk6darstKcNb9InKlWq9Eb3PD9Uq/jcK/B3Jf/Bgwd4eHjQpk2bfFe5mZmZTJ48mZcvX7J06VLKlClTqNx69ephYGDAsWPH1MJPnTpF48aNNZRstWrVqFevHn/88QfR0dEabx68zokTJ5g9ezYTJkzIcwVflPxXrlzJ7t27CQwMpE6dOoXWTRuKWv8NGzbQuHFjrZzzmjVrxtWrV9W2HE6fPo0kSTRt2lSOA6g5Jj579owrV67Icd4n1tbWnDp1Ss3TX1WW3NsnuXnX9VI9LwVNxD+oFXFSUpLcoV6+fMnhw4c5duwYrq6u6OrqcunSJW7dusXEiRPznO137NiRmJgYJk2aRIcOHQgJCWH69Om4urpSsWJFYmNjOXfuHL6+vnnmn5GRwZ49e2jXrp3Gnh/kvArj5+cnr7ohZ2CePHky3bp14+7du6xatQpLS0u5ExgZGWFgYEBMTAxGRkZ06NCBPn36sG3bNsaNG4ebmxvVq1fnwoULrFq1ioCAACwtLQttK0tLS3744QfmzJmDvb09N2/elD20i0K3bt0IDQ1lwoQJjBw5EkNDQ3766Se1/Y4LFy4wYsSIt9rLKSpNmjShZs2axMXFMW/ePDm8XLlytGzZkg0bNlC2bFlKly7Npk2bePDggdprDqrVxk8//YS9vb28krG0tOTVq1ckJSXJ2xMGBgZYWlpy6NAhevfuLcto2bIl5cqVw8/Pj6FDh5KYmCi/JqXasqhduzaOjo4sXLiQFy9eULNmTQ4fPsy+ffsICAjQur5v0idatWpFeno6t2/fpmbNmlrnlR9NmzalbNmyLFiwABcXF549e6b2WtibkpKSwvjx49HV1aVfv36cP39e7XqNGjUwNTVl9uzZxMXFMWPGDP766y/++usvOY6xsTG1a9fm6NGjbNiwgYULF1KuXDkMDAzo168fGzduxNDQkKZNmxITE8PFixeZP3++Wj43b97k8uXLnD9/np07d9KxY0e6du0qX39d9h9//MHkyZNp3bo1FhYWnDt3Tk2ehYWF1vlv376d77//nuHDh5Odna0mS09P742VVlHqf+XKFeLi4pgzZ06esnbv3k1UVBQBAQHo6+vj5OTExo0b8fDwYOTIkaSmphIUFET9+vVl589WrVrRuHFjZs+eTXJyMuXLl2fdunWUKFHijRw+i4qLiwuRkZGMHj2aUaNG8fz5c5YvX46NjY28Jfm+63X9+nWqVKlSoKn/g1LE586dY/z48UBOB1N90UbljRoVFaXhcp+bPn36sGfPHg4cOEC3bt1Yu3YtISEhLNXYqGIAACAASURBVF++nOfPn2Nubs7ixYvzNDkDHD58mOfPn9OnT588rzs6OhIYGEhkZKSskPr3709mZiZz584lIyMDa2trpk6dKqfR0dFhwoQJBAUFMX/+fGxsbDA0NGTVqlUEBQWxZMkSUlNTqVWrFt7e3lopYchZxXl5ebF582Z2795Nw4YNcXNzY8mSJVqlV1GyZEmCg4OZN28eixYtonz58vTv359Hjx7JK0OV6eV97zG+TpcuXeQVcW78/PyYP38+ISEhlCpVin79+tGhQweOHj0q75s2adIEZ2dnoqKiiI+PlxVxuXLlaNasGfr6+mqK297enkOHDql9ZcjY2JjAwEAWL16Mv78/lStXZtq0aURGRqp5JHt7exMcHExoaCgpKSmYm5sTGBioUe6CKFOmTJH7RNOmTTE2NubXX3/ls88+0zqv/DA2Nmb+/PkEBgby7bffUrlyZYYNG8aCBQveSu6lS5e4ceMGAGPGjNG4PmXKFJydneXPMs6YMUMjjoODA/7+/jx+/Jj4+HhevHgh3z8PDw9Kly5NREQEYWFh1KhRg9mzZ2u8kxwdHU1ERAR169Zl0qRJGl97e132/v37SU1N5fjx4xw/flyjTKqvtmmTv8pSFxYWpvFOdsWKFYv06d3X0bb+GzZswNTUVHZCfZ0HDx4QHx9Peno6+vr6mJmZsXLlSgICAvj2228pWbIkbdu25euvv5a3+3R0dFi6dCmLFy9myZIlpKen07RpU0JCQgq0PL4rjI2NWblyJd999x2+vr7o6urSvn17JkyY8I/V6/jx44U+6zrSu9hIFHzUqPbfVTx9+pRPP/0UV1dXRo0aRWhoKBs3bmTv3r35OmAIioeQkBBiYmLYsmVLoXudAoHg3XL58mWGDh1a6Kd0xZMpKJDk5GScnJwIDAyU39scP348pUuXllcMsbGxjBkzRijhfyEuLi6kpqbKHzMRCAT/DJIkERgYSN++fQv1/BYrYkGh/Pbbb6xZs4bz589TsmRJWrZsiYeHB7Vq1QLQ8BwU/Ls4c+YMkyZNIjg4+I2/siUQCIrGihUrOHLkCKGhoYU6FgpFLBD8Bzh58iSpqalqX44SCATvj5CQEAYOHKjVB2GEIhYIBAKBoBgRe8QCgUAgEBQjQhELBAKBQFCMCEUsEAgEAkExIhSxQCAQCATFiFDEAiDnZJAHDx4UdzEEubhz506eJ7wIBIKPC6GIBbx8+RJ3d3cOHjxY3EUR5GL79u1MmjRJPn9YIBB8nHwwirhr164olUr5r0OHDgwfPpzdu3e/k+P+/svMnj2bsmXLMmDAAK3TTJ48Wf7utzbs3LkTpVLJvXv33qSI/xrOnDmDUqnkzJkz7z0vd3d3Hj16RHBw8HvPKy9Gjx6NnZ2dVsdH5kVkZOQHcc/d3NzyPXZRhbZ1iYqKYujQodja2mJra8uwYcPYs2ePWpwrV67Qrl07jUMi3geqcfPQoUP5xtmyZQtKpZLhw4e/9/JAzuE53bp10/im9n+ZD+rQh5YtWzJy5Egg5/vHsbGxeHt7c/fuXbWDpAXa8+uvv3Lo0CF++eWXIn2L+JNPPlE77u9dMWDAAMzNzfH393/nsv/tzJ8/n/3798sf+NfT02Pq1KkMHz4cR0fHfI9tex/cv3+fM2fOIEkS+/fvp0ePHv9Y3h8qK1asYPXq1Tg6OjJ48GAyMjKIiYlh+vTpvHr1Sm7DChUq0L59+7c6n7qobNu2jfbt2+d5bfv27f9YOQD09fVp27YtDRo0+Efz/TfzQSniihUrqp1+4+joyNixY/nhhx8YMWLER/FR+6ysLPmEj3+CtWvX0rNnzwKP6MqLd3Gaz7+F7OxsdHR03vvB929C48aNadWqFevWrSvy5ESSJHmPWXVSlrZER0dTqlQpGjduTFRU1L9KEf/Tz4g23Lp1izVr1jBgwAAmT54sh/fs2RMPDw8WLVqEo6Mjenp6VKlSJd+jBt8HJiYmHDt2jAcPHsjHf6q4dOkSf/75p8Zh9u8L1b2bPn36P5Lfh8IHr7k++eQTUlJS1M7HPXr0KEOGDMHGxoaePXuyYcMGtTR3795l8uTJdOrUCXt7e8aNG8e1a9fU4oSHh9OvXz/atm2Ls7Mza9asUXOcycrKIjQ0lJ49e2JlZUXv3r3ZuHGjmoyuXbvi5+enFhYUFKR2lvGcOXNwdnZm8eLFtG/fXj4jNC0tje+++w5HR0dsbW1xcXHRMC/Fx8fj5eWFnZ0dnTp1Yu7cuWpmRA8PD8aOHZtv2yUkJHDu3Dk+/fRTOezBgwcolUo2bNjAV199ha2tLQ4ODixatEhtrzIvc154eDh9+/bF2toaZ2dnwsLCNJyNrl69iqurKzY2Njg5OREREQHknAusVCq5efMm+/btQ6lUahxmDrBo0SLs7e3VypKeno6trS0rVqyQwwrqA6o6BgQE8Nlnn2FpaUliYiI+Pj64uLiwevVqnJ2dsbGxYdiwYVy8eDHfNgQ4e/Ys7u7udOjQgQ4dOuDp6cmtW7fk6yqzfExMDEOGDMHa2lqt7tevX0epVLJ161aSkpJQKpUEBQXJ6R0cHDh48KB83KS2PHz4kH79+mFlZcXcuXOLtIUTHR1Nu3bt6NmzJ2fOnCEhIUEjjiRJbNiwAScnJ6ytrfn888/VDkpXcfr0aT7//HOsrKxwdnaWj/zTVo6q/cLCwujatSsDBw4Ecp6RgIAAunfvjq2tLYMHD9bwc0hOTmbWrFl07txZvp95HVn4OqqVrbW1Ne7u7sTHxxcYX7VFNnToUI1r7u7u9OjRg8TERCDv7Y237UMFYW9vT8mSJfOMu23bNkxNTfnkk080rkVERDBo0CBsbW1xdHTEz8+P58+fy9e9vb3p27evWppjx46hVCq5cOECkP/4plQqWblypZxOm/EuJSUFf39/OnfujK2tLR4eHty+fbvQ+n8IfPCK+NatW5QqVUo+pi82NhYvLy/Mzc1ZsGABXbp0ITAwUD7LNDs7Gw8PD+Lj4/H29sbHx4fExETGjh3Ls2fPgJxOP2/ePDp16sR3331Ht27dWL58OevWrZPz9ff35/vvv6dXr14sWrSI9u3bExAQwLJly4pchzt37nDlyhWmTp0qHzzv5+fHjh07GDFiBAsXLsTCwoIJEybIA1RCQgIjRowgOTmZOXPmMGbMGHbv3s2iRYtkubVq1aJOnTr55nvy5EmAPA8CCA4OxtbWlo0bN+Lm5sbmzZsLNGFFREQwb9487OzsCAgIwNnZmZUrV6o9bAC+vr507NgRPz8/qlevjq+vL9evX6dbt26Eh4dTs2ZN2rZtS3h4OK1atdLIx9HRkZSUFE6fPq1Wj7S0NLp06QIU3gdUbN26FQcHB+bPny+fXXv16lXu3LnDd999R1BQEOnp6YwbN46UlJQ86339+nXGjBmDiYkJ/v7+zJkzh5SUFDw8PMjIyFCLu3jxYkaPHs2mTZtQKBRy3WvVqkV4eDiOjo4YGxsTHh6Oi4uLnK558+ZkZmYWeU+xcuXKhISEUL16dbZt24a/v79Wyvj8+fP8/fffODg4YG9vj56eHlFRURrxAgICCA4OplevXixYsICqVavi5eXFnTt31OIFBwfTp08ffH19qV27NrNmzSIuLq7IcsLDw3F1dWXixIkALFy4kO3btzNq1CgWLlxIzZo1mTx5stxO6enpuLu7c+zYMcaOHYufnx8mJiZ4enrmOclTsXnzZlasWIGNjQ3+/v5YWlqyefPmAtvs2rVrVKxYMU/LUpMmTZg4caLGalTFu+hDBaGvr0/nzp2JiIggOztbDk9NTWXPnj04OTlpOARu376duXPn0rFjRwIDA/H09OTw4cNvtGWU1/j2OoWNd5mZmYwdO5bY2Fg8PT3x8fEhISEBT09PtTp9sEhF4FVmVlGiv7O0kiRJjo6O0oQJE6QXL15IL168kBISEqT169dLSqVSCgwMlCRJkrKzs6VevXpJo0aNUkv79ddfS4MGDZIkSZLu3LkjKRQKKTIyUr5+48YNyd3dXbp48aIkSZI0Y8YMqWfPnmoyli5dKs2fP1+SJEm6efOmpFAopLVr16rFWbBggWRpaSk9fvxYLvPcuXM15FhZWcm/Z8+eLbVv3156+fKlHHbr1i1JqVRK27dvV0s7YsQIycvLS5IkSZo5c6Zkb28vJScny9c3btwoWVpaSomJiQU1pUxAQIDUpUsXtbD79+9LCoVCWrlypVp4//79pSlTpsi/R40aJbdzVlaW1K1bN+nbb79VSxMUFCS1b99eysrKkqKjoyWFQiHt379fI6+tW7fmm09eODk5Sb6+vvLvWbNmSQMHDpQkSbs+oMp3zZo1anFmzpwpffrpp1JW1v/11fj4eEmhUEg//PCDJEmSdPr0aUmhUEinT5+WJEmSHjx4IJ04cULKyMiQ05w5c0ZSKBTSlStXJEmS5LqfOXNGjvPkyRONus+bN09ycHDQqO+rV68khUIhbdq0Kd82UT0Xef3dvHlT6tq1q6RQKCQ/Pz8pOzs7XzmSJEm+vr6SnZ2dlJaWJkmSJHl6ekpOTk5qce7evSspFAopJCREDsvIyJA6d+4sLVq0SJIkSdqxY4ekUCik48ePq9WlR48ekqenp9ZyVO33+++/q5Whe/fuko+Pj/w7MzNT8vT0lLZt2yZJkiRt3bpVUigU0oULF+Q4WVlZ0qBBg+T+IkmafblLly5y+VSEhYVJCoVCunv3bp5t5urqKvcvFenp6VJaWpr8p+pX77MPvY6jo6Pk6+sr/f7775JCoZCOHDkiX9u2bZukVCqle/fuSR4eHtKwYcPka9euXdNo75UrV0rt2rWTf0+fPl3q06ePWpxff/1VUigU0vnz5yVJynt8kyRJ7Z5rM95FRkaqtZkkSdLVq1clhUIhHTx4MN/6fyhotXG047e7/Hj0Fk9TX/HoefobKXwzo1IYlSnJENs6dG9V7Y1kxMbG0q5dO/m3rq4uQ4YMkc2vt2/f5u7du7i4uKjN8CwtLVmwYAGvXr2iSpUq1KhRg9WrV5OdnY2NjQ1169ZVM2u2bt2a6Oho5s2bh6OjI82aNcPDw0O+rlpJduvWTa183bt356effuLs2bN07txZ63oZGhqqHSN4/vx5JElSM2FDzgpAZZ48ceIElpaWlC1bVq5rmzZtyMzM5Nq1a1haWhaYZ8+ePWVzo1Kp1Li+atUqVq1apRamMhvnJnfanTt3aqw6VeVSkXv/TMW8efOYN29egfm8zp07d9i2bVu+Zbl7926e9codtmzZsjwtGLnLqyIwMJDAwED5t7u7e4HlA9RWtQBffvmlRpzX6/56GXOzaNGiPC0Tz58/1/pUpZ9//hkdHR2mTJmS5/X09HT27dtHu3btKFWqFACdO3fGx8eHs2fPylYK1TPQuXNnuf/p6OigUCi4fPmymsz//e9/8v96enq0bduW2NjYIst53blJqVSyf/9+atWqRfv27alTp47aPTp58iQ1atSgadOmcpiuri5du3ZlyZIlPHnyRONknIcPH/L48WM6deqkFq7NHqr0mrXB1tZWbbW2dOlSNR8XFWZmZqSkpDBr1iwuXbpEYmKivKWTe8sNoGrVqvL/xsbGACQlJRVYroyMDJo3b465uTnbtm3D1tYWgF9++QUrKyuqVq2qsfKuV68ex44dY9y4cdy6dYtnz57x6tUrMjMzyczMLJLPwevj2+toO95VqFCBli1byv3E3NycChUqcPnyZezt7bUuz7+RQlsz8rd7LIq6TGr6231Y4OGzdB4+S2f+jksAb6SMFQoFo0ePBnK8fdeuXYuDg4PsuKHqkPPnz5f3InLz6NEjqlWrRmhoKGvXrmXZsmXMnj2bZs2a4e7uLiuvHj16ULp0aTZt2oSbmxuGhob06NFD/j85ORnQHBjMzMwA5OtvysOHDwGoVKmSWriJiYn8f1JSEjExMcTExOSbviAiIyPx9vbm+vXrama3Bw8e0L17d2bOnEnPnj3lcNV+sEo55/597tw5XF1dWblyJQqFIs/8du7cyYwZM9ixYwfVqv3fvVcqlYwaNUpWUtp4TcfHx9OvXz9WrVqFjo4Oo0aNkuWqypIfO3bsoESJEnnW0cfHhzNnzmiYYUeOHEnp0qVZtmwZZ86cwd3dnZCQEHlPe+jQoVhZWfHZZ59RqVIlrl27xpQpU1i2bBmWlpZa1/11r+nc2Nvb06dPnzxfGdPR0dHoK6/z/PlzeVCrWbNmvvEOHTpESkoKtra2pKamAjkTWT09PSIjI2VFrNrvVO3X5qYwx78KFSqQmJiIJElvJWfatGnUrVuXyMhIgoODqV69OoMHD5Zfw0tOTs6zXVRhycnJGor48ePHgPqzpg3ly5fXMBGvWbMGSZK4dOmS2pbR6+TuQ9OnT1frQ9rw+gTgdVRvN/Tu3ZuAgAAeP35MUlISly9fZsGCBQAapunIyEhmzZrFyJEjGT16NEZGRvz8888a/jbvAm3Gu8TERJ48eYKVlVW+6T9kClXEG47efGslnJvUjCx+OHLzjRRx+fLladmyJZCz77Jr1y6WLl0qr2ZLly4N5DgptW7dWiO9SnGampoyadIkJk6cyPXr1wkLC2P8+PGsW7dOfkWkU6dOdOrUiZSUFI4ePcrChQu5f/8+CxYskGeiiYmJap1H9RCrruvq6r7RO84qhZ6YmJjvKw5lypTBysoqT+eQ3IN9QRgZGRXZASgvVG3w6NGjt5alDbVr16ZBgwYcOHCAEiVK0KxZM7nO2vSBJ0+eFCm/R48e5enMAshKe968efIqQeVr8C5JS0uT/SBex9DQkF27duWb9sqVK/IE1svLi8GDB+cbV+VI5e3trXEtJiaGyZMnY2BgIB90vnz5cgwNDdXi6evrF1iXpKQkTExM0NHReSs5JUuWZOjQoQwdOpT79++za9cuFixYgCRJDBw4kPLly3Pjxg2NdK8/p7lRPW+FrTJfx8LCgtjYWG7cuIG5uTmAvBJXTWjy4333IdUY1K1bN4KCgoiIiODx48eYmJjIFsbXx6nw8HCsrKwYM2aMHPZ6e73p+PY62o53NWrU0HB+hRy98KFTqLPWs9R3/67o09RXZGa93Qa7vr4+7u7unD59Wt7QNzc3lx++xo0by38NGjSgWrVqlCxZkpiYGJydnXnw4AE6OjrUr1+fCRMmkJWVxZUrVwBwdXVlyZIlQM4g5+joiIODA+fPnwf+z3S5e/dutTLt3LkTPT09edVgYmKioZy0UVbNmzcH4NSpU2rhU6dOZdq0aQC0atWKq1evUq9ePbW6VqpUKc8BJi8qVar0TpRn1apVMTMzU3Ogghynl7wcQQpC24fb0dGRgwcPcujQIdlJC7TrAwWRlpam9n701atXSUhIoFGjRnnGV5n0cpsgVf2kqORX96SkJDIzMwtd9ebFlStXGDNmDCkpKXh5eWmYy3Pz+PFjTp48iaOjI6GhoWp/EydOJDU1lQMHDgDIE5OEhAS1dq5WrRq1a9dWk3vz5k35/8zMTI4ePUrjxo2LLCc39+/fx9nZmf379wM5q+cRI0ZQu3Zt2WPXysqK27dvc+nSJTmdJEns3r2bevXq5Xlge+XKlalUqZIsN3fbFESPHj3Q09MjKChIw3mosP78LvtQQRgZGdGpUye2bdvGrl276NmzZ74m5oyMDLU3HiRJkttVhYmJCUlJSWrx3mQ80Xa8S0hIoEyZMmr9xMzMjOrVqxc5z38bha6I33RPuDCZeiXe3mG7W7dubNiwgaCgINl8Nm7cOObOnUvJkiXp1KkTGRkZbNiwgezsbFavXk2rVq1ISUlhypQpuLi4ULp0aXbs2IG+vr6sQFWvSpQtW5bmzZtz79499u7di52dHQB169alV69eLFu2jPT0dBo1asRvv/3Gjz/+yMiRI2WTiqWlJevWrSMsLIxatWpx/Phxdu7cWehMv3bt2jg6OrJw4UJevHhBzZo1OXz4MPv27SMgIADI+erRiBEjGDduHIMGDaJs2bLs3buXffv2ERERgbGxMQEBAejo6ODl5ZVnPq1atSI9PZ3bt28XaK4sDF1dXdzc3PD19aVChQoolUquX79OSEgI/fv3L9J+UuXKlTl//jy7du2iVatW+Zonu3TpwtKlS9HV1VXbj9emDxREcnIyX331FZ999hlPnz5lxYoVGBsb06tXrzzjt2vXjs2bNzN16lQcHBy4dOkSW7ZsAQpfCeVV9+TkZLZs2ULz5s1l64zK5JmXF3lB3L9/H39/f8qXL88XX3xRoBKGnIlkdnY2w4YNo379+mrXmjVrxvr164mMjKRbt25YWFjIfTQxMZHmzZtz//59VqxYQffu3dVWUj4+Pri6ulKhQgUiIyN58OABc+fOBSiSnNfbyszMjIULF/L8+XOqVavG2bNniY+Pl61EPXr0YMuWLUyYMAF3d3c5/z/++EOeaL+Ojo4Orq6u+Pv7M3v2bNq2bcuNGzcK/QpUlSpVmDJlCr6+vowZM4aePXtiaGjI7du32bx5MyYmJtStWzfPtO+yDxVG7969ZT8OZ2fnfOO1b9+e0NBQlixZQoMGDdi7dy9HjhyRy2RkZISlpSU//PADc+bMwd7enps3b7J27doil0mb8a5Pnz5s27aNcePG4ebmRvXq1blw4QKrVq0iICCgUJ+Yfzv/yAc9Sunpkp757l3MdXV1GTt2LF999RV79uzB0dGR3r17U7p0adatW0dUVBRly5bF2tpaVkYmJiZ8//33LFmyBH9/fzIyMmjQoAFLliyRZ+CjRo3C0NCQ7du3s2bNGipUqKAxKEybNo0qVaqwfft2QkNDqVKliobZb+TIkTx58oQffviB9PR0LC0tGTBggIaTUV54e3sTHBxMaGgoKSkpmJubExgYKDtaNGjQgO+//55ly5bx7bffoqOjQ5MmTVi2bJm8Iv7rr78KzKNp06YYGxvz66+/vvUHOpydncnIyGDTpk1s2LCBKlWq4O7uzqBBg4okZ9SoUXh7e+Pn58eCBQvyVcSVK1emVatW6OnpaZizCusDBVGlShUUCgV+fn4kJSVhYWHBlClTZBPq67Rp0wZvb2/CwsI4fvw4jRs3Jjg4mEWLFsn7n9rSq1cvDh8+zJIlSxgyZIisiI8fP06dOnW03nLIXZf169drHT8qKoqmTZtqKGGAEiVK4OzszPfff8/9+/epUqUKPj4+hIaG8ssvv7Bq1SpMTU3p3r07o0aNUks7a9Ysli9fzo0bN6hcuTKzZs2St5gAreXkRkdHh0WLFrF8+XJCQ0N58uQJVatWZfLkyfKkycDAgJCQEJYuXUpQUBCpqanUr1+fJUuW5Ok0paJv3748f/6czZs3s2vXLlq0aMH48eML3OeFnGegevXqhIWFMX/+fNLT06lYsSJWVlaMHTs2X7Pru+xDhdGqVStq165N5cqVqVGjRr7xRo4cSWpqKjt37iQ8PJz27dsze/ZswsLCuHv3LkZGRlhZWeHl5cXmzZvZvXs3DRs2xM3NLd9JTkEUNt6VKVOGVatWERQUxJIlS0hNTaVWrVp4e3t/8EoYQEcqxG6inL67oMuFYtuwEvM/b8XnQb/y1+MXcviZuY5vJVfwbggJCSEmJoYtW7Z8FF8mexvyc9YqTtLS0ujZsydjxozJ9x1MgUDwYfNeR17bhpVYOPgTNh2LV1PCgn8PLi4upKam8vPPPxd3UQR5EBYWhomJiZp3t0Ag+Lh4b4pYpYQ3/nqL4D1/vq9sBG+JoaEhs2fPZvny5WpOLYLi5/jx44SHh+Pr61vkb0ULBIIPh/dimrazqMSCzwtWwsI0/e/i5MmTpKamav1hCMH7JyIiggYNGuTrsS0QCD4OijTN1tGBwt4saWdhxvzPW/Hjr/FiJfwB8TE4PHxsODk5FXcRBALBP4DWpmnDUnocmuHAp82r5hsntxIO2vPHOymgQCAQCAQfM1qviFPSM/nhyC3m9G+ODrDnvPqxaO0bmTF/UCt+PPbulfCr7Fdce3SNRy8e8fLVy8ITCAT/YUrrl6ZS2UrUr1Qffd2C31kXCATFT5FM098fyPmwwOz+zdHRgd2/5yhj+0ZmzPv/Snjp7ne/Er768Cp3n95953IFgo+Rl69e8nfy32RJWTSr0qy4iyMQCAqhyK6Y3x+4jiRJzO7fAh0dHV6mZ75XJQzwKOWf+YaxQPAxkfji3X4MQiAQvB/e6J2I0IM5H1Kf1a852dkSm96jEs7MziQjK6PwiAKBQI30zHQyszPR0xWvPgkE/2be+AkNPXiDtFdZGOiXkBXz+0AMIgLBmyEhiedHIPgAeKundMPR+HdUDIFAIBAI/psU+vpSZSODd56pmVGptz4GUSAQCASCj4FCFXG5Mu/+9YfyZUq+k2MQBQKBQCD40ClUGw6xq0uZkiXeWYalS5ZgqF2ddyZPIBAIBIIPmUL3iLu3rAqSxA9HbvI09RWPnqe/UUZmRqUoX6YkQ+3q0LVl0c5VFQgEAoHgY0UrZ63urarRvVU1MrOy39ik/DZpBQKBQCD4WCmSZnwbRSqUsOCfICsrq7iLIBAIBEVCvGQo+CjYtWkXB7YdIDUllQnfTaBuo7rFXSSBQCDQCrFMLQKz3WYz2212vtfnjpmLj6uP1vIWT17M4smL5d/f+35P8LfBBaY5vu84Y7qOIfFBzucLY3fEMuXzKaSlpmmd78fGhZMXiFwfiZWDFeN8x1H1f/mfEPY6Y7qOIWpD1Hss3f9R1HuV9CiJMV3HcHzf8fdcMoFAUJz85xXxz9//TLB3wcpPReuOrbl/+z53bt3RuPbgzgPu3rpLm45t3rgs9ZrVw6KlRZHSVPlfFZq2aYp+qf/uKTt/nv+TMuXK0Me1D40+aUTpsqWLu0h5Iu6VQCDIi/+0aXpryFZid8Qy2GuwVvHbdGhD5LpIzh45S406NdSuxR2Oy4nzFoq4g1OHIqexaGlRZOX9OtnZ2ejqfnhzMlW5ut+vKQAACulJREFUU56lUMawDDo6OsVajsJ4F/dKIBB8fPxnFfGWFVs4FHmIwV6DsfnURqs0JpVNqN+sPnGH4+g5tKfatbjDcdRtXBfTKqYAZKRnsOvHXcQdjiM5MZkKlSpg29UWh34O+cpXmam/XvC1HLZr0y4ORx3mxfMX1G1Ul1oNa6mlidoQxc6NO1m+a7kcdv/2fX4J/YVr56+hp69Hy7Yt6efWj1KlSwEwY+QMatStwauMV/xx9g+GThhKelo6G5dsxH+jP+UrlgfgVcYrPJ08cRruRJeBXUh6lIT3UG/6uPbh2oVr/PH7H5QyKIWyvZI+rn0ooZfzvvnLFy/ZsmILvx/7HR1dHZpbN8fQyJC4Q3H4bfDLt/5FLfdgr8GsW7ROTj+m6xgafdIIj7keANy+cZttq7dx88pNdHV1qd+sPn1c+1C5RuV8y6BN2fNqP6W9ktQXqUSsieDs0bOkp6dTv2l9BowegFl1s3zv1Z/n/yRibQR3bt6hjGEZmrZpivMIZ8oalZXjpDxNYfW81Vw6dQn9Uvoa7S0QCD5sPrxl0Dvgp+U/FVkJq2jdoTUP7z7kzs3/M0/fi79Hwl8JaqvhjUs2cmzvMboM7MI433HYdbMjIiyCIzuPaJ1X7I5YItdH0ljZmJFTRmLRyoLYiNgC0yQ+SGTh1wtJeZbC8MnD6TW8F2diz7B15Va1eOd+PYexiTHDJw+nTqOifWAlIiyCpm2aMjVoKt0+78bBiIMc3X1Uvr4hYANxh+Jw6O/AsInD0EGHA9sOvPNy12tajxmrZtDcujkVzSoyY9UM2brx4M4DAiYFkPYyjaFfD2Xg2IE8SnjEdxO/IzkxOd9yaFv219sv81UmwdODOXf8HL1dezN0wlCSHiaxfOZysrPz/pxrwt8JBHsHU9aoLKOmj8JphBOXzlxi5ZyVaml2rNuBUQUjhk8ezid2n2i0t0Ag+LD5z62If1r+E4ejDuPylQvWDtZFTv+J3SdsWbGFuMNx1KibY56OOxyHnp4eCjuFHM+2qy1dB3WlSs0qADRo3oALJy9w8dRF7LrZFZpPdnY2uzfvpmmbpgz5akhOoA3oltBl+5rt+aaL3hANwNhZY+VVVUZ6BhFrIug1rBdGFYwAsGhlwWBP7Uzyr+M40FGuQ+UalTkcfZhrF67Rvkd7Htx5wNlfz9LHtQ+d+3YGoLlVc5ITk7n/9/33Uu7SZUujW0JXbmuAyPWR6Onr4ennKa+oG7ZoyIwRM9jz0x4GjhmoUYailP31cpzYd4L4P+Lxmu9Fg+YNADCrZob/OH8unLxAC+sWGvnt3rQbYxNj3Lzd0NPPeRSNKhgR7B3MnRt3MDQ2BHL6Uv8v+8vluRx3WW5vgUDw4fNRrIjj/4jn9MHThcZ7WyUMUMawDM3aNOO3I7/JYXGH42jcurGaObGORZ3/1969xjR1BmAAfk8d9AKlhYIIEusQgYoKiCbe2BZQgxgwkm2JOtw0mqiZivzRzcUYXeaFLFskxkWnhqhRcYahsmkwY1GWGdHibQqKkUuMxiGFVi4qtPvRtFJ6ERFzbPc+CT84p1/PGxJ4z3f6nQNqr9ZiR94OrJu/Dnnz8lD3Tx3aTe39Ok5rcyuMBiOSpyc7bFeqlR7H3dbfhi5ZB5lChp7uHvR09yA+KR7d3d14cP+B/XUqjapfOVwJCQ9x+D4gKAAmgwkA0HC3AQCccocMdRzztnPXXK1B4tREewkDgFqjRnxyPGqvuf7f2a+TvW+O2/rbUKqVGDVmlD1/pDYSSrUSDXcaXB7v3q17iEuKs5cwAMQlxWHjno0IGx5m3zZi9AinY9t+3kTk/XxiRlxfW4/i3cV4anzqdsHTYJSwzaS0SajeUo3GukYIgoDHDx4j+/Nsh9cc3nkY1/++jpylOdDGauEv9cehHw+5vUzZV1tLGwDYZ4L9ZWw1Qn9B73CiYOPpkuybssBiPX6LEYC4uS0WCzpMHQgKcc6gClG5LcaBZges+U2tJqzKWuW0z9BscDnG0GyAWqN22DZkyBD7zL6zvdPt8Ww/byLyfj5RxB9lf4S2J204/tNxmM1mpM9Ld9h/dNdRXCi7gNy1uZg8c/IbHy9hYgIUSgWunL8CQRAgD5Bj3ORx9v1dHV249MclZOVmYVrGNPt2P38/POvq37O6bQumXnfmI5PLoJugw4yPZzjt04Rr3A+0LTh+w7/vtvIzGoyej9fHgHO7IAgC5IFy+8lMb0aD0eHKRW8DzQ4AUpkUoRGhWLJ+idO+wKBAl2OCQ4Pf6skREXkHn7g0DQBzF1tX9p7YcwLlv5QDsM6MBruEAWuhpqSmoPpCNfTn9UhOTYaf38t7Q81mMyxmCyyWl63W0d6BR03uPyPtKzgsGGqNGtV/VTtsb3viXC69xYyNQdO9Jgx/fzhGxo60f6k1aihV7i9rq4KtxW948nL2NpCS0I62ruqurnTM3drs+b0GmtsdXbIONy7ecDjxMRqMqKmucXsL0UCz2/K3PG6BXCF3yB+sCbavpO8rWheNuzfuOjyWs/5OPdYvWO921k5EvscnZsQ2c7+YC4lEgpJ9JTCbzWh53ILK3yqRm5+LyTMGp4RtJqVNsq+Azk3LddinCFQgZmwMzp04B6lcCqlMiopfK2D41wBFoKJf7y8IAmYvmI0jhUdw8IeDSJiYgIcND3G2+KzHcVmLslCwtgCFGwqRNjcNMoUMl89fhv68Hpv3b0agyvXsTBunhUwhQ/HuYqTnpKPT1InyE+X9ytpbeFQ4Uj5Mwcmik3jx/AUiRkTg2sVruHXlltNl2MHI7c6cz+Zg+5rt2PnVTqTnpKOnuwdnj52FVC7FrE9nDWp2wLqgqvL3ShRuKETmwkyEDgvF/Zr7KDtUhhWbVkA3Qec0JmN+BrZ9uQ17v92L6ZnT0W5sR9nhMmjCNYiKjkKbwfNJFxH5Bp8qYsD6Bx0CUHqgFIIgvJUSBoCYhBiEDguF2WJGzNgYp/2L1y3GsV3HcPrgafhL/ZGamYrEqYm4WXUT3S+6HRbouJOamYoOUwcqSitQVVGF6DHRyFmag+LdxW7HREVHYW3BWpwqOoUDBQcgESTQxmqx+rvVHstMqVJi6ddLUbKvBEUFRVCHqjHrk1kej+XOgtUL4Ofnh/Lj5YAAjJ8yHknTktBY1zjoud2JGBGB/IJ8lB4oRdH3RZAIEsQmxmLZN8s8lupAsgOATCFDfkE+SvaXoOTnEjzreoahw4di4ZqFLksYACK1kVi5ZSVOFp3Eni17oAhUIHFqIrIXZfMeYaL/EcHS+/rpO+pM7ZnXHlNRWoGg4CCkfJDy6hfToGo3tSNA6fg57NZVWyFXyJG3PU+kVP3jzdldyYjLEDsCEb2Cz82IbQbyuEgaHLs27oIqRIUpM6dAIpGg6s8qNNU1Yfmm5WJHeyVvzk5E3slnZ8QknuZHzTh96DRq9DV43vUckSMjkbkwE2NSxogd7ZW8ObsrnBETvftYxEQ+jEVM9O7zmduXiIiIvBGLmIiISEQsYiIiIhGxiImIiETEIiYiIhIRi5iIiEhELGIiIiIReUURy96TiR2ByOvw94bIO3hFEWsCXu9/wxIRf2+IvIVXPGs6fmg8JJCguaMZnS86xY5D9E6T+8kRFhCG0WGjxY5CRP3gFY+4JCIi8lVecWmaiIjIV7GIiYiIRMQiJiIiEhGLmIiISEQsYiIiIhGxiImIiETEIiYiIhIRi5iIiEhELGIiIiIR/QeaYdlCN4OkgwAAAABJRU5ErkJggg==;" vertex="1" parent="1">
          <mxGeometry x="-14.76" y="385" width="229.52" height="60" as="geometry" />
        </mxCell>
      </root>
    </mxGraphModel>
  </diagram>
</mxfile>
